<svg width="421" height="389" viewBox="0 0 421 389" fill="none" xmlns="http://www.w3.org/2000/svg">
<path d="M34.5117 311.023L148.039 259.729L387.285 291.348L282.629 344.577L34.5117 311.023Z" fill="#469FA7"/>
<path d="M387.285 291.348L387.034 296.588L382.676 299.193L384.351 330.499L386.61 329.34L386.466 334.296L284.309 389C284.309 389 269.884 385.898 269.039 374.532C267.844 358.448 282.631 344.577 282.631 344.577L387.285 291.348Z" fill="#C8DCDE"/>
<path d="M276.121 385.481C311.328 359.459 345.913 332.538 383.237 309.669L382.676 299.192L387.034 296.587L387.285 291.347L282.631 344.576C282.631 344.576 267.844 358.448 269.039 374.531C269.428 379.773 272.703 383.249 276.121 385.481Z" fill="#E6EAED"/>
<path d="M282.629 344.577C282.629 344.577 277.578 350.167 277.809 370.4C277.909 379.216 284.308 389 284.308 389L34.8167 357.038C34.8167 357.038 25.6022 346.507 25.4741 332.186C25.3416 317.404 34.5119 311.023 34.5119 311.023L282.629 344.577Z" fill="#24878F"/>
<path d="M384.351 330.499L288.804 381.801L287.826 348.017L382.676 299.193L384.351 330.499Z" fill="white"/>
<path d="M384.351 307.232L288.804 368.841L287.826 348.017L382.676 299.193L384.351 307.232Z" fill="#E6EAED"/>
<path d="M66.4609 264.251L183.572 219.004L420.008 263.095L311.609 310.738L66.4609 264.251Z" fill="#346E94"/>
<path d="M66.4609 264.251L183.572 219.004L398.995 259.214L283.642 305.219L66.4609 264.251Z" fill="#0F3A54"/>
<path d="M420.008 263.095L419.369 268.312L414.827 270.683L415.061 290.125L417.401 289.086L416.888 294.025L310.872 343.27C310.872 343.27 296.705 339.419 296.705 328.03C296.705 311.915 311.608 310.736 311.608 310.736L420.008 263.095Z" fill="#AEC5D4"/>
<path d="M311.608 310.738C311.608 310.738 305.397 316.429 305.397 329.321C305.397 338.131 310.872 343.271 310.872 343.271L64.2352 298.3C64.2352 298.3 55.4514 292.261 56.386 277.962C57.3508 263.203 66.4597 264.25 66.4597 264.25L311.608 310.738Z" fill="#0F3A54"/>
<path d="M415.06 290.126L315.895 336.323L316.541 314.445L414.828 270.684L415.06 290.126Z" fill="white"/>
<path d="M49.0977 232.385L162.625 181.091L401.871 212.71L297.215 265.94L49.0977 232.385Z" fill="#FF5353"/>
<path d="M105.479 229.793L179.657 194.59L270.026 206.742L201.027 243.114L105.479 229.793Z" fill="#E3E3E3"/>
<path d="M190.81 244.005C228.82 244.005 259.632 238.353 259.632 231.38C259.632 224.407 228.82 218.754 190.81 218.754C152.801 218.754 121.988 224.407 121.988 231.38C121.988 238.353 152.801 244.005 190.81 244.005Z" fill="#EBD0A9"/>
<path d="M350.936 225.381C350.936 228.212 342.45 230.508 331.981 230.508C321.512 230.508 313.025 228.212 313.025 225.381C313.025 222.549 321.512 220.252 331.981 220.252C342.45 220.253 350.936 222.549 350.936 225.381Z" fill="#EBD0A9"/>
<path d="M401.869 212.71L401.618 217.95L397.26 220.555L398.935 239.947L401.194 238.788L401.05 243.744L298.893 298.448C298.893 298.448 284.468 295.346 283.623 283.98C282.428 267.896 297.215 265.939 297.215 265.939L401.869 212.71Z" fill="#FAD9AA"/>
<path d="M297.214 265.94C297.214 265.94 291.438 271.946 292.394 284.813C293.047 293.605 298.893 298.449 298.893 298.449L49.4006 266.487C49.4006 266.487 40.1862 260.919 40.0581 246.599C39.9256 231.817 49.0959 232.386 49.0959 232.386L297.214 265.94Z" fill="#EE2D2D"/>
<path d="M398.936 239.947L303.389 291.25L302.41 269.38L397.262 220.555L398.936 239.947Z" fill="white"/>
<path d="M350.759 151.392C350.759 152.89 342.586 154.105 332.503 154.105C322.42 154.105 314.246 152.89 314.246 151.392C314.246 149.895 322.419 148.68 332.503 148.68C342.585 148.68 350.759 149.895 350.759 151.392Z" fill="#B09061"/>
<path d="M325.676 162.498C320.04 147.984 305.07 143.299 301.83 128.488C298.588 113.677 299.034 116.296 293.514 109.703C287.995 103.111 282.432 96.7927 280.402 84.4493C279.222 77.2731 277.142 74.5027 271.87 69.874C266.879 65.4907 265.293 58.2316 267.768 55.1597C272.254 49.5953 280.194 57.2744 282.447 64.9987C284.699 72.7229 288.889 71.0314 296.432 80.3729C303.974 89.7144 303.259 99.3165 310.125 104.24C316.99 109.164 326.193 114.166 328.253 125.513C330.312 136.859 329.383 154.741 334.507 158.447L325.676 162.498Z" fill="#044E36"/>
<path d="M275.811 65.0513C275.811 65.0513 319.696 127.53 331.5 167.412" stroke="#FFEACB" stroke-width="0.7087" stroke-miterlimit="10"/>
<path d="M295.892 95.5598C295.795 92.5924 295.698 89.6261 295.602 86.6587" stroke="#FFEACB" stroke-width="0.7087" stroke-miterlimit="10"/>
<path d="M296.186 107.466C298.65 107.881 301.115 108.296 303.579 108.711" stroke="#FFEACB" stroke-width="0.7087" stroke-miterlimit="10"/>
<path d="M312.769 116.857C312.501 119.095 312.233 121.333 311.965 123.57" stroke="#FFEACB" stroke-width="0.7087" stroke-miterlimit="10"/>
<path d="M335.422 158.971C339.241 151.381 340.005 136.202 341.151 124.818C342.297 113.434 354.271 115.806 355.282 108.69C356.427 100.627 356.427 93.5111 364.448 87.8196C374.592 80.6197 372.85 78.3327 379.725 69.3207C384.033 63.6734 390.419 68.3721 383.926 79.2813C376.536 91.7001 380.871 90.6653 375.524 102.998C370.177 115.331 362.156 106.792 364.067 121.023C365.976 135.253 351.845 137.851 348.408 145.215C344.971 152.578 346.117 164.188 346.117 164.188L335.422 158.971Z" fill="#ACB74E"/>
<path d="M374.056 87.4749C355.724 112.071 338.155 152.225 334.336 163.293" stroke="#FFEACB" stroke-width="0.7087" stroke-miterlimit="10"/>
<path d="M342.606 155.962C343.127 146.02 353.501 140.252 353.501 128.614C353.501 116.976 349.35 111.158 352.463 101.848C355.576 92.5376 364.396 86.719 361.801 75.6634C359.208 64.6078 358.689 55.2975 362.32 47.7336C365.952 40.1698 372.697 22.7131 365.433 18.0585C358.17 13.4039 351.166 24.8881 350.387 40.1698C349.349 60.5357 338.192 62.5157 335.86 76.2459C333.786 88.4654 340.53 93.12 336.898 101.848C333.267 110.576 322.697 120.786 325.484 138.505C327.041 148.397 326.522 164.69 326.522 164.69L342.605 167.018C342.605 167.018 342.087 165.854 342.606 155.962Z" fill="#197A1A"/>
<path d="M360.246 33.1765C356.095 41.9043 337.417 116.69 335.861 156.544" stroke="#FFEACB" stroke-width="0.7087" stroke-miterlimit="10"/>
<path d="M332.703 168.21C336.688 162.504 343.585 117.447 343.123 110.837C341.94 93.8813 334.236 90.9957 335.169 74.0645C336.101 57.1322 333.888 48.6628 327.165 44.0115C320.442 39.3601 320.904 34.2317 314.776 22.9877C308.647 11.7436 296.17 11.4788 299.096 25.2412C302.021 39.0048 309.854 44.553 309.061 53.3443C308.267 62.1356 310.414 71.3383 314.125 82.9861C317.837 94.6339 311.303 101.93 316.145 118.741C320.811 134.939 330.185 155.712 330.185 155.712L332.703 168.21Z" fill="#799D13"/>
<path d="M332.703 168.209C334.616 81.7317 314.787 42.7258 314.787 42.7258" stroke="#FFEACB" stroke-width="0.7087" stroke-miterlimit="10"/>
<path d="M321.805 62.1872C322.239 60.233 322.674 58.2788 323.107 56.3235" stroke="#FFEACB" stroke-width="0.7087" stroke-miterlimit="10"/>
<path d="M319.648 80.1887C322.458 82.1817 324.949 84.6215 327 87.3897" stroke="#FFEACB" stroke-width="0.7087" stroke-miterlimit="10"/>
<path d="M330.057 108.226C331.73 105.843 333.404 103.461 335.077 101.078" stroke="#FFEACB" stroke-width="0.7087" stroke-miterlimit="10"/>
<path d="M326.172 123.833C328.474 126.07 330.43 128.664 331.949 131.493" stroke="#FFEACB" stroke-width="0.7087" stroke-miterlimit="10"/>
<path d="M353.111 44.8071C353.544 47.1242 353.977 49.4402 354.41 51.7573" stroke="#FFEACB" stroke-width="0.7087" stroke-miterlimit="10"/>
<path d="M349.246 72.5582C351.252 71.5752 353.259 70.5922 355.265 69.6091" stroke="#FFEACB" stroke-width="0.7087" stroke-miterlimit="10"/>
<path d="M341.684 86.678C342.687 89.1436 343.69 91.6082 344.693 94.0739" stroke="#FFEACB" stroke-width="0.7087" stroke-miterlimit="10"/>
<path d="M362.625 105.158C364.435 104.944 366.245 104.731 368.055 104.518" stroke="#FFEACB" stroke-width="0.7087" stroke-miterlimit="10"/>
<path d="M332.503 154.104C322.42 154.104 314.246 152.889 314.246 151.391L320.874 224.416C320.874 224.416 323.335 227.911 331.922 227.911C340.51 227.911 344.131 224.416 344.131 224.416L350.759 151.391C350.759 152.89 342.585 154.104 332.503 154.104Z" fill="#DDDDDD"/>
<path d="M173.683 148.258C173 149.409 158.182 166.885 154.484 167.552C150.787 168.218 132.959 161.995 132.959 161.995L138.26 141.829L173.683 148.258Z" fill="#FF8282"/>
<path d="M58.0746 279.771C60.9343 272.068 71.2459 256.886 71.2459 256.886L58.4837 248.056C58.4837 248.056 38.6131 279.68 26.4668 281.251C26.4668 281.251 41.3598 287.39 47.8728 286.233C54.3847 285.074 58.0746 279.771 58.0746 279.771Z" fill="#FFAF88"/>
<path d="M52.9811 293.344L51.0269 297.192C51.0269 297.192 26.815 292.087 17.3938 289.626C7.97266 287.166 0.0760918 280.846 0.00179903 277.178C-0.0724937 273.508 2.1789 272.476 2.1789 272.476L47.8711 286.232L52.9811 293.344Z" fill="#DAE1E9"/>
<path d="M10.5234 269.18C23.8961 271.782 35.0573 267.411 38.2928 267.508C42.6071 267.637 44.1382 271.875 44.1382 271.875C44.1382 271.875 32.6358 281.341 26.4662 281.251C20.2967 281.161 10.5234 269.18 10.5234 269.18Z" fill="#FF8282"/>
<path d="M58.0741 279.771C58.0741 279.771 47.5945 272.472 44.1383 271.874C40.6821 271.275 24.497 274.956 22.0443 276.445L21.8203 285.207L52.9813 293.343C52.9813 293.343 57.1632 282.272 58.0741 279.771Z" fill="#FF8282"/>
<path d="M21.8197 285.208C21.8197 285.208 25.5365 274.925 17.1942 270.314C8.85079 265.702 2.77924 269.83 2.17951 272.476C0.488009 279.942 21.8197 285.208 21.8197 285.208Z" fill="white"/>
<path d="M32.5254 267.535C35.0546 267.354 37.306 269.422 38.1889 271.8C39.0718 274.177 38.8984 276.798 38.7132 279.326" stroke="white" stroke-miterlimit="10"/>
<path d="M26.3965 268.082C29.4113 270.397 30.9714 274.463 30.278 278.201" stroke="white" stroke-miterlimit="10"/>
<path d="M106.944 352.427C106.505 343.838 110.133 324.976 110.133 324.976L94.2108 321.77C94.2108 321.77 88.1984 360.392 77.1719 366.93C77.1719 366.93 94.0288 366.667 99.8107 362.859C105.592 359.051 106.944 352.427 106.944 352.427Z" fill="#FFAF88"/>
<path d="M107.667 367.582L107.38 372.09C107.38 372.09 81.9926 377.203 71.919 378.737C61.8453 380.271 51.6381 377.464 50.0489 373.968C48.4597 370.472 50.1964 368.547 50.1964 368.547L99.8121 362.86L107.667 367.582Z" fill="#DAE1E9"/>
<path d="M56.8516 361.924C70.7831 358.891 79.7036 350.07 82.8529 348.824C87.0542 347.163 90.279 350.603 90.279 350.603C90.279 350.603 83.1394 364.463 77.1712 366.929C71.2041 369.397 56.8516 361.924 56.8516 361.924Z" fill="#FF8282"/>
<path d="M106.944 352.426C106.944 352.426 93.8491 349.748 90.2799 350.602C86.7095 351.457 72.6746 361.695 70.9336 364.141L74.3446 372.656L107.667 367.581C107.667 367.581 107.103 355.206 106.944 352.426Z" fill="#FF8282"/>
<path d="M74.3449 372.657C74.3449 372.657 73.6623 361.234 63.7339 360.254C53.8056 359.274 49.6775 365.755 50.1954 368.547C51.6598 376.422 74.3449 372.657 74.3449 372.657Z" fill="white"/>
<path d="M77.3223 351.237C79.6781 350.016 82.6983 351.073 84.5308 352.992C86.3634 354.912 87.2818 357.502 88.1496 360.01" stroke="white" stroke-miterlimit="10"/>
<path d="M71.6562 354.3C75.513 355.278 78.6947 358.541 79.5754 362.421" stroke="white" stroke-miterlimit="10"/>
<path d="M107.125 210.296C105.507 212.991 99.5843 242.107 97.2339 275.9C94.9997 308.016 89.543 339.407 89.543 339.407C89.543 339.407 100.737 344.31 108.909 342.676C108.909 342.676 116.541 314.936 127.319 283.433C133.527 265.286 136.542 240.803 136.542 240.803H189.891C189.891 240.803 194.361 230.667 176.384 211.055C158.406 191.443 119.109 189.049 119.109 189.049L107.125 210.296Z" fill="#346E94"/>
<path d="M173.499 7.08792C166.256 11.2946 160.707 22.992 161.506 30.4255C162.304 37.8602 167.805 39.0596 161.991 48.2784C156.176 57.4972 153.846 66.2906 157.243 77.4367C161.512 91.4382 180.785 101.991 200.629 99.1732C221.691 96.1821 233.319 90.3259 234.683 74.6189C235.77 62.1098 227.522 58.7041 224.365 50.9422C221.326 43.4698 225.085 37.6061 225.795 34.6128C228.337 23.905 226.138 12.0257 215.415 8.87955C204.692 5.73449 173.499 7.08792 173.499 7.08792Z" fill="#20242F"/>
<path d="M216.756 61.4358C212.952 53.5888 212.52 37.998 212.52 37.998L195.868 56.8749C196.583 67.6775 192.026 71.9251 186.056 74.3466C186.056 74.3466 184.238 90.5026 199.459 88.572C214.679 86.6415 232.427 72.0747 232.427 72.0747C228.532 69.6381 218.62 65.6468 216.756 61.4358Z" fill="#FFAF88"/>
<path d="M200.791 69.1031C202.162 68.1556 203.437 67.1122 204.746 66.0861C204.846 65.9978 204.924 65.9289 205.01 65.8536C205.558 65.2904 206.097 64.7176 206.613 64.1254C207.527 63.0778 208.353 61.9753 209.165 60.8566C208.354 61.9031 210.532 58.5083 210.823 57.9128C211.579 56.3678 212.154 54.7667 212.832 53.1926C213.01 52.6693 213.127 52.3344 213.196 52.146C213.329 51.6669 213.468 51.191 213.589 50.7097C213.623 50.5772 213.65 50.4437 213.682 50.3124C212.739 44.2236 212.593 38.6775 212.593 38.6775L195.904 57.2108C196.597 67.7938 192.03 71.9671 186.057 74.352C186.057 74.352 186.046 74.4532 186.033 74.6222C191.412 73.7587 196.437 72.1092 200.791 69.1031Z" fill="#FFC2A4"/>
<path d="M177.869 80.6624L174.501 78.8062C174.501 78.8062 169.238 81.4312 166.453 86.4831C163.669 91.535 152.152 124.46 151.086 135.189L135.418 138.297C135.418 138.297 146.821 146.096 153.341 146.826C159.861 147.556 180.228 143.943 180.228 143.943L187.376 111.646L177.869 80.6624Z" fill="#FF8282"/>
<path d="M237.192 181.091C235.277 194.882 233.429 220.685 226.676 233.517C219.923 246.349 190.207 245.673 175.349 238.245C160.491 230.816 116.593 207.179 116.593 207.179L63.2397 271.338L48 261.394C48 261.394 57.531 240.035 70.136 218.534C81.4403 199.251 93.4585 174.897 96.3323 171.384C102.41 163.954 138.204 172.734 153.738 176.787C169.272 180.839 182.103 188.943 182.103 188.943C182.103 188.943 185.559 187.315 193.928 183.02C202.297 178.726 237.192 181.091 237.192 181.091Z" fill="#346E94"/>
<path d="M182.101 188.944C182.101 188.944 185.558 187.316 193.927 183.021C202.296 178.726 237.191 181.091 237.191 181.091C235.276 194.882 233.428 220.685 226.675 233.517C219.922 246.349 190.206 245.673 175.347 238.245C160.49 230.816 116.591 207.179 116.591 207.179L63.2383 271.338" stroke="white" stroke-miterlimit="10"/>
<path d="M242.94 74.0592C238.632 72.7661 233.121 69.9742 225.697 67.0122C225.092 67.9974 220.685 69.3777 220.08 70.3629C218.263 72.7941 213.793 81.7168 211.08 82.9324C208.531 84.6422 198.172 91.2176 187.242 85.8061C181.195 82.0646 188.155 73.3885 187.857 73.2108C181.996 75.8487 174.499 78.8054 174.499 78.8054C174.499 78.8054 173.616 82.3854 172.163 90.0053C170.785 97.2332 166.039 106.059 164.207 117.123C162.377 128.187 170.317 131.862 170.734 135.743C170.937 137.626 172.327 154.559 170.561 165.938C168.689 177.999 164.672 182.441 164.672 182.441L181.956 191.293C181.956 191.293 192.072 199.303 203.032 208.997C207.651 213.084 237.598 222.065 237.598 222.065C237.598 222.065 238.939 193.413 237.269 177.627C236.596 171.262 234.163 166.205 234.437 163.92C235.395 155.969 241.68 141.407 246.226 121.901C250.773 102.394 250.462 85.7652 250.462 85.7652C250.462 85.7652 248.867 75.838 242.94 74.0592Z" fill="#FF5353"/>
<path d="M172.164 90.0051C170.998 93.6767 169.401 97.9631 168.821 102.14C165.736 111.728 160.727 122.552 168.937 131.956C171.407 135.805 170.937 140.998 171.304 144.706" stroke="white" stroke-miterlimit="10"/>
<path d="M220.461 64.9414C220.461 64.9414 211.846 81.2815 200.607 84.6839C189.369 88.0863 186.567 82.4282 187.064 78.2979C187.562 74.1677 189.084 72.6829 189.084 72.6829L184.446 74.2851C184.446 74.2851 180.687 80.2371 184.143 86.1375C187.599 92.0378 200.2 92.5665 209.588 86.5412C218.976 80.516 225.697 67.0108 225.697 67.0108L220.461 64.9414Z" fill="#FFD232"/>
<path d="M171.634 144.868L147.397 89.0857L110.186 108.346L85.2663 99.0302L84.4824 103.712L104.898 151.271L127.107 162.241L132.958 161.995L171.634 144.868Z" fill="#DAE1E9"/>
<path d="M170.849 149.549L146.612 93.7681L109.402 113.027L84.4824 103.711L104.114 155.952L126.323 166.924L132.173 166.677L170.849 149.549Z" fill="white"/>
<path d="M170.647 151.293L146.41 95.5115L109.199 114.772L84.2793 105.455L103.911 157.697L126.12 168.667L131.971 168.421L170.647 151.293Z" fill="#2A6F94"/>
<path d="M126.119 168.667L107.742 114.518L112.984 112.842L131.97 168.421L126.119 168.667Z" fill="white"/>
<path d="M231.653 153.859L216.909 143.667C216.909 143.667 180.396 142.913 175.903 139.578C170.737 135.742 166.123 130.734 163.963 127.497C160.039 121.617 157.588 119.259 156.376 120.762C155.165 122.265 159.803 131.219 159.803 131.219C159.803 131.219 149.97 131.402 145.946 129.089C141.923 126.776 138.76 126.086 139.657 128.049C140.554 130.012 144.796 134.361 144.796 134.361C144.796 134.361 143.658 136.542 145.985 139.038C148.312 141.534 151.547 142.902 151.547 142.902C151.547 142.902 150.445 145.423 153.341 146.828C156.237 148.233 155.256 148.681 159.207 150.317C161.639 151.323 168.26 150.401 175.997 152.379C180.828 153.612 189.405 156.122 194.189 157.789C206.83 162.195 213.618 165.159 213.618 165.159L231.653 153.859Z" fill="#FFAF88"/>
<path d="M242.941 74.0591C249.932 77.5186 256.134 84.2728 257.094 100.013C258.186 117.933 259.337 145.812 256.248 160.717C255.095 166.282 253.469 169.267 251.402 170.137C247.537 171.764 224.371 169.396 213.617 165.156C213.617 165.156 218.455 152.912 216.908 143.666C216.908 143.666 229.976 144.2 233.406 145.216C233.406 145.216 231.27 122.747 230.075 109.035C228.88 95.323 233.01 69.144 242.941 74.0591Z" fill="#FF8282"/>
<path d="M242.941 74.0591C249.932 77.5185 256.134 84.2727 257.094 100.013C258.186 117.933 259.337 145.812 256.248 160.717C255.095 166.282 253.469 169.267 251.402 170.137C247.537 171.764 224.371 169.396 213.617 165.156C213.617 165.156 218.455 152.912 216.908 143.666C216.908 143.666 229.976 144.2 233.406 145.216C233.406 145.216 230.2 128.821 230.075 109.035C230.021 100.464 230.304 90.9914 232.735 83.2046" stroke="white" stroke-miterlimit="10"/>
<path d="M136.542 240.803C136.542 240.803 123.657 238.913 119.797 236.017" stroke="white" stroke-miterlimit="10"/>
<path d="M203.588 210.854C203.127 215.992 205.716 221.29 210.051 224.085" stroke="white" stroke-miterlimit="10"/>
<path d="M111.652 194.163C111.805 198.9 113.39 203.796 116.591 207.179" stroke="white" stroke-miterlimit="10"/>
<path d="M108.992 202.34C111.278 203.779 113.565 205.218 115.851 206.657" stroke="white" stroke-miterlimit="10"/>
<path d="M88.67 117.182C89.0964 117.09 89.091 118.703 89.4646 119.004C92.2081 121.216 96.6495 122.766 95.3703 123.549C94.8374 123.875 94.0815 124.447 94.0815 124.447C94.0815 124.447 94.8245 125.784 94.3862 126.266C93.948 126.75 93.8867 127.192 93.9749 127.509C94.0632 127.827 95.1507 129.835 94.8568 130.138C94.5628 130.442 95.1442 131.796 94.9214 132.256C94.6985 132.716 94.1849 132.498 92.8649 131.877C91.5448 131.256 89.9233 128.913 88.9639 127.01C86.9559 123.033 87.9185 117.346 88.67 117.182Z" fill="#FFAF88"/>
<path d="M239.769 152.628C236.476 150.894 233.89 147.861 232.699 144.336" stroke="white" stroke-miterlimit="10"/>
<path d="M240.254 146.753C238.708 147.146 237.045 147.071 235.541 146.538" stroke="white" stroke-miterlimit="10"/>
<path d="M175.469 17.4954C173.446 23.7069 173.37 27.3063 174.462 32.1364C175.554 36.9665 176.436 37.1808 176.472 45.5263C176.509 53.8708 183.62 62.9679 191.497 64.2869C199.374 65.6058 207.913 58.4587 211.658 50.6353C215.402 42.812 217.316 25.6794 210.187 15.314C203.057 4.94743 182.148 -3.01158 175.469 17.4954Z" fill="#FFAF88"/>
<path d="M193.866 12.5986C192.436 16.437 189.259 18.3137 184.056 21.3285C178.853 24.3433 168.292 26.0918 168.292 26.0918C168.292 26.0918 164.517 16.6707 172.202 8.169C179.887 -0.332677 195.354 -0.86565 203.811 0.68373C212.268 2.23203 214.562 5.15637 221.254 18.8704C227.947 32.5844 214.083 43.5926 214.083 43.5926C214.083 43.5926 214.979 29.0636 213.905 27.6434C212.831 26.2232 206.521 27.5152 203.267 22.9511C200.015 18.3869 193.866 12.5986 193.866 12.5986Z" fill="#20242F"/>
<path d="M208.658 29.4652C208.658 29.4652 209.985 23.2946 213.901 22.0166C219.42 20.2142 220.555 30.5322 217.903 34.333C215.179 38.2371 212.51 41.1076 212.51 41.1076L208.658 29.4652Z" fill="#FFAF88"/>
<path d="M211.301 28.426C211.301 28.426 212.456 24.9353 215.967 24.8643" stroke="#20242F" stroke-width="0.7087" stroke-miterlimit="10"/>
<path d="M185.227 35.1328C183.814 40.2439 181.805 43.3072 182.67 44.6617C183.536 46.0162 186.804 46.1486 186.804 46.1486" stroke="#20242F" stroke-width="0.7087" stroke-miterlimit="10"/>
<path d="M189.879 28.0308C191.342 25.7924 195.271 25.3703 197.196 27.4343" stroke="#20242F" stroke-width="0.7087" stroke-miterlimit="10"/>
<path d="M195.153 34.8454C195.298 36.1891 194.828 37.3401 194.105 37.4187C193.381 37.4963 192.678 36.4701 192.534 35.1275C192.39 33.7838 192.859 32.6317 193.583 32.5542C194.306 32.4766 195.009 33.5028 195.153 34.8454Z" fill="#20242F"/>
<path d="M180.436 30.3288C178.531 28.4521 174.601 28.8731 173.158 31.3" stroke="#20242F" stroke-width="0.7087" stroke-miterlimit="10"/>
<path d="M176.729 38.1078C176.873 39.4516 177.577 40.4777 178.3 40.3991C179.024 40.3215 179.493 39.1695 179.349 37.8257C179.205 36.482 178.501 35.4559 177.778 35.5345C177.054 35.6131 176.585 36.7652 176.729 38.1078Z" fill="#20242F"/>
<path d="M187.039 53.6802C188.141 53.2075 188.885 51.8875 189.779 51.9682C190.674 52.049 190.93 51.1359 192.175 51.179C193.42 51.222 195.582 50.7246 195.582 50.7246C195.582 50.7246 194.102 53.453 192.086 54.4672C190.068 55.4815 187.039 53.6802 187.039 53.6802Z" fill="#FF498A"/>
<path d="M185.941 53.3551C188.14 54.4437 194.697 53.2119 196.539 49.7363" stroke="#20242F" stroke-width="0.2835" stroke-miterlimit="10"/>
<path d="M218.92 33.4755L218.92 33.475C218.822 32.5602 218.001 31.8975 217.085 31.9961L218.92 33.4755ZM218.92 33.4755C219.019 34.3904 218.356 35.2122 217.441 35.3108M218.92 33.4755L217.441 35.3108M217.441 35.3108C216.526 35.4093 215.704 34.7469 215.605 33.8314M217.441 35.3108L215.605 33.8314M215.605 33.8314C215.507 32.9165 216.169 32.0947 217.085 31.9961L215.605 33.8314Z" fill="#FFB800" stroke="black"/>
<path d="M213.402 31.737C213.76 29.5954 212.45 26.7928 213.59 25.6611" stroke="#20242F" stroke-width="0.7087" stroke-miterlimit="10"/>
</svg>
