<svg width="420" height="330" viewBox="0 0 420 330" fill="none" xmlns="http://www.w3.org/2000/svg">
<path d="M75.164 48.6236C75.8265 52.2365 76.4787 55.8493 76.8203 59.6381C67.7934 54.1309 59.046 48.1681 50.6194 41.781C57.5449 41.812 64.4704 40.7768 71.0853 38.7168C72.3793 41.9466 74.4911 44.9176 75.164 48.6236Z" fill="#A5B9CF"/>
<path d="M77.6804 37.0814C77.7011 43.9965 77.4527 52.4748 77.2767 59.5141C74.0987 54.1932 71.169 47.3195 67.9703 41.9365C53.3533 38.1476 36.2725 30.3836 23.6431 22.1021C40.9619 24.9903 61.0137 31.3878 77.6804 37.0814Z" fill="#C3D2DE"/>
<path d="M68.207 41.9984C53.3209 35.1247 38.2794 28.3545 23.1345 21.9363C29.4078 31.0253 36.1366 39.8038 42.6273 48.6133C51.4368 47.1744 60.1325 45.0937 68.207 41.9984Z" fill="white"/>
<path d="M23.1977 21.9258C41.1584 28.8823 59.1605 35.1142 77.6284 40.166C85.0922 38.7374 91.9452 36.5945 99.1191 33.3958C74.0777 28.5614 48.8292 24.7933 23.1977 21.9258Z" fill="white"/>
<path d="M81.9666 63.5615C95.7347 74.8865 110.869 84.9072 127.743 90.6319C144.627 96.3565 163.457 97.5263 180.197 91.4083C199.006 84.5242 213.364 69.4103 229.586 57.6608C246.077 45.7146 265.259 36.9672 285.518 34.9072C305.776 32.8471 327.133 37.9196 342.837 50.8699C367.495 71.1909 374.224 107.837 365.425 138.562C356.025 171.388 330.445 199.152 298.499 211.191" stroke="white" stroke-miterlimit="10" stroke-linecap="round" stroke-linejoin="round" stroke-dasharray="8 24 8 24 8 24"/>
<path d="M283.054 98.2302C282.65 92.8058 282.577 87.0294 285.331 82.3399C288.095 77.6194 293.354 74.7933 298.716 73.7064C304.078 72.6194 309.617 73.0542 315.072 73.489C312.495 85.2695 303.199 95.3317 283.054 98.2302Z" fill="#1CA33A"/>
<path d="M273.903 109.535C281.005 100.394 282.257 87.0916 276.967 76.7914C275.239 73.427 272.382 70.1144 268.613 69.9487C261.357 82.4953 262.63 99.4312 273.903 109.535Z" fill="#1CA33A"/>
<path d="M268.872 116.294C273.976 111.491 280.849 108.603 287.847 108.344C294.856 108.085 301.926 110.445 307.371 114.855C298.624 122.35 285.725 124.659 268.872 116.294Z" fill="#1CA33A"/>
<path d="M259.119 131.44C262.856 124.959 263.84 116.957 261.811 109.763C259.782 102.568 254.73 96.274 248.156 92.7129C242.535 105.259 245.31 121.088 259.119 131.44Z" fill="#1CA33A"/>
<path d="M254.286 142.506C257.733 135.674 264.555 130.663 272.101 129.4C279.648 128.137 287.733 130.674 293.209 136.005C284.223 142.62 272.422 145.291 254.286 142.506Z" fill="#1CA33A"/>
<path d="M248.405 155.311C248.85 148.406 248.084 141.264 244.927 135.115C241.77 128.965 235.952 123.934 229.109 122.899C227.36 129.69 228.095 137.081 231.138 143.396C234.182 149.711 239.513 154.887 248.405 155.311Z" fill="#1CA33A"/>
<path d="M242.888 168.376C246.48 161.895 253.333 157.33 260.693 156.523C268.053 155.705 275.745 158.665 280.662 164.204C271.459 171.367 258.913 174.017 242.888 168.376Z" fill="#1CA33A"/>
<path d="M289.781 90.8906C255.433 128.21 234.222 177.381 230.651 227.972" stroke="#126943" stroke-miterlimit="10" stroke-linecap="round"/>
<path d="M346.708 178.758C351.698 171.564 359.803 166.605 368.488 165.446C377.174 164.286 386.294 166.926 393.002 172.557C383.25 182.371 367.691 185.942 346.708 178.758Z" fill="#1CA33A"/>
<path d="M332.36 185.611C338.468 181.222 342.878 174.535 344.493 167.185C346.108 159.845 344.917 151.916 341.211 145.373C336.046 150.57 331.129 156.253 328.416 163.065C325.714 169.876 325.528 178.044 332.36 185.611Z" fill="#1CA33A"/>
<path d="M339.057 182.174C346.096 181.17 353.488 182.878 359.378 186.853C365.268 190.839 369.595 197.06 371.293 203.965C364.523 204.348 357.566 203.168 351.666 199.835C345.755 196.512 341.003 190.901 339.057 182.174Z" fill="#1CA33A"/>
<path d="M311.708 197.154C317.215 191.501 320.311 183.572 320.104 175.684C319.896 167.795 316.387 160.042 310.59 154.69C301.718 166.905 299.928 183.903 311.708 197.154Z" fill="#1CA33A"/>
<path d="M316.738 193.934C320.527 190.973 325.9 190.497 330.465 192.019C335.03 193.541 338.84 196.853 341.718 200.715C344.596 204.576 346.625 208.996 348.529 213.406C335.579 213.872 322.66 206.543 316.738 193.934Z" fill="#1CA33A"/>
<path d="M296.191 207.63C300.186 201.263 301.501 193.272 299.762 185.963C298.023 178.655 293.251 172.112 286.822 168.22C283.282 174.721 281.977 182.412 283.178 189.71C284.379 197.019 288.085 203.882 296.191 207.63Z" fill="#1CA33A"/>
<path d="M282.774 220.818C287.774 216.056 295.372 214.7 302.122 216.191C308.861 217.671 314.824 221.667 319.865 226.388C308.892 233.075 293.633 231.74 282.774 220.818Z" fill="#1CA33A"/>
<path d="M271.615 233.458C293.976 204.11 326.967 183.044 362.992 175.094" stroke="#126943" stroke-miterlimit="10" stroke-linecap="round"/>
<path d="M248.312 194.845C248.084 173.903 256.78 153.003 271.801 138.406C286.821 123.81 307.971 115.725 330.165 116.76C331.532 138.179 322.784 160.032 307.018 174.587C291.252 189.152 268.778 196.119 248.312 194.845Z" fill="#1F918C"/>
<path d="M319.721 125.27C291.532 145.467 268.054 172.196 251.677 202.755" stroke="#166673" stroke-miterlimit="10" stroke-linecap="round"/>
<path d="M296.771 126.067C296.967 131.843 297.174 137.63 297.371 143.406" stroke="#166673" stroke-miterlimit="10" stroke-linecap="round"/>
<path d="M270.9 143.034C271.48 150.829 273.188 158.541 275.941 165.85" stroke="#166673" stroke-miterlimit="10" stroke-linecap="round"/>
<path d="M254.337 172.195C255.331 177.361 257.794 182.237 261.355 186.098" stroke="#166673" stroke-miterlimit="10" stroke-linecap="round"/>
<path d="M322.557 136.202C316.801 138.158 310.579 138.728 304.575 137.837" stroke="#166673" stroke-miterlimit="10" stroke-linecap="round"/>
<path d="M310.807 163.334C302.039 162.734 293.384 160.456 285.455 156.667" stroke="#166673" stroke-miterlimit="10" stroke-linecap="round"/>
<path d="M291.553 183.955C282.867 184.183 274.834 182.03 267.267 177.754" stroke="#166673" stroke-miterlimit="10" stroke-linecap="round"/>
<path d="M153.364 168.634C166.376 152.216 172.287 130.373 169.337 109.628C166.387 88.8825 154.627 69.5554 136.438 56.781C122.246 72.8783 115.776 95.5078 119.337 116.667C122.908 137.837 136.407 157.112 153.364 168.634Z" fill="#1F918C"/>
<path d="M139.502 69.897C149.429 103.116 151.624 138.624 145.868 172.816" stroke="#166673" stroke-miterlimit="10" stroke-linecap="round"/>
<path d="M157.162 84.5864C153.466 89.0378 149.771 93.4788 146.075 97.9301" stroke="#166673" stroke-miterlimit="10" stroke-linecap="round"/>
<path d="M167.234 113.841C162.007 119.649 155.94 124.7 149.274 128.789" stroke="#166673" stroke-miterlimit="10" stroke-linecap="round"/>
<path d="M162.473 147.03C158.529 150.508 153.601 152.847 148.415 153.717" stroke="#166673" stroke-miterlimit="10" stroke-linecap="round"/>
<path d="M130.568 76.812C133.922 81.8845 138.487 86.1391 143.787 89.1205" stroke="#166673" stroke-miterlimit="10" stroke-linecap="round"/>
<path d="M123.248 105.456C130.547 110.353 138.787 113.852 147.379 115.705" stroke="#166673" stroke-miterlimit="10" stroke-linecap="round"/>
<path d="M125.848 133.551C132.576 139.048 140.247 142.268 148.85 143.52" stroke="#166673" stroke-miterlimit="10" stroke-linecap="round"/>
<path d="M79.2969 107.795C78.4791 100.259 74.2451 93.1681 68.0132 88.872C61.771 84.5759 53.6343 83.1474 46.3051 85.0625C51.7606 97.6608 64.8144 106.605 79.2969 107.795Z" fill="#1CA33A"/>
<path d="M84.4709 114.524C78.4668 104.338 79.2121 90.5801 86.2721 81.0977C90.8167 85.373 93.6117 91.4703 93.8912 97.7022C94.1707 103.955 91.9347 110.27 84.4709 114.524Z" fill="#1CA33A"/>
<path d="M91.3047 125.094C87.3709 119.255 80.8285 115.249 73.8409 114.39C66.8533 113.53 59.5448 115.849 54.317 120.559C64.1928 129.089 79.0272 131.388 91.3047 125.094Z" fill="#1CA33A"/>
<path d="M98.2078 134.504C94.6157 128.23 93.7461 120.456 95.8579 113.541C97.9801 106.626 103.053 100.673 109.554 97.4849C113.798 109.814 110.444 124.431 98.2078 134.504Z" fill="#1CA33A"/>
<path d="M102.443 143.189C97.6607 137.557 90.5075 134.017 83.1266 133.613C75.7456 133.209 68.2507 135.963 62.8884 141.036C74.0478 149.162 89.6483 150.694 102.443 143.189Z" fill="#1CA33A"/>
<path d="M107.722 152.371C105.631 145.404 106.687 137.568 110.527 131.398C114.368 125.228 120.962 120.839 128.136 119.659C129.502 132.474 122.566 145.797 107.722 152.371Z" fill="#1CA33A"/>
<path d="M112.07 164.669C108.095 158.707 101.491 154.566 94.3891 153.582C87.2877 152.599 79.8135 154.804 74.3684 159.473C84.5133 167.526 98.5092 170.466 112.07 164.669Z" fill="#1CA33A"/>
<path d="M115.228 174.587C114.275 168.013 116.025 161.098 119.979 155.767C123.934 150.435 130.062 146.771 136.625 145.787C137.257 152.009 135.714 158.427 132.319 163.676C128.934 168.924 123.706 172.961 115.228 174.587Z" fill="#1CA33A"/>
<path d="M119.191 187.578C115.993 181.75 110.485 177.226 104.14 175.218C97.7938 173.21 90.6924 173.748 84.7193 176.678C93.1251 185.539 105.962 189.97 119.191 187.578Z" fill="#1CA33A"/>
<path d="M74.8131 103.158C101.469 132.371 118.426 170.301 122.422 209.649" stroke="#126943" stroke-miterlimit="10" stroke-linecap="round"/>
<path d="M115.145 214.524C110.093 194.193 96.4178 176.16 78.1983 165.829C59.9788 155.487 37.484 152.992 16.2624 159.576C20.3307 180.653 34.2955 199.586 53.2293 209.7C72.1527 219.814 95.6621 220.901 115.145 214.524Z" fill="#1F918C"/>
<path d="M28.5086 165.166C60.8689 177.609 90.3203 197.558 113.871 223.013" stroke="#166673" stroke-miterlimit="10" stroke-linecap="round"/>
<path d="M50.9202 160.166C52.1831 165.808 53.446 171.45 54.709 177.102" stroke="#166673" stroke-miterlimit="10" stroke-linecap="round"/>
<path d="M80.2277 170.063C81.6252 177.754 81.9254 185.642 81.0973 193.417" stroke="#166673" stroke-miterlimit="10" stroke-linecap="round"/>
<path d="M103.602 194.11C103.943 199.359 102.784 204.69 100.31 209.328" stroke="#166673" stroke-miterlimit="10" stroke-linecap="round"/>
<path d="M28.5202 176.471C34.5761 176.916 40.7459 175.901 46.3359 173.531" stroke="#166673" stroke-miterlimit="10" stroke-linecap="round"/>
<path d="M46.717 199.763C55.0607 196.978 62.8558 192.589 69.5742 186.916" stroke="#166673" stroke-miterlimit="10" stroke-linecap="round"/>
<path d="M70.5577 214.877C79.0256 212.91 86.2513 208.8 92.5039 202.754" stroke="#166673" stroke-miterlimit="10" stroke-linecap="round"/>
<path d="M334.648 309.887C287.509 309.887 249.296 302.55 249.296 293.5C249.296 284.449 287.509 277.113 334.648 277.113C381.787 277.113 420 284.449 420 293.5C420 302.55 381.787 309.887 334.648 309.887Z" fill="#5E96D6"/>
<path d="M343.653 300.715C342.121 302.133 337.483 302.113 334.574 303.552C314.129 295.311 296.769 288.521 277.224 280.363C275.03 273.686 273.963 266.398 275.827 259.618C277.7 252.837 282.97 246.709 289.264 244.452C309.233 250.001 329.191 255.56 349.16 261.108C347.649 273.376 346.137 285.632 343.653 300.715Z" fill="#F7AA36"/>
<path d="M404.482 297.972C399.13 288.873 398.903 277.268 402.774 268.282C382.246 268.117 361.708 269.173 341.315 271.419C338.147 271.771 334.886 272.175 332.081 273.614C325.538 276.968 323.364 285.591 326.418 291.989C329.472 298.386 336.677 302.444 343.344 303.013C363.872 299.856 384.679 298.345 404.482 297.972Z" fill="#FEEDE3"/>
<path d="M328.696 277.465C349.203 277.361 369.7 277.247 390.207 277.144C369.71 278.107 349.224 279.08 328.727 280.042C329.068 279.307 329.399 278.562 328.696 277.465Z" fill="#DBB9AB"/>
<path d="M325.072 283.314C341.086 282.993 357.101 282.672 373.115 282.351C357.266 283.396 341.417 284.452 325.569 285.498C325.569 284.773 325.558 284.049 325.072 283.314Z" fill="#DBB9AB"/>
<path d="M325.226 288.862C337.587 288.531 349.937 288.21 362.297 287.879C350.206 288.5 338.125 289.442 326.086 290.684C326.044 290.084 325.992 289.473 325.226 288.862Z" fill="#DBB9AB"/>
<path d="M328.56 293.914C349.886 293.293 371.2 292.661 392.525 292.04C371.676 293.334 350.828 294.628 329.979 295.922C329.72 295.363 329.461 294.814 328.56 293.914Z" fill="#DBB9AB"/>
<path d="M406.853 264.908C384.172 264.545 361.47 265.477 338.478 267.351C335.165 267.62 331.987 268.872 329.596 271.046C324.917 275.301 322.277 281.595 322.991 287.703C323.706 293.831 327.743 299.452 333.116 302.765C335.807 304.432 339.047 305.125 342.256 304.897C363.882 303.355 385.507 301.802 407.246 300.042C407.246 298.438 407.246 296.833 406.232 294.711C386.107 296.202 365.983 297.692 344.948 299.183C337.598 299.701 330.683 295.156 329.223 288.355C329.089 287.713 328.995 287.061 328.964 286.398C328.923 285.746 328.944 285.094 329.006 284.442C329.679 277.516 336.056 272.32 343.436 272.113L406.418 270.353C406.439 268.852 406.449 267.34 406.853 264.908Z" fill="#FFBF46"/>
<path d="M284.069 239.141C284.69 242.609 285.995 245.911 287.299 249.193C298.168 253.448 309.338 257.443 320.684 261.139C322.102 261.605 323.531 262.06 324.959 262.516C326.222 262.92 327.485 263.313 328.748 263.706C330.135 264.141 331.533 264.576 332.93 265C338.158 266.584 343.427 268.116 348.707 269.566C350.229 267.402 351.285 265.425 352.33 263.437C349.659 251.439 349.597 241.636 351.678 232.288C332.082 228.779 312.496 225.269 292.91 221.771C289.545 222.982 286.554 225.59 285.063 228.779C283.583 231.978 283.458 235.673 284.069 239.141Z" fill="#3878E8"/>
<path d="M324.929 249.12C324.908 254.203 326.254 259.276 328.749 263.706C330.136 264.141 331.534 264.576 332.931 265C330.436 260.042 328.894 254.659 328.987 249.276C329.111 242.806 331.596 236.398 335.871 231.532C333.78 231.387 332.652 231.16 331.523 230.932C327.269 235.963 324.95 242.526 324.929 249.12Z" fill="#FFBF46"/>
<path d="M317.413 247.568C317.403 252.267 318.542 256.957 320.685 261.139C322.103 261.605 323.531 262.06 324.96 262.516C322.734 257.816 321.378 252.764 321.471 247.723C321.596 241.253 324.08 234.845 328.355 229.98C326.264 229.835 325.136 229.607 324.008 229.379C319.753 234.41 317.434 240.973 317.413 247.568Z" fill="#FFBF46"/>
<path d="M410.229 263.324C405.229 255.145 405.021 244.721 408.645 236.657C389.504 236.512 370.353 237.454 351.336 239.473C348.375 239.783 345.342 240.145 342.734 241.439C336.636 244.452 334.607 252.195 337.454 257.941C340.301 263.686 347.019 267.33 353.23 267.837C372.361 265.011 391.761 263.655 410.229 263.324Z" fill="#FEEDE3"/>
<path d="M339.554 244.907C353.57 244.814 367.587 244.711 381.604 244.617C367.597 245.487 353.591 246.357 339.585 247.226C339.813 246.553 340.04 245.891 339.554 244.907Z" fill="#DBB9AB"/>
<path d="M336.18 250.156C355.238 249.866 374.286 249.576 393.344 249.286C374.493 250.228 355.631 251.17 336.781 252.112C336.77 251.47 336.76 250.818 336.18 250.156Z" fill="#DBB9AB"/>
<path d="M336.326 255.135C350.642 254.845 364.949 254.545 379.266 254.255C365.259 254.814 351.274 255.653 337.319 256.781C337.268 256.232 337.216 255.684 336.326 255.135Z" fill="#DBB9AB"/>
<path d="M339.441 259.68C357.66 259.121 375.89 258.562 394.109 257.992C376.294 259.152 358.467 260.311 340.652 261.481C340.424 260.984 340.207 260.487 339.441 259.68Z" fill="#DBB9AB"/>
<path d="M412.444 233.624C391.295 233.303 370.125 234.131 348.686 235.818C345.601 236.056 342.63 237.185 340.404 239.141C336.036 242.961 333.582 248.613 334.245 254.1C334.907 259.607 338.675 264.649 343.686 267.63C346.191 269.121 349.214 269.752 352.206 269.545C372.371 268.158 392.537 266.76 412.816 265.187C412.816 263.748 412.816 262.309 411.874 260.394C393.106 261.729 374.338 263.075 354.731 264.411C347.878 264.876 341.429 260.798 340.073 254.68C339.949 254.1 339.866 253.52 339.825 252.92C339.794 252.33 339.804 251.75 339.866 251.16C340.497 244.949 346.439 240.27 353.324 240.083L412.061 238.51C412.061 237.174 412.071 235.818 412.444 233.624Z" fill="#3C97FE"/>
<path d="M287.39 210.301C287.37 216.108 290.02 221.667 293.922 226.885C310.02 230.508 326.127 234.121 342.111 237.547C353.954 221.574 372.918 215.943 386.366 209.369C387.132 208.996 387.877 208.624 388.602 208.241C392.422 206.243 396.241 204.235 399.254 201.916C380.103 199.4 360.962 196.885 341.945 194.348C327.183 195.042 312.411 195.736 296.914 196.108C296.552 196.119 296.2 196.129 295.838 196.139C290.537 198.52 287.421 204.493 287.39 210.301Z" fill="#FF5353"/>
<path d="M315.352 225.28C318.168 225.932 320.994 226.574 323.81 227.226C322.112 222.226 322.681 216.326 325.414 212.009C322.629 211.481 319.845 210.953 316.646 210.642C313.882 214.773 313.24 220.259 315.352 225.28Z" fill="#F7AA36"/>
<path d="M296.914 196.108C314.223 200.932 331.976 204.162 349.875 205.736L362.07 210.87C370.186 211.595 378.405 211.067 386.366 209.369C387.132 208.996 387.877 208.624 388.602 208.241C392.422 206.243 396.241 204.235 399.254 201.916C380.103 199.4 360.962 196.885 341.945 194.348C327.183 195.042 312.411 195.736 296.914 196.108Z" fill="#FF8282"/>
<path d="M332.503 200.767C341.479 200.135 350.464 199.514 359.439 198.883C365.35 199.493 370.744 200.114 376.096 200.994C366.717 201.212 355.661 202.123 346.396 202.765C341.448 202.133 337.783 201.657 332.503 200.767Z" fill="#FEEDE3"/>
<path d="M398.395 231.967C393.86 223.789 393.674 213.365 396.956 205.301C379.595 205.156 362.225 206.098 344.989 208.116C342.307 208.427 339.554 208.789 337.183 210.083C331.655 213.096 329.813 220.839 332.401 226.584C334.989 232.33 341.076 235.974 346.707 236.481C364.057 233.655 381.645 232.299 398.395 231.967Z" fill="#FEEDE3"/>
<path d="M334.306 213.551C350.797 213.458 367.287 213.355 383.768 213.261C367.287 214.131 350.807 215.001 334.327 215.87C334.606 215.197 334.875 214.535 334.306 213.551Z" fill="#DBB9AB"/>
<path d="M331.242 218.8C344.265 218.51 357.288 218.22 370.311 217.93C357.422 218.872 344.534 219.814 331.646 220.756C331.646 220.114 331.636 219.462 331.242 218.8Z" fill="#DBB9AB"/>
<path d="M331.377 223.779C348.282 223.489 365.197 223.189 382.102 222.899C365.549 223.458 349.027 224.297 332.547 225.425C332.485 224.876 332.433 224.328 331.377 223.779Z" fill="#DBB9AB"/>
<path d="M334.203 228.324C344.41 227.765 354.617 227.206 364.824 226.636C354.845 227.796 344.866 228.955 334.876 230.125C334.752 229.628 334.627 229.131 334.203 228.324Z" fill="#DBB9AB"/>
<path d="M400.404 202.278C381.221 201.957 362.029 202.785 342.578 204.473C339.772 204.711 337.091 205.839 335.062 207.796C331.108 211.615 328.882 217.268 329.482 222.754C330.083 228.261 333.499 233.303 338.043 236.284C340.321 237.775 343.054 238.406 345.766 238.199C364.048 236.812 382.339 235.415 400.725 233.841C400.725 232.402 400.725 230.963 399.865 229.048C382.847 230.384 365.828 231.729 348.043 233.065C341.822 233.531 335.973 229.452 334.751 223.334C334.638 222.754 334.565 222.175 334.534 221.574C334.503 220.984 334.513 220.404 334.565 219.814C335.134 213.603 340.528 208.924 346.77 208.738L400.031 207.164C400.052 205.818 400.062 204.462 400.404 202.278Z" fill="#FF6A6A"/>
<path d="M189.575 316.833C130.968 316.833 83.457 307.1 83.457 295.094C83.457 283.087 130.968 273.354 189.575 273.354C248.183 273.354 295.693 283.087 295.693 295.094C295.693 307.1 248.183 316.833 189.575 316.833Z" fill="#5E96D6"/>
<path d="M194.346 294.524C179.377 294.638 164.46 297.33 149.501 296.595C134.543 295.87 118.808 291.046 109.553 279.276C98.5179 265.239 99.5117 244.959 105.278 227.247C136.344 226.305 167.41 225.352 198.104 223.106C200.878 224.503 203.86 225.466 207.338 226.884C207.597 227.971 209.098 228.241 210.123 227.826C211.148 227.412 211.955 226.553 212.98 226.087C214.181 225.549 215.63 225.611 216.769 226.274C217.907 226.936 218.704 228.147 218.994 229.017C231.023 225.684 243.684 224.617 255.858 226.274C260.485 233.624 264.284 241.481 267.162 249.669C246.81 262.64 226.986 276.439 207.762 291.025" fill="#0D409E"/>
<path d="M228.383 140.269C230.744 137.174 233.456 134.348 236.313 131.542C241.934 134.917 246.209 140.217 249.325 145.984C252.441 151.75 254.501 158.023 256.551 164.255C257.11 165.952 257.669 167.754 257.255 169.493C256.893 171.046 255.795 172.309 254.698 173.468C250.713 177.681 246.189 181.377 241.261 184.451C232.12 172.102 227.11 156.75 228.383 140.269Z" fill="#FF8282"/>
<path d="M101.426 240.021C115.764 233.106 133.01 232.506 147.793 238.417C155.847 241.647 163.404 246.75 172.048 247.475C179.128 248.065 186.199 245.57 192.224 241.792C198.249 238.013 203.373 232.992 208.456 228.023C207.783 223.81 205.598 219.783 202.669 216.409C224.646 194.1 237.017 163.727 238.135 132.827C223.984 120.725 206.189 111.667 187.296 107.009C167.866 109.576 148.714 117.858 133.352 131.502C118.414 174.1 106.106 200.943 101.426 240.021Z" fill="#FF5353"/>
<path d="M179.192 266.688C201.987 256.595 224.771 246.502 247.566 236.408C255.786 232.775 264.161 229.09 273.105 228.158C282.039 227.237 291.79 229.514 297.784 236.201C304.233 243.386 305.072 254.524 301.304 263.417C297.535 272.309 289.823 279.079 281.231 283.469C272.639 287.858 263.125 290.125 253.684 292.133C231.127 296.926 208.332 300.467 185.548 304.007C182.494 292.071 179.44 280.156 179.192 266.688Z" fill="#0750B5"/>
<path d="M129.678 319.431C131.604 322.454 134.223 325.021 137.39 326.761C145.703 331.315 156.873 329.68 163.084 323.262C164.171 322.144 165.03 320.839 165.765 319.462C165.869 319.266 165.983 319.048 166.096 318.852C169.554 312.361 173.353 306.057 177.463 299.959C169.544 295.798 161.811 291.315 150.817 285.311C145.372 287.133 140.196 289.794 135.31 293.179C131.811 295.601 129.295 298.966 127.939 302.692C125.962 308.086 126.376 314.255 129.678 319.431Z" fill="#14133B"/>
<path d="M129.677 319.431C131.603 322.454 134.222 325.021 137.39 326.761C145.702 331.315 156.872 329.68 163.083 323.262C164.17 322.144 165.029 320.839 165.764 319.462C165.868 319.266 165.982 319.048 166.096 318.852C157.866 323.448 147.359 324.09 139.191 319.421C133.125 315.943 129.046 309.483 127.928 302.682C125.961 308.086 126.375 314.255 129.677 319.431Z" fill="#515D82"/>
<path d="M235.527 312.371C246.665 316.988 257.618 322.05 268.353 327.558C268.487 327.63 268.632 327.702 268.777 327.765C275.63 331.036 284.046 329.131 288.311 322.816C288.684 322.268 289.015 321.698 289.316 321.108C292.235 315.218 291.624 308.065 289.15 301.978C288.932 301.44 288.694 300.901 288.446 300.373C284.667 292.257 277.028 286.74 268.322 285.228C267.111 285.021 265.889 284.887 264.657 284.835C258.208 284.576 251.52 284.442 244.843 284.555C240.485 296.377 238.001 304.379 235.527 312.371Z" fill="#14133B"/>
<path d="M268.777 327.765C275.63 331.036 284.046 329.131 288.311 322.816C288.684 322.268 289.015 321.698 289.316 321.108C292.235 315.218 291.624 308.065 289.15 301.978C288.932 301.44 288.694 300.901 288.446 300.373C284.667 292.257 277.028 286.74 268.322 285.228C272.846 287.671 277.048 290.591 280.371 294.483C286.117 301.201 288.518 311.595 283.643 318.965C280.34 323.965 274.781 326.408 268.777 327.765Z" fill="#515D82"/>
<path d="M232.712 321.937C200.228 313.852 167.381 305.291 138.344 288.789C128.24 283.044 118.261 275.912 113.188 265.539C108.116 255.166 109.617 240.891 119.265 234.411C125.58 230.177 133.986 230.063 141.304 232.216C148.623 234.369 155.135 238.51 161.677 242.402C190.062 259.307 220.808 272.34 252.143 280.943C252.547 296.222 245.766 311.533 232.712 321.937Z" fill="#065CBD"/>
<path d="M248.676 88.8096C249.97 86.646 252.361 85.1864 254.876 85.0208C257.392 84.8551 259.959 85.9939 261.522 87.9711C263.375 90.3106 263.748 93.5819 263.075 96.4908C262.268 100.01 260.011 103.178 256.947 105.093C253.883 107.008 250.052 107.661 246.512 107.309C247.35 101.863 244.762 95.3521 248.676 88.8096Z" fill="#EF9281"/>
<path d="M180.85 120.901C182.278 127.93 185.218 134.503 190.156 139.659C191.957 141.543 194.152 143.271 196.73 143.613C199.079 143.924 201.44 143.023 203.344 141.594C203.583 141.418 203.81 141.232 204.038 141.035C206.057 139.286 207.527 137.019 208.976 134.783C209.618 133.779 210.291 132.64 210.053 131.48C209.846 130.507 209.059 129.793 208.313 129.141C199.494 121.48 190.674 113.81 180.177 102.619C179.504 108.644 179.628 114.938 180.85 120.901Z" fill="#FFBD9A"/>
<path d="M180.85 120.901C182.578 124.576 184.866 127.992 187.62 130.994C191.937 135.704 197.382 139.338 203.344 141.594C203.583 141.418 203.81 141.232 204.038 141.035C206.057 139.286 207.527 137.019 208.976 134.783C209.618 133.779 210.291 132.64 210.053 131.48C209.846 130.507 209.059 129.793 208.313 129.141C199.494 121.48 190.674 113.81 180.177 102.619C179.504 108.644 179.628 114.938 180.85 120.901Z" fill="#EF9281"/>
<path d="M161.366 68.9755C161.759 77.5987 165.321 85.7146 169.699 94.4103C185.383 94.2654 201.066 95.1556 216.625 97.0604L244.865 96.0563C253.996 90.9941 261.874 83.6856 267.577 74.9486C267.929 74.431 268.261 73.903 268.582 73.3751C269.814 71.3668 270.973 69.0997 270.59 66.7808C270.207 64.462 267.536 62.4641 265.486 63.6131C269.71 58.7995 272.184 52.6504 272.629 46.3357C272.774 44.3274 272.712 42.257 271.936 40.3936C271.17 38.5406 269.596 36.9154 267.619 36.5427C265.756 36.1804 263.613 37.1949 262.981 38.9651C264.596 33.6752 266.584 27.7435 264.399 22.4951C263.54 20.435 262.05 18.6234 260.103 17.5365C255.455 14.9278 249.627 16.8739 244.876 19.2859C240.124 21.7083 235.134 24.6586 229.855 23.9133C231.905 22.5054 231.697 19.0271 229.793 17.5468C227.888 16.0665 225.114 16.2632 222.909 17.2259C220.693 18.1886 218.851 19.8139 216.822 21.1182C211.594 24.5137 205.321 25.8077 199.203 26.9464C193.074 28.0955 186.801 29.2238 181.408 32.3501C179.834 33.2611 178.354 34.3895 177.039 35.6731L177.029 35.6835C173.83 38.8098 171.656 42.9092 171.77 47.3191C164.492 50.9941 160.983 60.3523 161.366 68.9755Z" fill="#14133B"/>
<path d="M177.039 35.6731C180.869 33.4268 185.652 32.3294 190.145 31.8429C197.702 31.0251 205.818 31.0872 212.163 26.8843C213.478 26.0147 214.7 24.9692 216.128 24.2963C217.557 23.6131 219.306 23.3543 220.693 24.11C222.091 24.8657 222.805 26.8739 221.501 28.7684C228.571 29.3998 235.787 28.2818 242.329 25.5385C245.331 24.2756 248.488 22.6296 251.687 23.3025C255.517 24.0996 257.992 28.1265 258.292 32.0292C258.592 35.9423 257.205 39.7622 255.838 43.4268C258.695 40.8491 263.695 41.9775 265.952 45.1038C268.199 48.2301 268.095 52.5883 266.656 56.1597C265.207 59.7311 262.619 62.7022 260.083 65.6007C263.53 65.3626 266.48 68.4889 267.267 71.8533C267.505 72.8678 267.598 73.903 267.577 74.9486C267.929 74.431 268.261 73.903 268.582 73.3751C269.814 71.3668 270.973 69.0997 270.59 66.7808C270.207 64.462 267.536 62.4641 265.486 63.6131C269.71 58.7995 272.184 52.6504 272.629 46.3357C272.774 44.3274 272.712 42.257 271.936 40.3936C271.17 38.5406 269.596 36.9154 267.619 36.5427C265.756 36.1804 263.613 37.1949 262.981 38.9651C264.596 33.6752 266.584 27.7435 264.399 22.4951C263.54 20.435 262.05 18.6234 260.103 17.5365C255.455 14.9278 249.627 16.8739 244.876 19.2859C240.124 21.7083 235.134 24.6586 229.855 23.9133C231.905 22.5054 231.697 19.0271 229.793 17.5468C227.888 16.0665 225.114 16.2632 222.909 17.2259C220.693 18.1886 218.851 19.8139 216.822 21.1182C211.594 24.5137 205.321 25.8077 199.203 26.9464C193.074 28.0955 186.801 29.2238 181.408 32.3501C179.834 33.2611 178.354 34.3895 177.039 35.6731Z" fill="#2C245C"/>
<path d="M162.919 99.5344C165.258 104.203 171.594 106.336 176.325 104.12C181.045 112.951 186.325 120.901 193.571 126.698C200.828 132.495 210.248 135.963 219.451 134.741C232.929 132.961 243.509 121.512 248.281 108.789C252.546 97.4226 253.033 85.083 253.064 72.8883C253.074 71.4391 253.074 69.9898 253.074 68.5405C240.362 72.8676 226.19 70.3625 215.538 62.733C216.325 64.348 216.625 66.1182 216.345 67.8676C216.076 69.6068 215.113 71.3459 213.509 72.0809C211.987 72.7745 210.207 72.4743 208.602 72.0395C201.977 70.2797 195.869 66.6254 191.18 61.6357C191.842 70.673 189.213 79.4101 184.316 86.6151C183.157 88.3232 181.863 89.9484 180.455 91.4701C178.55 86.3977 172.153 83.9443 167.432 86.1906C162.712 88.437 160.569 94.8553 162.919 99.5344Z" fill="#FFBD9A"/>
<path d="M184.316 86.6151C189.441 82.878 193.147 77.143 194.472 70.6937C201.076 76.7496 212.256 78.7476 216.728 75.3107C218.592 73.8718 220.321 71.5944 219.472 69.1306C229.555 74.8345 241.977 76.1389 253.064 72.8883C253.074 71.4391 253.074 69.9898 253.074 68.5405C240.362 72.8676 226.19 70.3625 215.538 62.733C216.325 64.348 216.625 66.1182 216.345 67.8676C216.076 69.6068 215.113 71.3459 213.509 72.0809C211.987 72.7745 210.207 72.4743 208.602 72.0395C201.977 70.2797 195.869 66.6254 191.18 61.6357C191.842 70.673 189.213 79.4101 184.316 86.6151Z" fill="#EF9281"/>
<path d="M214.99 82.9297C213.613 79.2444 209.4 76.8634 205.529 77.5777C201.657 78.3023 198.582 82.0394 198.634 85.9732C200.166 83.3334 202.899 81.4286 205.901 80.9007C208.903 80.3727 212.123 81.2319 214.99 82.9297Z" fill="#14133B"/>
<path d="M233.562 84.0891C234.545 81.8945 236.232 79.969 238.417 78.9545C240.601 77.94 243.282 77.94 245.342 79.1823C247.402 80.4245 248.655 82.9918 248.137 85.3417C246.367 83.3024 243.789 81.9773 241.098 81.7392C238.396 81.5011 235.622 82.3396 233.562 84.0891Z" fill="#14133B"/>
<path d="M226.77 101.739C227.122 104.327 226.346 107.039 224.7 109.057" stroke="#C44547" stroke-width="2" stroke-miterlimit="10" stroke-linecap="round" stroke-linejoin="round"/>
<path d="M222.91 118.779C219.96 119.959 216.585 120.021 213.593 118.955C210.602 117.888 208.024 115.704 206.492 112.919" stroke="#C44547" stroke-width="2" stroke-miterlimit="10" stroke-linecap="round" stroke-linejoin="round"/>
<path d="M235.573 99.1214C234.273 98.9651 233.031 100.413 232.798 102.354C232.565 104.295 233.431 105.996 234.73 106.151C236.03 106.307 237.272 104.859 237.505 102.918C237.739 100.977 236.873 99.2767 235.573 99.1214Z" fill="#14133B"/>
<path d="M209.312 98.2435C208.012 98.0872 206.77 99.5343 206.537 101.476C206.304 103.417 207.169 105.118 208.468 105.273C209.768 105.429 211.01 103.981 211.243 102.04C211.476 100.099 210.611 98.3988 209.312 98.2435Z" fill="#14133B"/>
<path d="M124.191 175.808C119.698 191.574 116.934 207.827 116.375 224.576C128.352 221.595 139.791 216.46 149.988 209.514C149.533 201.522 149.936 193.479 151.199 185.58C142.152 184.442 133.187 182.62 124.191 175.808Z" fill="#EF9281"/>
<path d="M157.617 200.953C141.975 199.286 126.954 192.257 116.24 181.17C119.625 167.35 124.252 151.843 129.428 137.713C132.451 129.441 140.878 124.379 149.584 125.725C149.677 125.735 149.77 125.756 149.863 125.767C158.724 127.174 165.184 134.887 165.308 143.862C165.557 162.816 163.497 180.591 157.617 200.953Z" fill="#FF8282"/>
<path d="M169.025 206.843C164.067 216.791 157.907 226.16 150.744 234.659C146.324 239.907 140.754 245.187 133.891 245.353C129.346 245.456 124.947 243.168 121.924 239.773C118.901 236.377 117.162 231.988 116.375 227.516C115.682 223.582 115.754 219.245 117.969 215.922C119.47 213.676 121.779 212.133 124.036 210.642C136.437 202.454 148.839 194.266 161.241 186.077C163.425 193.448 165.609 200.808 169.025 206.843Z" fill="#FFBD9A"/>
<path d="M285.715 193.385C285.145 203.52 283.758 213.603 281.595 223.51C280.528 228.386 279.121 233.479 275.57 236.988C271.077 241.419 263.82 242.278 257.899 240.083C251.978 237.899 247.309 233.096 244.079 227.671C240.849 222.247 238.893 216.181 236.957 210.166C251.025 201.978 266.574 196.367 285.715 193.385Z" fill="#F7A98B"/>
<path d="M257.547 207.361C255.29 212.154 253.541 217.185 252.34 222.35" stroke="#ED8C74" stroke-miterlimit="10" stroke-linecap="round"/>
<path d="M251.688 176.957C248.944 167.257 240.083 160.539 230.984 156.201C216.563 149.338 199.948 146.688 183.375 149.669C180.963 167.143 178.54 184.607 175.766 202.06C178.168 203.106 180.569 204.141 182.971 205.187C191.698 197.33 202.257 191.708 213.23 187.526C224.203 183.334 235.642 180.518 251.688 176.957Z" fill="white"/>
<path d="M250.311 177.423C249.824 168.344 252.889 159.12 258.717 152.133C264.545 145.156 273.075 140.487 281.957 139.741C279.98 145.373 277.992 150.994 275.994 156.688C268.106 161.657 260.653 167.309 250.311 177.423Z" fill="#E1EDF2"/>
<path d="M250.062 178.717C250.973 169.876 255.114 161.398 261.521 155.249C267.929 149.1 276.563 145.301 285.517 144.835C287.184 148.22 288.851 151.605 290.072 156.864C279.782 167.35 269.493 177.837 259.203 188.323C257.07 185.094 254.192 182.371 250.062 178.717Z" fill="white"/>
<path d="M179.689 207.112C195.413 206.119 211.459 211.895 222.939 222.692C223.064 222.713 223.177 222.723 223.302 222.744C225.558 223.044 227.318 223.168 228.923 223.23C229.575 223.261 230.206 223.272 230.838 223.292C230.941 223.096 231.055 222.909 231.169 222.723C234.875 216.398 241.2 211.822 248.281 209.793C255.579 207.702 263.623 208.344 270.507 211.553C278.498 191.978 286.293 172.92 294.078 153.851C277.95 153.727 262.246 161.429 254.13 174.307C254.047 174.421 253.975 174.545 253.902 174.659C252.194 175.383 250.382 175.756 248.457 175.953C248.001 175.994 247.536 176.036 247.07 176.056C247.018 175.942 246.977 175.829 246.914 175.715C244.979 172.164 240.476 168.52 234.233 165.425C223.032 159.856 206.242 156.036 188.767 157.588C186.749 169.514 184.544 181.419 182.163 194.069C181.355 198.323 180.538 202.661 179.689 207.112Z" fill="#FFBF46"/>
<path d="M228.923 223.23C229.575 223.261 230.206 223.272 230.838 223.292C230.941 223.096 231.055 222.909 231.169 222.723C234.875 216.398 241.2 211.822 248.281 209.793C255.579 207.702 263.623 208.344 270.507 211.553C278.498 191.978 286.293 172.92 294.078 153.851C277.95 153.727 262.246 161.429 254.13 174.307C254.047 174.421 253.975 174.545 253.902 174.659C252.194 175.383 250.382 175.756 248.457 175.953C246.635 179.824 244.927 183.593 243.219 187.361C237.898 199.1 232.577 210.88 228.923 223.23Z" fill="#F7AA36"/>
<path d="M182.164 194.069C185.787 183.727 188.758 173.158 191.067 162.443C205.829 159.224 220.766 160.456 234.234 165.425C223.034 159.855 206.243 156.036 188.768 157.588C186.75 169.514 184.545 181.419 182.164 194.069Z" fill="#FFDB80"/>
<path d="M223.301 222.744C226.468 223.168 228.653 223.23 230.837 223.292C230.94 223.096 231.054 222.909 231.168 222.723C238.767 206.885 246.365 191.056 253.974 175.228C254.025 174.918 254.077 174.607 254.129 174.307C254.046 174.421 253.974 174.545 253.901 174.659C251.789 175.549 249.522 175.922 247.069 176.056C247.017 175.943 246.976 175.829 246.914 175.715C239.336 191.191 231.344 206.957 223.301 222.744Z" fill="#FFDB80"/>
<path d="M189.016 176.771C193.385 176.864 197.981 177.009 201.749 179.224C202.857 179.876 203.892 180.736 204.42 181.895C204.948 183.065 204.855 184.576 203.933 185.466C203.095 186.274 201.811 186.388 200.652 186.46C195.103 186.791 189.544 187.123 183.996 187.464C184.358 184.027 185.528 180.663 189.016 176.771Z" fill="#F7AA36"/>
<path d="M200.777 193.603C201.647 194.11 202.506 194.69 203.116 195.497C203.727 196.305 204.048 197.371 203.779 198.344C203.52 199.245 202.785 199.938 201.957 200.363C201.129 200.787 200.197 200.974 199.193 200.891C200.477 202.392 200.166 204.814 198.893 206.315C197.62 207.816 195.622 208.52 193.665 208.769C194.473 204.214 195.032 199.628 195.332 195.011C197.03 195.094 198.748 194.783 200.777 193.603Z" fill="#F7AA36"/>
<path d="M160.165 187.733C160.165 187.733 161.355 176.988 168.042 172.019C171.831 169.203 176.221 166.698 180.931 167.34C180.465 170.27 180.175 172.961 179.637 176.263C186.531 176.056 193.353 175.58 199.875 177.858C201.345 178.375 202.846 179.069 203.726 180.352C204.606 181.636 204.575 183.644 203.301 184.535C202.628 185 201.759 185.073 200.941 185.125C194.316 185.549 187.701 185.984 181.107 186.998C185.175 190.435 190.434 192.433 195.755 192.568C197.266 192.609 198.809 192.495 200.268 192.909C201.728 193.323 203.125 194.379 203.384 195.87C203.746 197.94 201.811 199.731 199.74 200.622C200.434 201.967 200.33 203.686 199.502 204.949C198.674 206.212 197.132 206.978 195.455 207.381C196.189 208.593 195.703 210.249 194.688 211.232C193.674 212.216 192.266 212.671 190.889 213.003C182.867 214.938 174.119 213.706 166.759 210C163.715 202.444 160.165 187.733 160.165 187.733Z" fill="#FFBD9A"/>
<path d="M198.934 201.129C192.816 202.371 186.346 201.916 180.466 199.804" stroke="#C44547" stroke-width="2" stroke-miterlimit="10" stroke-linecap="round" stroke-linejoin="round"/>
<path d="M195.02 208.634C190.04 210.156 184.471 209.649 179.844 207.257" stroke="#C44547" stroke-width="2" stroke-miterlimit="10" stroke-linecap="round" stroke-linejoin="round"/>
<path d="M270.402 179.452C269.253 180.114 268.363 181.253 268.063 182.547C267.763 183.841 268.073 185.28 268.932 186.294C270.185 187.775 272.276 188.168 274.191 188.458C275.392 188.644 276.593 188.831 277.297 188.841C275.05 192.454 271.044 194.907 266.489 195.528C265.247 195.414 263.974 195.487 262.814 195.942C261.655 196.398 260.63 197.278 260.185 198.437C259.73 199.597 259.937 201.036 260.785 202.278C259.657 203.541 259.357 205.487 260.05 207.029C260.744 208.572 262.38 209.648 264.077 209.659C265.661 205.083 268.612 201.077 272.048 197.671C275.485 194.265 279.419 191.398 283.332 188.541C282.007 187.05 281.127 185.176 280.806 183.209C277.669 182.568 274.554 181.905 270.402 179.452Z" fill="#EB8328"/>
<path d="M290.828 181.864C290.807 182.547 290.755 183.23 290.683 183.924C290.455 185.891 288.85 187.433 286.883 187.64C281.883 188.158 276.811 188.003 271.79 187.205C269.792 186.885 268.291 185.208 268.167 183.179C268.167 183.158 268.167 183.127 268.167 183.106C268.033 180.891 269.616 178.913 271.811 178.572C276.656 177.816 281.563 177.464 286.407 177.34C288.902 177.278 290.91 179.359 290.828 181.864Z" fill="#FFBD9A"/>
<path d="M286.593 187.35C287.774 190.725 287.815 194.483 286.697 197.878C286.386 198.831 285.962 199.783 285.289 200.518C284.606 201.263 283.622 201.771 282.618 201.698C283.115 203.448 282.732 205.104 282.111 206.677C281.614 207.951 280.931 209.193 279.906 210.083C278.871 210.974 277.422 211.47 276.107 211.118C275.62 212.899 275.123 214.607 274.181 216.077C273.239 217.547 271.78 218.789 270.041 219.038C267.856 219.359 265.786 218.106 263.933 216.916C262.422 215.943 260.838 214.887 260.082 213.261C259.316 211.636 259.802 209.286 261.5 208.706C260.268 207.019 260.31 203.955 261.987 202.195C260.848 201.388 260.858 199.68 261.128 198.313C261.345 197.226 261.666 196.098 262.422 195.28C263.684 193.914 265.796 193.779 267.649 193.965C269.502 194.152 271.428 194.566 273.188 193.965C275.579 192.092 277.722 190.052 279.668 187.702C281.904 187.609 284.161 187.506 286.593 187.35Z" fill="#FFBD9A"/>
<path d="M281.584 202.185C275.787 204.804 268.955 205.021 263.002 202.785" stroke="#C44547" stroke-width="2" stroke-miterlimit="10" stroke-linecap="round" stroke-linejoin="round"/>
<path d="M275.062 211.647C270.735 212.351 266.191 211.647 262.288 209.669" stroke="#C44547" stroke-width="2" stroke-miterlimit="10" stroke-linecap="round" stroke-linejoin="round"/>
<path d="M124.68 304.949C124.68 297.423 107.216 290.342 70.3421 290.342C33.4684 290.342 3.57185 296.45 3.57185 303.976C3.57185 311.502 33.4684 317.609 70.3421 317.609C107.216 317.609 124.68 312.475 124.68 304.949Z" fill="#5E96D6"/>
<path d="M15.7354 261.387C9.19299 272.091 9.67952 286.884 16.4394 297.071C24.9073 302.889 33.0854 307.236 41.75 312.185C43.1164 299.058 45.1351 286.833 46.5015 273.706C46.5844 272.857 46.6568 271.936 46.191 271.232C45.7251 270.528 44.8556 270.259 44.0584 270.042C35.4456 267.681 26.8328 265.332 15.7354 261.387Z" fill="#C42D97"/>
<path d="M113.406 308.841C108.292 298.561 108.603 285.766 113.054 276.067C91.781 274.907 70.4455 275.083 49.2032 276.584C45.9009 276.822 42.5055 277.112 39.5345 278.561C32.5986 281.947 29.9278 291.336 32.7953 298.53C35.6628 305.725 42.9299 310.528 49.814 311.481C71.2219 308.976 92.8679 308.313 113.406 308.841Z" fill="#FEEDE3"/>
<path d="M35.8282 282.64C56.0456 283.448 76.263 284.266 96.4805 285.073C76.232 285.208 55.9835 285.342 35.7454 285.477C36.0973 284.68 36.47 283.883 35.8282 282.64Z" fill="#DBB9AB"/>
<path d="M31.7904 288.914C47.7739 289.297 63.747 289.67 79.7305 290.053C63.8816 290.477 48.0327 290.912 32.1838 291.336C32.2148 290.539 32.2356 289.752 31.7904 288.914Z" fill="#DBB9AB"/>
<path d="M31.6883 295.032C52.4337 295.622 73.1687 296.222 93.9141 296.812C73.6035 296.564 53.2929 296.667 33.034 297.112C32.9926 296.429 32.9512 295.756 31.6883 295.032Z" fill="#DBB9AB"/>
<path d="M34.9057 300.756C47.4523 300.643 59.9886 300.529 72.5352 300.415C60.237 301.274 47.9389 302.133 35.6407 302.992C35.5165 302.382 35.3922 301.761 34.9057 300.756Z" fill="#DBB9AB"/>
<path d="M117.453 272.537C93.9541 271.056 70.3826 270.994 46.4592 271.967C43.012 272.102 39.658 273.344 37.0803 275.622C32.0285 280.083 28.9954 286.885 29.4405 293.644C29.8857 300.425 33.8091 306.812 39.2128 310.725C41.925 312.682 45.248 313.613 48.5814 313.51C71.0659 312.837 93.5607 312.164 116.19 311.263C116.263 309.504 116.345 307.733 115.393 305.342C94.4613 306.025 73.5193 306.709 51.6559 307.35C44.0058 307.568 37.0596 302.237 35.8795 294.669C35.7656 293.955 35.7035 293.23 35.7035 292.506C35.6932 291.781 35.7449 291.067 35.8381 290.352C36.8629 282.764 43.7263 277.33 51.3868 277.464L116.76 278.53C116.832 276.864 116.915 275.208 117.453 272.537Z" fill="#EA33AA"/>
<path d="M38.1879 272.019C36.2832 272.267 34.3887 272.516 32.2252 272.754C25.0927 269.762 17.9498 266.771 10.6102 264.141C6.43838 258.913 3.43633 252.402 3.58125 245.632C3.71583 238.862 7.48394 231.967 13.5399 229.607C23.1361 230.477 32.7221 231.346 42.3184 232.226C39.8753 244.369 38.1776 256.688 38.1879 272.019Z" fill="#3878E8"/>
<path d="M111.646 270.404C105.911 261.45 106.067 250.311 110.767 241.874C87.5678 240.818 64.3276 240.911 41.2012 242.174C37.6091 242.371 33.9135 242.609 30.694 243.872C23.1888 246.801 20.4248 254.969 23.6546 261.232C26.8844 267.495 34.8762 271.698 42.3917 272.547C65.6837 270.425 89.2551 269.886 111.646 270.404Z" fill="#FEEDE3"/>
<path d="M26.7182 247.412C43.7058 247.971 60.6934 248.53 77.6914 249.089C60.6831 249.359 43.6748 249.617 26.6561 249.886C26.9563 249.183 27.2565 248.489 26.7182 247.412Z" fill="#DBB9AB"/>
<path d="M22.4122 252.857C45.5179 253.447 68.6235 254.038 91.7188 254.628C68.8305 254.741 45.9423 254.855 23.0541 254.969C23.0748 254.286 23.0851 253.592 22.4122 252.857Z" fill="#DBB9AB"/>
<path d="M22.3904 258.178C39.7507 258.541 57.1007 258.903 74.4609 259.265C57.463 259.203 40.4754 259.441 23.5292 259.979C23.4981 259.4 23.4567 258.81 22.3904 258.178Z" fill="#DBB9AB"/>
<path d="M25.9932 263.178C48.105 263.437 70.2065 263.696 92.3184 263.965C70.6724 264.359 49.0367 264.762 27.3907 265.156C27.1319 264.617 26.8835 264.069 25.9932 263.178Z" fill="#DBB9AB"/>
<path d="M115.486 238.82C89.8652 237.474 64.1716 237.36 38.126 238.147C34.3682 238.261 30.7347 239.327 27.9603 241.305C22.5255 245.176 19.3268 251.087 19.9168 256.977C20.5069 262.878 24.8754 268.447 30.8278 271.864C33.8092 273.572 37.4427 274.39 41.0763 274.307C65.5691 273.779 90.0619 273.24 114.7 272.516C114.751 270.984 114.813 269.441 113.747 267.361C90.9521 267.909 68.1467 268.447 44.3372 268.955C36.0038 269.131 28.3537 264.472 26.9562 257.888C26.8216 257.267 26.7491 256.636 26.7284 256.004C26.7077 255.373 26.7492 254.752 26.8423 254.131C27.8465 247.526 35.2378 242.816 43.5815 242.951L114.834 244.038C114.886 242.578 114.948 241.139 115.486 238.82Z" fill="#3C97FE"/>
<path d="M18.2397 233.468C25.3205 235.901 30.569 237.588 37.805 239.866C38.3329 239.338 38.8712 238.82 39.4095 238.313C56.1798 222.899 82.2668 222.816 101.915 212.216C104.927 210.59 108.354 209.607 111.729 208.158C102.381 206.512 92.743 204.514 82.2978 202.816C62.3392 202.764 42.3806 202.702 21.9043 202.785H21.5731C15.8795 205.228 11.7076 211.087 11.1486 217.423C10.6 223.748 13.6745 230.28 18.2397 233.468Z" fill="#F7AA36"/>
<path d="M18.2394 233.468C25.3201 235.901 30.5686 237.588 37.8046 239.866C38.3326 239.338 38.8709 238.82 39.4092 238.313C37.5355 237.122 35.7549 235.756 34.2125 234.131C31.1379 230.89 29.0365 226.377 29.5644 221.884C29.9785 218.251 32.08 214.959 34.8543 212.661C37.6183 210.373 41.0034 208.986 44.4609 208.147C36.9454 206.356 29.4299 204.565 21.9143 202.774H21.583C15.8895 205.217 11.7176 211.077 11.1586 217.412C10.5996 223.748 13.6742 230.28 18.2394 233.468Z" fill="#F0942B"/>
<path d="M108.115 237.195C102.887 228.944 103.063 218.706 107.391 210.963C86.1587 209.928 64.8647 209.949 43.6845 211.046C40.3926 211.212 37.0075 211.429 34.0572 212.578C27.1731 215.249 24.6162 222.754 27.5561 228.52C30.4961 234.286 37.8046 238.178 44.6783 238.976C66.0344 237.081 87.608 236.657 108.115 237.195Z" fill="#FEEDE3"/>
<path d="M30.4134 215.818C51.635 216.615 72.8566 217.412 94.0781 218.22C72.8359 218.178 51.5936 218.137 30.3617 218.096C30.724 217.454 31.0967 216.812 30.4134 215.818Z" fill="#DBB9AB"/>
<path d="M26.4495 220.818C43.0334 221.232 59.6173 221.647 76.2012 222.061C59.7622 222.288 43.3233 222.526 26.8843 222.754C26.9154 222.123 26.9361 221.491 26.4495 220.818Z" fill="#DBB9AB"/>
<path d="M26.417 225.704C39.212 225.953 52.0071 226.201 64.8125 226.46C52.2762 226.481 39.7503 226.781 27.2451 227.361C27.2244 226.822 27.1934 226.284 26.417 225.704Z" fill="#DBB9AB"/>
<path d="M29.7004 230.311C51.7812 230.694 73.8723 231.067 95.9531 231.45C74.3278 231.678 52.7129 231.905 31.0876 232.143C30.8391 231.636 30.5907 231.139 29.7004 230.311Z" fill="#DBB9AB"/>
<path d="M111.729 208.158C88.2709 206.853 64.7408 206.677 40.8899 207.33C37.453 207.423 34.1197 208.396 31.5731 210.207C26.5834 213.748 23.6331 219.183 24.161 224.597C24.689 230.031 28.6642 235.156 34.1093 238.313C36.8319 239.897 40.1652 240.653 43.4882 240.59C65.9106 240.176 88.3537 239.742 110.911 239.152C110.962 237.744 111.025 236.325 110.051 234.4C89.1715 234.835 68.2916 235.28 46.48 235.673C38.8505 235.808 31.8526 231.501 30.5897 225.445C30.4654 224.876 30.4033 224.296 30.3826 223.717C30.3723 223.137 30.4033 222.568 30.4965 221.998C31.4385 215.932 38.2191 211.626 45.8588 211.76L111.097 212.961C111.159 211.615 111.232 210.29 111.729 208.158Z" fill="#FFBF46"/>
<path d="M374.223 3.87129C371.78 4.29569 370.838 5.08237 371.179 8.14628C370.724 5.19623 370.041 4.53377 366.977 4.68903C370.31 3.892 370.238 2.81548 369.906 0C370.434 2.82583 371.469 3.87129 374.223 3.87129Z" fill="white"/>
<path d="M413.561 136.387C411.118 136.811 410.176 137.598 410.517 140.662C410.062 137.712 409.379 137.06 406.315 137.205C409.648 136.408 409.575 135.331 409.244 132.516C409.772 135.341 410.807 136.387 413.561 136.387Z" fill="white"/>
<path d="M166.666 12.0288C164.223 12.4532 163.281 13.2398 163.623 16.3037C163.167 13.3537 162.484 12.6912 159.42 12.8465C162.753 12.0495 162.681 10.973 162.35 8.15747C162.878 10.9833 163.913 12.0288 166.666 12.0288Z" fill="white"/>
<path d="M22.1523 124.751C19.6888 124.441 18.5605 124.907 17.9912 127.939C18.426 124.989 17.9602 124.161 14.9894 123.395C18.4053 123.613 18.6537 122.557 19.1712 119.772C18.84 122.629 19.5232 123.944 22.1523 124.751Z" fill="white"/>
<path d="M7.16211 212.743C4.69856 212.432 3.57031 212.898 3.001 215.931C3.43575 212.981 2.96993 212.153 -0.000822067 211.387C3.41502 211.604 3.66345 210.549 4.18101 207.764C3.83942 210.621 4.52259 211.936 7.16211 212.743Z" fill="white"/>
</svg>
