<svg width="301" height="340" viewBox="0 0 301 340" fill="none" xmlns="http://www.w3.org/2000/svg">
<path d="M41.8442 124.22C37.3473 118.075 36.3 109.565 39.1746 102.514C41.0002 98.0346 44.32 93.9509 44.4193 89.1145C44.4417 87.9999 43.8428 86.5282 42.7506 86.7444C42.299 86.8341 41.9659 87.2056 41.6728 87.5611C37.9639 92.042 34.9388 97.0865 32.7368 102.469C32.9274 93.4721 33.0266 84.0524 28.9381 76.0356C28.4065 74.9946 27.3319 73.824 26.2878 74.3476C25.4662 74.7592 25.4182 75.8962 25.487 76.8123C26.0732 84.6737 26.6593 92.5352 27.2454 100.397C25.9643 94.6523 24.6815 88.9096 23.4004 83.1652C22.4155 78.7532 21.2656 74.0466 17.9234 71.0038C17.491 70.6099 16.977 70.2319 16.3924 70.2351C14.8326 70.2431 14.6148 72.4964 14.9335 74.0241C16.7976 82.9442 18.6617 91.8642 20.5258 100.783C18.1652 94.0598 15.7423 87.22 11.4824 81.5077C10.9571 80.8031 10.2797 80.0552 9.40213 80.06C7.53644 80.0696 7.49801 82.8705 8.12258 84.6289C10.2781 90.7032 12.4337 96.7775 14.5892 102.852C11.9084 96.92 7.01278 92.0212 1.08264 89.3371C0.483696 93.3984 3.19975 97.0994 5.41775 100.555C9.30925 106.618 12.0413 113.423 13.425 120.493C14.1424 124.162 14.5075 127.924 15.731 131.457C16.9546 134.99 19.2046 138.377 22.6092 139.922" fill="#B65743"/>
<path d="M42.3566 118.251L71.6502 199.914C71.6502 199.914 110.578 156.375 125.6 149.23C140.621 142.082 156.719 139.02 156.719 139.02L157.995 105.779L181.043 112.746L185.703 141.08C185.703 141.08 232.999 145.164 250.631 163.793C268.264 182.423 315.545 257.306 296.312 284.134C277.079 310.961 232.277 327.068 232.277 327.068L222.95 302.566L258.358 265.424L229.175 208.488L216.727 339.673L123.282 337.649C123.282 337.649 112.244 259.252 113.946 232.071C113.946 232.071 63.0969 268.464 45.7453 256.645C30.5908 246.322 15.9776 150.793 12.5201 126.768C21.7556 121.333 32.1394 118.056 42.3566 118.251Z" fill="#6D3E77"/>
<path d="M190.77 161.676C185.972 178.968 178.151 195.72 165.722 208.869C164.987 209.647 164.016 210.478 162.979 210.213C162.08 209.98 161.598 209.032 161.233 208.179C152.23 187.149 147.147 164.455 146.266 141.597C152.446 139.837 156.72 139.02 156.72 139.02L157.997 105.779L181.045 112.746L185.705 141.08C185.705 141.08 189.588 141.418 195.531 142.332C194.316 148.839 192.487 155.488 190.77 161.676Z" fill="#B65743"/>
<path d="M114.809 255.132C114.556 255.149 113.939 250.457 113.489 242.821C113.036 235.189 112.829 224.61 113.347 212.945C113.875 201.28 115.027 190.763 116.162 183.201C117.294 175.638 118.327 171.017 118.577 171.059C118.867 171.106 118.324 175.796 117.552 183.376C116.777 190.954 115.851 201.432 115.326 213.035C114.812 224.637 114.794 235.157 114.889 242.775C114.98 250.391 115.1 255.113 114.809 255.132Z" fill="#5C3366"/>
<path d="M229.216 210.062C228.999 210.113 227.954 207.002 227.442 201.739C226.934 196.515 227.072 189.029 229.658 181.279C230.959 177.423 232.778 173.946 234.818 171.067C236.81 168.156 239.165 165.862 241.453 164.411C243.735 162.925 245.953 162.36 247.46 162.291C248.98 162.222 249.785 162.502 249.769 162.61C249.758 162.771 248.941 162.762 247.562 163.055C246.19 163.348 244.256 164.053 242.246 165.566C240.225 167.055 238.146 169.262 236.324 172.098C234.461 174.898 232.78 178.224 231.537 181.91C229.063 189.315 228.698 196.517 228.84 201.651C228.986 206.813 229.533 210.001 229.216 210.062Z" fill="#5C3366"/>
<path d="M165.722 208.869C164.987 209.647 164.016 210.479 162.978 210.213C162.08 209.981 161.598 209.033 161.233 208.179C152.229 187.15 147.148 164.458 146.266 141.601C152.447 139.839 156.718 139.019 156.718 139.019L156.73 138.742C159.071 141.953 161.885 144.682 165.478 146.406C170.902 149.01 177.463 148.815 182.974 146.403C185.644 145.236 188.063 143.574 190.188 141.58C191.67 141.767 193.484 142.019 195.529 142.332C194.315 148.839 192.487 155.487 190.77 161.675C185.972 178.969 178.15 195.72 165.722 208.869Z" fill="white"/>
<path d="M195.88 142.388C196.344 142.46 196.818 142.536 197.307 142.616C196.82 142.537 196.343 142.46 195.88 142.388Z" fill="#864296"/>
<path d="M141.088 143.173C140.476 143.37 139.853 143.577 139.224 143.788C139.853 143.575 140.475 143.37 141.088 143.173Z" fill="#864296"/>
<path d="M146.264 141.6C144.814 142.014 143.256 142.481 141.627 142.998C143.259 142.48 144.813 142.014 146.264 141.6Z" fill="#864296"/>
<path d="M138.551 144.015C137.736 144.294 136.909 144.582 136.07 144.887C136.909 144.582 137.734 144.296 138.551 144.015Z" fill="#864296"/>
<path d="M200.284 143.122C200.81 143.215 201.348 143.314 201.891 143.415C201.348 143.314 200.808 143.215 200.284 143.122Z" fill="#864296"/>
<path d="M201.889 143.415C202.138 143.461 202.379 143.505 202.631 143.553C202.379 143.503 202.138 143.46 201.889 143.415Z" fill="#864296"/>
<path d="M195.529 142.332C195.642 142.35 195.766 142.371 195.881 142.388C195.762 142.371 195.645 142.351 195.529 142.332Z" fill="#864296"/>
<path d="M197.307 142.616C197.545 142.654 197.784 142.694 198.027 142.734C197.784 142.694 197.544 142.656 197.307 142.616Z" fill="#864296"/>
<path d="M199.5 142.986C199.761 143.03 200.017 143.075 200.281 143.122C200.017 143.075 199.759 143.03 199.5 142.986Z" fill="#864296"/>
<path d="M139.223 143.788C138.998 143.864 138.776 143.939 138.548 144.016C138.777 143.939 138.998 143.864 139.223 143.788Z" fill="#864296"/>
<path d="M146.265 141.601C147.147 164.458 152.23 187.151 161.232 208.179C161.597 209.031 162.079 209.981 162.977 210.213C164.015 210.481 164.984 209.648 165.721 208.869C178.149 195.72 185.971 178.969 190.769 161.677C192.485 155.489 194.314 148.841 195.528 142.333C198.316 142.762 201.556 143.318 205.066 144.027C204.49 147.795 203.58 151.554 202.72 154.995C199.58 167.554 196.079 180.117 190.349 191.798C184.619 203.479 176.513 214.324 165.56 221.785C164.699 222.371 163.788 222.951 162.748 223.122C160.863 223.433 159.038 222.342 157.625 221.101C152.821 216.88 150.532 210.684 148.596 204.706C142.293 185.253 137.836 165.177 136.07 144.889C139.748 143.551 143.233 142.466 146.265 141.601Z" fill="#864296"/>
<path d="M223.774 84.0222C227.052 79.6983 230.1 74.902 230.67 69.5067C231.405 62.5389 227.904 55.7616 227.884 48.7552C227.868 43.3712 229.911 38.0608 229.32 32.7104C228.457 24.8889 221.263 18.2717 213.397 18.0636C213.006 10.8955 207.318 4.80841 200.649 2.14521C193.983 -0.517993 186.518 -0.313008 179.408 0.68309C172.297 1.67919 165.272 3.42637 158.099 3.72103C150.372 4.03812 142.658 2.66248 134.928 2.84664C127.198 3.03081 118.99 5.09347 113.877 10.8955C108.288 17.2388 107.86 27.5393 112.905 34.323C113.337 34.9044 113.821 35.5017 113.912 36.2207C114.047 37.2825 113.297 38.2257 112.652 39.0809C107.272 46.2025 106.819 56.6776 111.564 64.2364C111.981 64.8994 112.442 65.5624 112.6 66.3295C112.813 67.3576 112.455 68.405 112.131 69.4043C110.579 74.2102 109.78 79.4261 111.066 84.3089C112.352 89.1917 116.058 93.6517 120.986 94.7519" fill="#EDA34C"/>
<path d="M126.27 75.0141C124.664 72.5895 121.256 71.7167 118.514 72.6824C115.771 73.6481 113.753 76.18 112.962 78.9777C112.171 81.7754 112.491 84.7973 113.383 87.5662C114.801 91.9574 117.72 95.8153 121.458 98.5009C125.229 101.209 129.265 104.405 134.117 104.57" fill="#AD5040"/>
<path d="M205.127 87.3244C218.258 86.9064 222.564 102.966 213.341 110.978C208.96 114.784 201.952 115.43 197.235 112.046" fill="#EDA34C"/>
<path d="M123.716 54.5972C123.708 54.3746 123.698 54.1536 123.69 53.9326C123.243 42.2261 128.064 32.3179 137.767 25.8529C147.85 19.1348 160.546 16.6014 172.315 17.0306C185.104 17.4966 198.486 23.4539 204.244 34.8818C206.219 38.8022 207.209 43.1405 207.953 47.466C210.903 64.6014 210.264 82.347 206.088 99.2247C202.577 113.409 190.181 122.412 176.334 125.166C163.042 127.81 143.236 125.903 134.578 114.325C131.26 109.885 129.595 104.442 128.357 99.0389C125.027 84.501 124.286 69.4586 123.716 54.5972Z" fill="#B65743"/>
<path d="M167.517 89.8228C167.804 92.4395 167.13 95.154 165.62 97.3127C165.135 98.0045 164.561 98.6483 163.852 99.1063C161.679 100.506 158.666 99.8366 156.647 98.2207C154.756 96.7074 153.543 94.539 152.416 92.3867C157.657 92.5932 163.113 91.9575 167.517 89.8228Z" fill="white"/>
<path d="M170.588 74.7481C170.588 77.8709 171.594 80.4012 172.835 80.4012C174.076 80.4012 175.082 77.8693 175.082 74.7481C175.082 71.6253 174.076 69.095 172.835 69.095C171.594 69.095 170.588 71.6253 170.588 74.7481Z" fill="#7C342C"/>
<path d="M138.59 75.166C138.59 78.2888 139.596 80.8191 140.837 80.8191C142.078 80.8191 143.084 78.2872 143.084 75.166C143.084 72.0432 142.078 69.5129 140.837 69.5129C139.596 69.5129 138.59 72.0432 138.59 75.166Z" fill="#7C342C"/>
<path d="M164.659 50.288C164.004 52.9 167.734 56.0837 172.988 57.4C178.242 58.7164 183.032 57.6675 183.687 55.0571C184.342 52.4452 180.612 49.2615 175.358 47.9451C170.104 46.6271 165.314 47.6761 164.659 50.288Z" fill="#7C342C"/>
<path d="M129.993 58.3528C131.071 60.819 135.795 61.1361 140.544 59.0607C145.292 56.9852 148.267 53.3035 147.19 50.8372C146.112 48.371 141.388 48.0539 136.639 50.1294C131.891 52.2033 128.915 55.8866 129.993 58.3528Z" fill="#7C342C"/>
<path d="M210.542 72.0196C194.95 65.8028 180.805 58.2952 175.208 41.4352C167.322 40.0596 159.904 36.1216 154.346 30.3612C151.564 27.4786 149.168 23.9634 148.752 19.9791C148.336 15.9947 150.421 11.5587 154.227 10.3127C155.718 9.8243 157.321 9.84832 158.889 9.88355C168.861 10.1061 182.253 8.6088 190.96 14.4765C193.306 16.0571 194.891 18.5378 196.975 20.4243C200.418 23.5423 204.204 25.8628 206.705 29.9256C209.277 34.1022 210.201 39.0554 211.071 43.8822C212.754 53.2314 214.323 63.2901 210.291 71.8915C210.049 72.4071 209.628 72.9996 209.069 72.8891" fill="#EDA34C"/>
<path d="M203.913 77.3714C206.315 73.6448 210.199 70.9031 214.513 69.8878C216.981 69.3065 220.507 69.7693 222.747 70.956C225.782 72.5622 227.869 75.685 228.59 79.0417C229.31 82.3983 228.751 85.9503 227.416 89.1116C223.78 97.7161 214.007 103.272 204.754 101.994" fill="#B65743"/>
<path d="M154.68 55.2267C157.864 58.3576 159.046 63.6263 157.882 67.8894C157.348 69.8415 155.873 71.515 154.661 73.0796C151.328 77.3763 149.605 83.1527 155.838 86.0481C156.841 86.5142 155.969 87.9923 154.972 87.5295C150.834 85.6077 148.93 81.4392 150.193 77.0496C150.928 74.4969 153.173 72.2805 154.708 70.1938C157.654 66.1886 157.012 59.927 153.468 56.4406C152.677 55.6639 153.891 54.4516 154.68 55.2267Z" fill="#9B4537"/>
<path d="M222.292 78.4494C210.961 74.7293 205.347 87.3198 204.524 96.3327C204.425 97.4249 202.708 97.4345 202.809 96.3327C203.341 90.5051 204.801 84.9337 208.821 80.5169C212.285 76.7087 217.909 75.2065 222.75 76.7951C223.795 77.1394 223.346 78.7969 222.292 78.4494Z" fill="#9B4537"/>
<path d="M211.602 79.1618C216.959 83.9966 215.084 92.3097 208.317 94.5869C207.265 94.9409 206.819 93.2834 207.861 92.9327C213.484 91.0397 214.728 84.2929 210.388 80.3757C209.567 79.6327 210.784 78.4236 211.602 79.1618Z" fill="#9B4537"/>
<path d="M234.641 322.894C231.46 326.399 227.239 328.947 222.657 330.132C219.635 330.912 216.285 331.071 213.522 329.62C210.883 328.233 209.154 325.592 207.794 322.939C204.702 316.909 202.663 309.936 197.365 305.71C195.982 304.607 194.411 303.728 193.166 302.469C192.441 301.735 190.153 298.512 191.776 297.701C192.87 297.155 195.26 298.931 196.161 299.396C199.884 301.313 204.513 304.051 206.46 307.987C204.804 304.64 202.868 301.434 200.679 298.411C198.575 295.506 196.119 293.065 194.781 289.673C194.696 289.459 194.614 289.223 194.677 289.001C194.819 288.498 195.514 288.461 196.028 288.56C197.801 288.903 199.555 289.593 201.052 290.61C202.207 291.395 203.03 292.614 204.075 293.554C206.718 295.927 208.912 298.774 210.829 301.753C210.321 297.05 207.78 292.639 204.658 289.159C203.85 288.258 202.798 287.444 202.085 286.471C201.398 285.53 200.978 284.331 200.415 283.311C200.237 282.989 200.056 282.654 200.027 282.288C199.992 281.834 200.218 281.37 200.597 281.118C201.822 280.3 204.666 282.826 205.595 283.589C207.322 285.01 208.793 286.73 210.03 288.586C212.765 292.694 214.49 297.383 216.882 301.699C217.124 296.268 214.072 291.324 212.142 286.243C211.705 285.092 211.591 283.365 212.781 283.048C213.487 282.861 214.177 283.368 214.691 283.887C220.29 289.545 219.304 298.023 220.625 305.203C220.689 305.552 220.767 305.926 221.028 306.167C221.475 306.583 222.196 306.397 222.753 306.146C224.91 305.174 227.131 303.527 229.393 304.222" fill="#B65743"/>
<path d="M236.625 223.021C241.308 214.838 249.477 208.565 256.39 201.584C261.289 196.636 265.224 191.553 267.022 185.341C287.05 215.445 310.955 263.711 296.311 284.134C277.078 310.962 232.276 327.069 232.276 327.069L222.949 302.567L258.357 265.424L236.625 223.021Z" fill="#6D3E77"/>
</svg>
