<svg width="314" height="400" viewBox="0 0 314 400" fill="none" xmlns="http://www.w3.org/2000/svg">
<path d="M308.095 22.4089C302.899 16.213 295.718 11.6757 287.857 9.69403C266.836 4.39498 245.215 2.12879 223.645 0.474944C214.659 -0.212953 205.091 -0.785132 197.183 3.53993C183.179 11.1968 177.207 27.2563 174.847 42.1955C172.578 56.5642 170.162 77.1931 182.385 87.8265C185.736 90.7404 190.077 92.2046 194.321 93.5145C197.884 94.6138 201.47 95.6329 205.067 96.6101C205.157 101.229 205.419 105.845 205.904 110.44C205.989 111.25 206.105 112.115 206.65 112.721C207.323 113.47 208.495 113.594 209.448 113.269C210.401 112.944 211.18 112.255 211.907 111.556C215.271 108.316 218.059 104.487 220.144 100.308C236.856 104.002 253.851 106.413 270.934 107.451C278 107.88 286.683 107.888 292.875 103.923C299.303 99.8052 303.738 90.5893 306.44 83.7698C310.853 72.6317 311.653 61.1545 312.571 49.367C312.578 49.2738 312.586 49.1822 312.592 49.0889C313.301 39.9968 314.444 29.9806 308.095 22.4089Z" fill="#FF8282"/>
<path d="M211.722 26.2951C211.203 35.9707 210.454 45.6205 209.507 55.2575C209.414 55.2334 209.34 55.1852 209.237 55.1739C204.663 54.7094 200.136 54.0022 195.634 53.0749C196.482 43.6002 197.291 34.1224 198.009 24.6365C198.17 22.5085 194.862 22.5229 194.702 24.6365C193.646 38.5712 192.45 52.493 191.113 66.402C190.908 68.5252 194.218 68.5059 194.42 66.402C194.742 63.0622 195.028 59.7175 195.333 56.3761C199.92 57.3003 204.538 58.0026 209.196 58.4751C208.852 61.8085 208.485 65.1419 208.09 68.4721C207.839 70.5873 211.148 70.5631 211.397 68.4721C213.064 54.449 214.274 40.3954 215.03 26.2935C215.144 24.1623 211.836 24.1736 211.722 26.2951Z" fill="white"/>
<path d="M229.126 24.4003C218.432 24.3473 217.575 38.4186 216.606 46.421C215.953 51.802 212.212 69.6118 220.259 71.8635C227.892 73.9995 235.398 72.6848 236.074 63.5332C236.232 61.4052 232.922 61.4197 232.767 63.5332C230.594 69.1328 227.218 70.9876 222.641 69.0959C218.163 68.1154 219.165 61.2333 219.176 58.284C219.197 52.4883 219.807 46.6991 220.638 40.9693C220.687 40.6382 220.756 40.3119 220.812 39.9824C221.042 40.1367 221.304 40.2557 221.636 40.2782C226.82 40.6301 232.802 41.9368 237.927 41.0159C238.474 40.9178 238.946 40.3778 239.083 39.8603C240.47 34.5661 235.459 24.4324 229.126 24.4003ZM221.636 36.9705C221.548 36.964 221.487 36.9962 221.407 37.001C221.529 36.4787 221.638 35.9547 221.776 35.4372C223.403 28.5598 230.525 26.7051 234.51 32.737C239.541 40.3505 225.357 37.2228 221.636 36.9705Z" fill="white"/>
<path d="M253.059 72.8794C250.624 72.7958 248.25 72.4133 245.926 71.7704C247.938 57.1687 249.864 42.5557 251.691 27.9299C251.955 25.818 248.644 25.8421 248.383 27.9299C246.524 42.808 244.569 57.6733 242.515 72.5258C242.392 73.4178 242.716 74.2986 243.671 74.5605C246.852 75.4333 249.793 75.9283 253.059 76.1871C255.187 76.3543 255.169 73.0465 253.059 72.8794Z" fill="white"/>
<path d="M267.102 67.7233C263.884 67.344 260.779 66.804 257.643 66.1547C259.884 54.9828 262.05 43.7964 264.133 32.594C264.521 30.5094 261.333 29.619 260.945 31.7149C258.754 43.4991 256.476 55.2656 254.111 67.0161C253.94 67.8615 254.34 68.8468 255.266 69.0509C259.196 69.9156 263.111 70.5601 267.103 71.031C269.217 71.2802 269.193 67.9708 267.102 67.7233Z" fill="white"/>
<path d="M296.694 35.8082C295.905 37.753 294.289 40.0031 292.333 41.657C289.915 34.7748 284.117 30.8917 278.82 38.5389C274.048 45.4259 272.153 55.9533 271.508 64.2177C271.145 68.8771 271.525 84.1651 280.072 81.608C294.167 77.3906 294.94 57.8852 293.217 45.5609C296.377 43.6113 298.56 39.9453 299.883 36.6874C300.686 34.7105 297.486 33.8587 296.694 35.8082ZM289.464 43.4715C287.01 44.4921 284.399 44.2012 282.32 41.2728C282.156 41.0398 281.96 40.8742 281.75 40.7569C284.252 37.0233 287.306 35.6234 289.464 43.4715ZM289.935 63.128C289.431 65.7173 281.991 84.4367 276.557 76.9631C273.807 73.1813 274.429 66.021 275.086 61.6285C275.687 57.6072 276.684 53.6164 277.78 49.7076C278.248 48.0409 279.069 45.7956 280.088 43.7014C282.545 46.5606 286.014 47.4494 289.805 46.8515C289.903 46.8371 289.995 46.8098 290.091 46.7905C290.892 52.3129 291.038 57.4673 289.935 63.128Z" fill="white"/>
<path d="M231.823 189.664C236.336 178.68 229.14 166.01 231.707 154.414C231.985 153.162 233.253 151.632 234.216 152.481C234.563 152.786 234.645 153.286 234.706 153.746C235.278 158.04 235.849 162.336 236.421 166.631C237.22 161.438 237.912 156.209 239.338 151.14C240.061 148.567 240.958 146.024 242.193 143.647C242.905 142.275 244.52 138.324 246.497 139.851C248.413 141.33 246.844 145.775 246.407 147.522C245.036 152.992 243.663 158.461 242.292 163.929C244.975 157.055 247.847 150.253 250.907 143.536C251.682 141.834 252.863 138.532 254.653 137.668C258.67 135.733 256.534 142.898 256.018 144.456C253.614 151.712 251.209 158.967 248.805 166.224C250.97 161.549 253.119 156.795 255.901 152.445C257.394 150.11 258.368 147.49 260.168 145.338C260.705 144.695 262.05 143.131 263.085 143.644C263.75 143.974 263.739 145.407 263.729 146.071C263.713 147.278 263.257 148.411 262.727 149.477C259.826 155.303 257.596 161.407 254.158 166.981C255.907 164.146 257.59 161.243 259.736 158.683C260.648 157.595 265.806 152.077 267.18 154.233C268.236 155.888 265.677 159.294 264.781 160.517C263.366 162.446 261.634 164.201 260.489 166.314C260.451 166.385 260.414 166.457 260.377 166.528C257.908 171.396 258.831 177.21 258.21 182.632C257.349 190.166 253.246 197.274 247.152 201.787" fill="#DD7B66"/>
<path d="M104.402 80.1775C107.756 76.849 109.536 71.9967 109.127 67.2891C108.899 64.6581 107.662 61.7313 105.114 61.0321C108.557 56.6283 109.013 50.2813 106.824 45.1382C104.635 39.995 100.064 36.067 94.868 34.0081C92.1405 32.9265 89.1623 32.3157 86.258 32.7336C83.3538 33.1499 80.5331 34.6912 78.9885 37.1872C77.2688 32.8911 73.1269 29.8245 68.6202 28.7701C64.1152 27.7158 59.3176 28.5001 55.052 30.2922C50.1322 32.3575 45.6947 35.8645 43.2083 40.5849C40.7203 45.3054 40.4052 51.2875 43.0363 55.9292C42.4095 54.8234 36.7086 56.7022 35.8053 57.1925C30.9547 59.8219 30.2572 68.8755 31.5365 73.5236C33.0216 78.9223 37.7614 84.112 43.4349 85.1375C42.2214 89.0752 41.9096 93.4066 43.3079 97.2833C45.6625 103.815 52.5511 106.265 59.0331 106.076C63.3791 105.951 67.6993 103.613 69.8176 99.8147" fill="#1F2A33"/>
<path d="M175.425 133.552C165.417 134.88 155.386 135.974 145.326 136.836C143.218 137.016 143.2 140.325 145.326 140.143C155.386 139.28 165.417 138.186 175.425 136.86C177.508 136.583 177.535 133.272 175.425 133.552Z" fill="#EDA34C"/>
<path d="M60.7805 138.342C59.9946 130.032 59.2103 121.66 60.046 113.356C61.1229 102.658 69.953 75.5631 85.5785 84.6841C86.0527 81.1145 90.0274 79.271 93.4926 78.2906C111.232 73.276 130.546 74.0008 147.86 80.3317C153.375 82.3488 159.891 85.4637 163.325 90.4718C167.302 96.2707 169.423 105.921 170.492 112.769C171.247 117.608 170.326 123.309 169.769 128.197C169.269 132.586 168.089 136.546 166.692 140.706C165.622 143.898 165.479 146.842 163.55 149.742" fill="#25313C"/>
<path d="M243.609 184.437C237.719 182.958 235.253 182.483 229.477 182.405L205.736 252.212L169.709 220.347C161.205 212.826 150.251 208.661 138.898 208.631L124.844 208.595L122.916 176.308L102.177 179.765L97.0262 211.945C97.0262 211.945 66.0918 208.338 48.049 233.847C30.0046 259.355 -4.68595 296.235 0.532738 329.885C5.75143 363.534 55.8152 376.995 55.8152 376.995L66.8038 348.434L39.3137 319.973L72.7152 279.961C72.7152 279.961 80.4251 302.337 86.3912 320.435C86.3912 320.435 63.3467 369.205 61.5594 387.317C61.5594 387.317 176.764 425.746 198.566 366.474L166.356 307.937C166.356 307.937 174.619 296.28 178.195 285.566C178.195 285.566 218.088 312.008 229.605 305.25C239.753 299.293 254.408 226.629 257.854 189.104C253.224 187.232 248.476 185.659 243.609 184.437Z" fill="#DD7B66"/>
<path d="M161.32 138.033C162.72 136.498 165.161 136.177 167.067 137.004C168.973 137.831 170.343 139.632 170.989 141.606C171.635 143.58 171.629 145.714 171.355 147.773C170.868 151.439 169.529 155.031 167.233 157.931C164.936 160.83 161.652 163 158.014 163.669" fill="#D16F5E"/>
<path d="M155.361 177.783C149.319 186.303 137.726 188.452 127.307 189.161C118.036 189.791 108.563 189.812 99.6543 187.173C83.5643 182.406 77.4118 165.602 75.7547 150.404C73.871 133.122 74.6554 111.458 88.0002 98.6737C102.721 84.5734 134.141 81.9793 150.983 94.6652C170.44 109.32 161.539 139.438 160.239 159.589C159.832 165.888 159.119 172.484 155.361 177.783Z" fill="#DD7B66"/>
<path d="M134.795 120.646C131.271 124.594 129.482 129.216 129.469 134.51C129.462 136.81 130.176 138.983 131.258 140.981C132.256 142.823 133.921 144.049 134.673 146.098C135.779 149.112 133.215 152.232 130.571 153.119C129.565 153.456 129.998 155.054 131.01 154.713C134.98 153.381 136.965 149.739 136.266 145.658C135.706 142.386 132.256 140.142 131.386 136.82C130.001 131.53 132.498 125.695 135.964 121.815C136.671 121.022 135.506 119.849 134.795 120.646Z" fill="#B75A4B"/>
<path d="M110.501 144.644C111.971 144.644 113.163 142.161 113.163 139.099C113.163 136.036 111.971 133.554 110.501 133.554C109.031 133.554 107.84 136.036 107.84 139.099C107.84 142.161 109.031 144.644 110.501 144.644Z" fill="#AA4F43"/>
<path d="M145.948 139.261C145.948 142.323 144.757 144.806 143.287 144.806C141.816 144.806 140.625 142.323 140.625 139.261C140.625 136.197 141.816 133.716 143.287 133.716C144.757 133.714 145.948 136.197 145.948 139.261Z" fill="#AA4F43"/>
<path d="M116.363 115.927C116.925 118.647 113.322 121.692 108.312 122.729C103.302 123.766 98.7861 122.401 98.2219 119.682C97.6594 116.962 101.263 113.917 106.273 112.88C111.282 111.843 115.8 113.208 116.363 115.927Z" fill="#AA4F43"/>
<path d="M156.488 125.182C155.303 127.694 150.591 127.961 145.965 125.78C141.338 123.597 138.548 119.791 139.734 117.279C140.918 114.767 145.631 114.5 150.256 116.683C154.884 118.865 157.672 122.669 156.488 125.182Z" fill="#AA4F43"/>
<path d="M121.203 156.749C120.384 158.326 120.165 160.208 120.649 161.92C121.153 163.71 122.399 165.28 124.027 166.18C124.688 166.545 125.413 166.806 126.163 166.889C128.156 167.113 130.13 166.06 131.473 164.572C132.419 163.525 133.097 162.28 133.671 160.986C129.326 160.137 125.128 158.84 121.203 156.749Z" fill="white"/>
<path d="M73.8426 141.436C81.178 140.624 86.956 134.563 90.1817 127.925C96.2313 115.474 95.1336 99.842 87.406 88.3567C77.1246 91.7078 69.7184 101.462 67.3686 112.017C65.0173 122.571 67.1774 133.735 71.4703 143.662" fill="#25313C"/>
<path d="M86.7746 123.219C89.6097 123.729 92.4433 124.238 95.2784 124.748C95.767 124.836 96.3006 124.917 96.733 124.674C97.1702 124.428 97.3791 123.923 97.5543 123.452C99.8237 117.4 101.825 111.244 103.548 105.014C103.231 111.861 102.914 118.708 102.598 125.553C111.637 127.281 120.878 127.948 130.07 127.535C130.601 127.511 131.168 127.47 131.583 127.139C132.033 126.781 132.189 126.177 132.319 125.616C133.674 119.743 135.03 113.872 136.385 107.999C136.864 114.092 137.343 120.185 137.822 126.276C146.577 127.538 155.482 127.765 164.29 126.947C167.376 117.899 165.576 107.845 162.041 98.9629C160.539 95.1875 158.663 91.4395 155.664 88.6975C150.887 84.3307 144.077 83.1751 137.666 82.2831C127.391 80.8542 116.939 79.6231 106.675 81.1371C96.4115 82.6511 86.212 87.2334 79.9551 95.509" fill="#25313C"/>
<path d="M243.609 184.437C237.718 182.959 235.253 182.483 229.476 182.406L205.736 252.213L169.708 220.348C168.729 219.481 167.715 218.667 166.674 217.89C161.073 222.804 154.284 226.571 147.382 229.482C117.435 242.113 82.2634 241.489 52.618 228.275C51.0285 229.962 49.4919 231.801 48.047 233.845C30.0026 259.354 -4.6879 296.233 0.530785 329.884C5.74947 363.533 55.8132 376.994 55.8132 376.994L66.8019 348.433L39.3117 319.972L72.7133 279.96C72.7133 279.96 80.4232 302.336 86.3892 320.433C86.3892 320.433 63.3447 369.203 61.5575 387.315C61.5575 387.315 176.762 425.744 198.564 366.473L166.354 307.936C166.354 307.936 174.617 296.278 178.193 285.564C178.193 285.564 218.086 312.007 229.603 305.248C239.751 299.292 254.406 226.627 257.852 189.103C253.223 187.232 248.476 185.659 243.609 184.437Z" fill="#FF8282"/>
<path d="M165.175 237.756C169.459 234.477 173.142 230.56 176.446 226.309L169.705 220.348C168.727 219.481 167.712 218.666 166.671 217.89C161.07 222.803 154.281 226.571 147.379 229.482C117.432 242.113 82.2606 241.489 52.6152 228.274C51.0256 229.962 49.4891 231.801 48.0442 233.845C47.2068 235.03 46.3228 236.246 45.418 237.479C73.8258 253.609 108.746 258.217 140.253 249.395C149.136 246.907 157.847 243.36 165.175 237.756Z" fill="#FF5353"/>
<path d="M76.8383 291.264C77.3397 291.053 75.2118 284.929 72.8475 277.318C70.464 269.712 68.7314 263.463 68.1994 263.576C67.6979 263.675 68.6093 270.18 71.0233 277.887C73.4197 285.596 76.369 291.466 76.8383 291.264Z" fill="#FF5353"/>
<path d="M170.355 298.88C170.45 299.06 173.598 296.818 176.114 291.391C177.393 288.703 178.299 285.29 179.101 281.533C179.863 277.755 180.598 273.502 180.149 268.899C179.593 264.26 177.624 260.318 175.725 256.967C173.794 253.606 171.756 250.792 170.159 248.415C168.551 246.041 167.462 244.022 166.83 242.56C166.203 241.099 165.951 240.237 165.808 240.266C165.692 240.285 165.699 241.21 166.129 242.809C166.563 244.403 167.523 246.621 169.014 249.133C170.496 251.65 172.391 254.503 174.188 257.827C175.961 261.13 177.759 264.936 178.251 269.111C178.667 273.322 178.033 277.488 177.375 281.193C176.674 284.93 175.935 288.24 174.873 290.86C172.796 296.161 170.107 298.667 170.355 298.88Z" fill="#FF5353"/>
<path opacity="0.14" d="M155.323 159.101C155.779 162.772 152.12 166.25 147.15 166.867C142.179 167.486 137.78 165.01 137.324 161.34C136.867 157.669 140.527 154.192 145.496 153.573C150.468 152.956 154.867 155.43 155.323 159.101Z" fill="#E2409D"/>
<path opacity="0.14" d="M114.021 160.788C113.55 164.458 109.141 166.917 104.173 166.279C99.2051 165.642 95.5583 162.151 96.0292 158.482C96.5001 154.813 100.909 152.355 105.877 152.992C110.845 153.628 114.492 157.119 114.021 160.788Z" fill="#E2409D"/>
<path d="M79.1223 146.085C79.3939 137.869 68.9437 133.065 62.391 137.122C58.1897 139.724 56.0006 144.983 56.5262 149.896C57.0517 154.809 60.0364 159.274 64.032 162.182C69.5528 166.2 76.7741 168.881 83.5679 166.562" fill="#DD7B66"/>
<path d="M63.8238 144.727C73.509 142.133 76.0966 154.024 75.9793 160.978C75.9616 162.045 77.6155 162.044 77.6332 160.978C77.7103 156.407 77.4564 150.992 74.4187 147.265C71.6703 143.893 67.7197 141.971 63.3834 143.133C62.3548 143.408 62.792 145.004 63.8238 144.727Z" fill="#B75A4B"/>
<path d="M68.8519 144.644C66.1726 149.832 67.7734 156.171 72.5694 159.488C73.4486 160.096 74.2747 158.662 73.4036 158.061C69.3726 155.272 68.0354 149.825 70.2807 145.479C70.7677 144.533 69.3405 143.697 68.8519 144.644Z" fill="#B75A4B"/>
<path d="M103.614 160.25C90.7591 160.25 80.3008 149.791 80.3008 136.937C80.3008 124.082 90.7591 113.624 103.614 113.624C116.468 113.624 126.928 124.082 126.928 136.937C126.928 149.791 116.468 160.25 103.614 160.25ZM103.614 116.734C92.474 116.734 83.4124 125.797 83.4124 136.935C83.4124 148.075 92.4756 157.138 103.614 157.138C114.753 157.138 123.818 148.075 123.818 136.935C123.817 125.797 114.753 116.734 103.614 116.734Z" fill="#EDA34C"/>
<path d="M155.392 162.564C143.018 162.564 132.953 152.496 132.953 140.124C132.953 127.751 143.019 117.685 155.392 117.685C167.764 117.685 177.83 127.751 177.83 140.124C177.83 152.496 167.766 162.564 155.392 162.564ZM155.392 120.679C144.67 120.679 135.947 129.403 135.947 140.124C135.947 150.847 144.671 159.57 155.392 159.57C166.114 159.57 174.836 150.846 174.836 140.124C174.838 129.403 166.114 120.679 155.392 120.679Z" fill="#EDA34C"/>
<path d="M136.057 135.688C135.149 133.992 133.558 132.8 131.547 132.517C128.442 132.081 126.333 134.113 124.583 136.381C123.28 138.07 126.157 139.712 127.439 138.051C128.241 137.012 129.154 135.913 130.543 135.757C132.041 135.588 133.11 136.71 133.462 138.047C133.643 138.737 134.125 139.073 134.661 139.171C134.812 137.914 135.326 136.672 136.057 135.688Z" fill="#EDA34C"/>
<path d="M83.0403 127.025C70.0105 128.367 41.0304 129.751 42.0044 148.324C42.1153 150.446 45.423 150.457 45.3121 148.324C44.5246 133.288 72.3458 131.434 83.0403 130.331C85.1394 130.116 85.1603 126.806 83.0403 127.025Z" fill="#EDA34C"/>
<path d="M53.3672 369.787C56.4322 373.165 60.5001 375.621 64.9184 376.762C67.8307 377.514 71.0596 377.667 73.7228 376.269C76.2671 374.933 77.9338 372.385 79.2453 369.828C82.2251 364.017 84.1891 357.297 89.2953 353.224C90.6293 352.16 92.1433 351.315 93.3423 350.101C94.0415 349.394 96.2466 346.287 94.6811 345.506C93.6268 344.981 91.3236 346.692 90.4557 347.139C86.8684 348.987 82.4067 351.626 80.5294 355.42C82.1254 352.194 83.9914 349.103 86.1017 346.189C88.13 343.389 90.4959 341.038 91.7865 337.769C91.8685 337.562 91.9472 337.335 91.8862 337.121C91.7495 336.636 91.0777 336.602 90.5827 336.697C88.8742 337.026 87.1834 337.692 85.7417 338.672C84.6279 339.429 83.8355 340.604 82.8278 341.509C80.2803 343.796 78.1668 346.54 76.3201 349.412C76.8103 344.878 79.2597 340.628 82.2669 337.274C83.0464 336.404 84.0605 335.622 84.7468 334.683C85.409 333.778 85.814 332.621 86.3573 331.637C86.5292 331.327 86.7028 331.006 86.7301 330.652C86.7639 330.215 86.5453 329.768 86.1821 329.525C85.0008 328.738 82.2604 331.17 81.3636 331.907C79.7001 333.275 78.2809 334.934 77.09 336.723C74.4541 340.683 72.7922 345.201 70.4842 349.36C70.2512 344.126 73.1924 339.363 75.052 334.464C75.4731 333.355 75.5824 331.692 74.4364 331.387C73.7566 331.205 73.0896 331.695 72.5945 332.195C67.199 337.647 68.1489 345.82 66.876 352.739C66.8133 353.075 66.7378 353.436 66.487 353.668C66.0563 354.068 65.362 353.889 64.8252 353.647C62.747 352.71 60.6062 351.123 58.4268 351.794" fill="#DD7B66"/>
<path d="M63.9194 290.489C55.2934 284.86 46.8844 278.894 38.6666 272.713C34.6822 269.717 30.3122 266.641 25.9984 263.36C10.9691 284.155 -2.90774 307.718 0.528522 329.882C5.74721 363.531 55.8109 376.992 55.8109 376.992L66.7996 348.431L39.3095 319.97L63.9194 290.489Z" fill="#FF8282"/>
</svg>
