<svg width="234" height="30" viewBox="0 0 234 30" fill="none" xmlns="http://www.w3.org/2000/svg">
<path d="M21.284 0C19.8844 0 18.7497 1.14762 18.7497 2.56327V22.0322C18.7497 22.5041 19.1279 22.8866 19.5945 22.8866H21.0545C21.5211 22.8866 21.8993 22.5041 21.8993 22.0322V13.0515C21.8993 12.5155 22.0012 12.0206 22.2051 11.567C22.4293 11.0928 22.7249 10.6804 23.0918 10.3299C23.4792 9.97938 23.9276 9.71134 24.4373 9.52577C24.9469 9.31959 25.5075 9.21649 26.1191 9.21649C26.8733 9.17526 27.5053 9.29897 28.0149 9.58763C28.5246 9.85567 28.9017 10.299 29.1463 10.9175C29.3909 11.5155 29.5133 12.2783 29.5133 13.2062V20.3233C29.5133 21.739 30.6479 22.8866 32.0476 22.8866H32.6628V12.9897C32.6628 11.4845 32.459 10.2371 32.0513 9.24742C31.6435 8.25773 31.032 7.52577 30.2166 7.05155C29.4011 6.5567 28.3819 6.30928 27.1587 6.30928C26.3025 6.30928 25.4667 6.50515 24.6513 6.89691C23.8359 7.26804 23.1326 7.76289 22.5414 8.38144C22.2932 8.63246 22.0792 8.89437 21.8993 9.16719V0H21.284Z" fill="white"/>
<path d="M5.99334 4.45361V22.0322C5.99334 22.5041 6.37155 22.8866 6.8381 22.8866H8.45102C8.91757 22.8866 9.29579 22.5041 9.29579 22.0322V4.45361H12.9383C14.3379 4.45361 15.4726 3.30599 15.4726 1.89034V1.23711H2.53429C1.13464 1.23711 0 2.38473 0 3.80038V4.45361H5.99334Z" fill="white"/>
<path fill-rule="evenodd" clip-rule="evenodd" d="M44.4271 23.1959C42.7759 23.1959 41.3081 22.8454 40.0238 22.1443C38.7599 21.4227 37.761 20.4433 37.0271 19.2062C36.3137 17.9691 35.9569 16.5464 35.9569 14.9381C35.9569 13.6598 36.1608 12.4948 36.5685 11.4433C36.9762 10.3918 37.5368 9.48454 38.2503 8.72165C38.9842 7.93814 39.8505 7.34021 40.8494 6.92783C41.8687 6.49485 42.9695 6.27835 44.1519 6.27835C45.1915 6.27835 46.1599 6.48454 47.0568 6.89691C47.9538 7.28866 48.7284 7.83505 49.3808 8.53608C50.0535 9.23711 50.5631 10.0722 50.9097 11.0412C51.2766 11.9897 51.4499 13.0309 51.4295 14.1649L51.3989 15.5258H39.1177C39.2042 16.3299 39.4247 17.0516 39.7792 17.6907C40.2481 18.5155 40.9106 19.1546 41.7668 19.6082C42.623 20.0619 43.6117 20.2887 44.7329 20.2887C45.5279 20.2887 46.2618 20.1546 46.9345 19.8866C48.2696 19.3703 49.8855 19.4535 50.7147 20.631L50.7568 20.6907C50.2675 21.1856 49.6662 21.6186 48.9527 21.9897C48.2596 22.3608 47.5155 22.6598 46.7205 22.8866C45.9458 23.0928 45.1813 23.1959 44.4271 23.1959ZM39.6569 11.7216C39.3576 12.3429 39.8801 12.9897 40.5633 12.9897H48.0047C48.123 12.9897 48.2188 12.8928 48.2188 12.7732C48.1576 12.0928 47.9334 11.4845 47.5461 10.9485C47.1587 10.4124 46.6695 9.98969 46.0783 9.68041C45.4871 9.37113 44.845 9.21649 44.1519 9.21649C43.0511 9.21649 42.1235 9.43299 41.3693 9.86598C40.615 10.2783 40.0442 10.8969 39.6569 11.7216Z" fill="white"/>
<path fill-rule="evenodd" clip-rule="evenodd" d="M58.1817 1.23711C56.782 1.23711 55.6474 2.38473 55.6474 3.80038V22.8866H64.882C66.0032 22.8866 67.0021 22.7526 67.8787 22.4845C68.7553 22.1959 69.4993 21.7835 70.1109 21.2474C70.7429 20.7113 71.2117 20.0515 71.5175 19.268C71.8437 18.4639 72.0067 17.5464 72.0067 16.5155C72.0067 15.5052 71.8029 14.6082 71.3952 13.8247C71.0079 13.0412 70.4575 12.3918 69.744 11.8763C69.2777 11.526 68.7592 11.2461 68.1885 11.0366C68.8836 10.7117 69.453 10.2596 69.8968 9.68041C70.5492 8.85567 70.8754 7.85567 70.8754 6.68041C70.8754 5.50515 70.6307 4.51546 70.1415 3.71134C69.6726 2.8866 68.9693 2.26804 68.0316 1.85567C67.0938 1.4433 65.9421 1.23711 64.5762 1.23711H58.1817ZM64.6985 19.6701H58.9498V15.9859C58.9498 14.5703 60.0845 13.4227 61.4841 13.4227H64.5457C65.3815 13.4227 66.1051 13.5464 66.7167 13.7938C67.3283 14.0206 67.7971 14.3608 68.1233 14.8144C68.4699 15.268 68.6431 15.8144 68.6431 16.4536C68.6431 17.134 68.4801 17.7216 68.1539 18.2165C67.8481 18.6907 67.3996 19.0515 66.8084 19.299C66.2376 19.5464 65.5344 19.6701 64.6985 19.6701ZM64.3928 10.2062H58.9498V7.01688C58.9498 5.60122 60.0845 4.45361 61.4841 4.45361H64.0258C65.1674 4.45361 66.044 4.70103 66.6556 5.19588C67.2671 5.69072 67.5729 6.40206 67.5729 7.3299C67.5729 7.8866 67.4302 8.38144 67.1448 8.81443C66.8798 9.24742 66.5027 9.58763 66.0134 9.83505C65.5445 10.0825 65.0043 10.2062 64.3928 10.2062Z" fill="white"/>
<path fill-rule="evenodd" clip-rule="evenodd" d="M82.8525 23.1959C81.2828 23.1959 79.8762 22.8351 78.6327 22.1134C77.4095 21.3711 76.4412 20.3711 75.7277 19.1134C75.0142 17.8351 74.6575 16.3814 74.6575 14.7526C74.6575 13.1237 75.0142 11.6804 75.7277 10.4227C76.4412 9.14433 77.4095 8.14433 78.6327 7.42268C79.8762 6.68041 81.2828 6.30928 82.8525 6.30928C84.4018 6.30928 85.788 6.68041 87.0111 7.42268C88.2546 8.14433 89.2331 9.14433 89.9466 10.4227C90.6601 11.6804 91.0169 13.1237 91.0169 14.7526C91.0169 16.3814 90.6601 17.8351 89.9466 19.1134C89.2331 20.3711 88.2546 21.3711 87.0111 22.1134C85.788 22.8351 84.4018 23.1959 82.8525 23.1959ZM82.8525 20.2887C83.1022 20.2887 83.345 20.2725 83.5809 20.2403C82.8614 19.7848 82.3829 18.976 82.3829 18.0541C82.3829 16.6307 83.5238 15.4768 84.9311 15.4768C86.0622 15.4768 87.0212 16.2222 87.354 17.2539C87.6731 16.4975 87.8238 15.6637 87.8061 14.7526C87.8265 13.6804 87.6227 12.732 87.1946 11.9072C86.7665 11.0619 86.1753 10.4021 85.421 9.92783C84.6668 9.45361 83.8106 9.21649 82.8525 9.21649C81.8944 9.21649 81.028 9.46392 80.2533 9.95876C79.4991 10.433 78.9079 11.0928 78.4798 11.9381C78.0517 12.7629 77.8478 13.701 77.8682 14.7526C77.8478 15.8041 78.0517 16.7526 78.4798 17.5979C78.9079 18.4227 79.4991 19.0825 80.2533 19.5773C81.028 20.0515 81.8944 20.2887 82.8525 20.2887Z" fill="white"/>
<path fill-rule="evenodd" clip-rule="evenodd" d="M97.4455 22.1134C98.689 22.8351 100.096 23.1959 101.665 23.1959C103.215 23.1959 104.601 22.8351 105.824 22.1134C107.067 21.3711 108.046 20.3711 108.759 19.1134C109.473 17.8351 109.83 16.3814 109.83 14.7526C109.83 13.1237 109.473 11.6804 108.759 10.4227C108.046 9.14433 107.067 8.14433 105.824 7.42268C104.601 6.68041 103.215 6.30928 101.665 6.30928C100.096 6.30928 98.689 6.68041 97.4455 7.42268C96.2223 8.14433 95.254 9.14433 94.5405 10.4227C93.827 11.6804 93.4703 13.1237 93.4703 14.7526C93.4703 16.3814 93.827 17.8351 94.5405 19.1134C95.254 20.3711 96.2223 21.3711 97.4455 22.1134ZM102.633 20.2017C102.323 20.2597 102 20.2887 101.665 20.2887C100.707 20.2887 99.8408 20.0515 99.0661 19.5773C98.3118 19.0825 97.7207 18.4227 97.2926 17.5979C96.8645 16.7526 96.6606 15.8041 96.681 14.7526C96.6606 13.701 96.8645 12.7629 97.2926 11.9381C97.7207 11.0928 98.3118 10.433 99.0661 9.95876C99.8408 9.46392 100.707 9.21649 101.665 9.21649C102.623 9.21649 103.48 9.45361 104.234 9.92783C104.988 10.4021 105.579 11.0619 106.007 11.9072C106.435 12.732 106.639 13.6804 106.619 14.7526C106.634 15.5148 106.531 16.2228 106.31 16.8767C105.887 16.0454 105.03 15.4768 104.042 15.4768C102.635 15.4768 101.494 16.6307 101.494 18.0541C101.494 18.9504 101.947 19.7399 102.633 20.2017Z" fill="white"/>
<path d="M113.877 22.8866C115.276 22.8866 116.411 21.739 116.411 20.3233V17.5534L118.161 15.8943L123.328 21.9915C123.809 22.5596 124.512 22.8866 125.252 22.8866H128.123L120.372 13.7969L127.909 6.64948H124.702C124.033 6.64948 123.392 6.91673 122.917 7.39301L116.411 13.921V0H115.796C114.396 0 113.262 1.14762 113.262 2.56327V22.8866H113.877Z" fill="white"/>
<path d="M129.173 1.23711L135.992 22.8866H138.224L142.787 11.6347C143.072 10.9317 144.055 10.9265 144.347 11.6264L149.049 22.8866H151.342L156.767 5.66406C157.102 4.6008 158.078 3.87885 159.182 3.87885H231.452C232.859 3.87885 234 2.66053 234 1.23711H156.49C155.375 1.23711 154.392 1.97319 154.066 3.05092L150.547 14.6907C150.384 15.2268 150.252 15.6495 150.15 15.9588C150.068 16.268 150.007 16.5258 149.966 16.732C149.926 16.9175 149.885 17.1134 149.844 17.3196L149.832 17.3799L149.816 17.4614C149.708 17.0459 149.584 16.6378 149.447 16.2371C149.304 15.7423 149.131 15.2474 148.927 14.7526L145.734 6.38696C145.41 5.53874 144.603 4.97938 143.704 4.97938C142.814 4.97938 142.014 5.5281 141.684 6.36449L138.377 14.7526C138.296 14.9794 138.204 15.2577 138.102 15.5876C138 15.8969 137.857 16.3505 137.674 16.9485C137.62 17.1463 137.558 17.3713 137.489 17.6233C137.47 17.5137 137.45 17.4021 137.429 17.2887C137.348 16.8351 137.256 16.3918 137.154 15.9588C137.052 15.5052 136.94 15.1134 136.818 14.7835L133.241 3.04538C132.913 1.97045 131.931 1.23711 130.819 1.23711H129.173Z" fill="white"/>
<path fill-rule="evenodd" clip-rule="evenodd" d="M166.5 23.1959C165.175 23.1959 163.962 22.8247 162.861 22.0825C161.781 21.3402 160.915 20.3299 160.262 19.0515C159.61 17.7732 159.284 16.3299 159.284 14.7216C159.284 13.0928 159.61 11.6495 160.262 10.3918C160.935 9.1134 161.832 8.1134 162.953 7.39175C164.095 6.6701 165.369 6.30928 166.775 6.30928C167.611 6.30928 168.376 6.43299 169.069 6.68041C169.762 6.92783 170.363 7.27835 170.873 7.73196C171.37 8.1384 171.778 8.60844 172.096 9.14206C172.096 7.76545 173.199 6.64948 174.56 6.64948H175.276V20.3233C175.276 21.739 174.142 22.8866 172.742 22.8866H172.096V20.4006L172.065 20.4433C171.699 20.9588 171.219 21.4227 170.628 21.8351C170.057 22.2474 169.415 22.5773 168.702 22.8247C168.009 23.0722 167.275 23.1959 166.5 23.1959ZM167.326 20.2577C168.284 20.2577 169.13 20.0206 169.864 19.5464C170.598 19.0722 171.168 18.4227 171.576 17.5979C172.004 16.7526 172.218 15.7938 172.218 14.7216C172.218 13.6701 172.004 12.732 171.576 11.9072C171.168 11.0825 170.598 10.433 169.864 9.95876C169.13 9.48454 168.284 9.24742 167.326 9.24742C166.388 9.24742 165.552 9.48454 164.818 9.95876C164.105 10.433 163.534 11.0825 163.106 11.9072C162.698 12.732 162.494 13.6701 162.494 14.7216C162.494 15.7938 162.698 16.7526 163.106 17.5979C163.534 18.4227 164.105 19.0722 164.818 19.5464C165.552 20.0206 166.388 20.2577 167.326 20.2577Z" fill="white"/>
<path fill-rule="evenodd" clip-rule="evenodd" d="M183.435 29.4433C184.576 29.8144 185.718 30 186.86 30C188.144 30 189.296 29.8144 190.315 29.4433C191.334 29.0928 192.201 28.567 192.914 27.866C193.628 27.1856 194.168 26.3402 194.535 25.3299C194.922 24.3402 195.116 23.1959 195.116 21.8969V6.64948H194.15C192.944 6.64948 191.966 7.63834 191.966 8.85815C191.76 8.59549 191.515 8.3438 191.232 8.10309C190.845 7.7732 190.407 7.47423 189.917 7.20618C189.428 6.91753 188.898 6.70103 188.327 6.5567C187.757 6.39175 187.165 6.30928 186.554 6.30928C185.066 6.30928 183.72 6.68041 182.517 7.42268C181.335 8.14433 180.397 9.14433 179.704 10.4227C179.032 11.6804 178.695 13.1237 178.695 14.7526C178.695 16.3814 179.042 17.8351 179.735 19.1134C180.428 20.3711 181.366 21.3711 182.548 22.1134C183.751 22.8351 185.117 23.1959 186.646 23.1959C187.522 23.1959 188.378 23.0103 189.214 22.6392C190.05 22.268 190.743 21.7938 191.293 21.2165C191.575 20.922 191.799 20.6226 191.966 20.3181V22.268C191.966 23.3402 191.772 24.2371 191.385 24.9588C190.998 25.6804 190.427 26.2268 189.673 26.5979C188.919 26.9691 187.981 27.1546 186.86 27.1546C186.268 27.1546 185.667 27.0825 185.055 26.9381C184.444 26.8144 183.863 26.6289 183.313 26.3814C182.762 26.1546 182.283 25.8866 181.875 25.5773L181.562 26.2447C181.063 27.3067 181.341 28.6042 182.41 29.0659C182.729 29.2036 183.071 29.3294 183.435 29.4433ZM189.642 19.5464C188.868 20.0206 187.981 20.2577 186.982 20.2577C186.003 20.2577 185.127 20.0206 184.352 19.5464C183.598 19.0722 182.997 18.4227 182.548 17.5979C182.12 16.7526 181.906 15.8041 181.906 14.7526C181.906 13.701 182.12 12.7629 182.548 11.9381C182.997 11.0928 183.598 10.433 184.352 9.95876C185.127 9.46392 186.003 9.21649 186.982 9.21649C187.981 9.21649 188.857 9.45361 189.612 9.92783C190.386 10.4021 190.988 11.0619 191.416 11.9072C191.864 12.732 192.088 13.6804 192.088 14.7526C192.088 15.8247 191.874 16.7732 191.446 17.5979C191.018 18.4227 190.417 19.0722 189.642 19.5464Z" fill="white"/>
<path fill-rule="evenodd" clip-rule="evenodd" d="M206.748 23.1959C205.178 23.1959 203.772 22.8351 202.528 22.1134C201.305 21.3711 200.337 20.3711 199.623 19.1134C198.91 17.8351 198.553 16.3814 198.553 14.7526C198.553 13.1237 198.91 11.6804 199.623 10.4227C200.337 9.14433 201.305 8.14433 202.528 7.42268C203.772 6.68041 205.178 6.30928 206.748 6.30928C208.297 6.30928 209.684 6.68041 210.907 7.42268C212.15 8.14433 213.129 9.14433 213.842 10.4227C214.556 11.6804 214.913 13.1237 214.913 14.7526C214.913 16.3814 214.556 17.8351 213.842 19.1134C213.129 20.3711 212.15 21.3711 210.907 22.1134C209.684 22.8351 208.297 23.1959 206.748 23.1959ZM206.748 20.2887C207.706 20.2887 208.562 20.0515 209.317 19.5773C210.071 19.0825 210.662 18.4227 211.09 17.5979C211.518 16.7526 211.722 15.8041 211.702 14.7526C211.722 13.6804 211.518 12.732 211.09 11.9072C210.662 11.0619 210.071 10.4021 209.317 9.92783C208.562 9.45361 207.706 9.21649 206.748 9.21649C205.79 9.21649 204.924 9.46392 204.149 9.95876C203.395 10.433 202.804 11.0928 202.375 11.9381C201.947 12.7629 201.743 13.701 201.764 14.7526C201.743 15.8041 201.947 16.7526 202.375 17.5979C202.804 18.4227 203.395 19.0825 204.149 19.5773C204.924 20.0515 205.79 20.2887 206.748 20.2887Z" fill="white"/>
<path d="M220.879 6.64948C219.479 6.64948 218.344 7.7971 218.344 9.21275V22.0322C218.344 22.5041 218.723 22.8866 219.189 22.8866H220.649C221.116 22.8866 221.494 22.5041 221.494 22.0322V13.0515C221.494 12.5155 221.596 12.0206 221.8 11.567C222.024 11.0928 222.32 10.6804 222.687 10.3299C223.074 9.97938 223.522 9.71134 224.032 9.52577C224.542 9.31959 225.102 9.21649 225.714 9.21649C226.468 9.17526 227.1 9.29897 227.61 9.58763C228.119 9.85567 228.496 10.299 228.741 10.9175C228.986 11.5155 229.108 12.2783 229.108 13.2062V20.3233C229.108 21.739 230.243 22.8866 231.642 22.8866H232.258V12.9897C232.258 11.4845 232.054 10.2371 231.646 9.24742C231.238 8.25773 230.627 7.52577 229.811 7.05155C228.996 6.5567 227.977 6.30928 226.753 6.30928C225.897 6.30928 225.061 6.50515 224.246 6.89691C223.431 7.26804 222.727 7.76289 222.136 8.38144C221.888 8.63246 221.674 8.89437 221.494 9.16718V6.64948H220.879Z" fill="white"/>
</svg>
