<svg width="1440" height="393" viewBox="0 0 1440 393" fill="none" xmlns="http://www.w3.org/2000/svg">
<path d="M358.5 49.3633C202.5 -34.4036 54 3.40771 0 52.8536V360H1440V49.3633C1330.5 -73.6698 1211.05 94.7374 1085.5 94.7374C951.16 94.7374 906.34 25.8041 772 25.8041C609.542 25.8041 513.774 132.74 358.5 49.3633Z" fill="#FF5353"/>
<path d="M358.5 82.3633C202.5 -1.40359 54 36.4077 0 85.8536V393H1440V82.3633C1330.5 -40.6698 1211.05 127.737 1085.5 127.737C951.16 127.737 906.34 58.8041 772 58.8041C609.542 58.8041 513.774 165.74 358.5 82.3633Z" fill="#FF6C6C"/>
<path d="M358.5 115.363C202.5 31.5964 54 69.4077 0 118.854V426H1440V115.363C1330.5 -7.66975 1211.05 160.737 1085.5 160.737C951.16 160.737 906.34 91.8041 772 91.8041C609.542 91.8041 513.774 198.74 358.5 115.363Z" fill="#FF8282"/>
</svg>
