<svg width="424" height="448" viewBox="0 0 424 448" fill="none" xmlns="http://www.w3.org/2000/svg">
<path d="M0.596565 402.079C5.12756 408.476 31.8786 411.649 45.0716 412.288C100.68 414.98 156.61 415.387 212.319 413.53C242.013 412.54 311.712 422.099 396.231 408.625C403.029 407.541 441.983 395.228 411.667 390.874C356.106 382.895 275.979 382.039 155.35 380.943C149.119 380.886 122.184 382.633 91.5806 385.027C68.1466 386.861 -7.44943 390.719 0.596565 402.079Z" fill="#E8DEDC"/>
<path d="M249.164 93.2636V70.9526H182.964C176.803 70.9526 171.809 75.9466 171.809 82.1076C171.809 88.2686 176.803 93.2626 182.964 93.2626H249.164V93.2636Z" fill="#707070"/>
<path d="M190.433 70.8945H232.499C226.338 70.8945 221.344 75.8885 221.344 82.0495C221.344 88.2105 226.339 93.2045 232.499 93.2045H190.432C184.271 93.2045 179.277 88.2105 179.277 82.0495C179.278 75.8885 184.272 70.8945 190.433 70.8945Z" fill="#999999"/>
<path d="M327.9 90.5596V93.2626H182.964C180.185 93.2626 177.65 92.2406 175.697 90.5596H327.9Z" fill="#E6E9EC"/>
<path d="M327.9 93.2636V70.9526H242.18C236.019 70.9526 231.025 75.9466 231.025 82.1076C231.025 88.2686 236.019 93.2626 242.18 93.2626H327.9V93.2636Z" fill="#707070"/>
<mask id="mask0_470_675" style="mask-type:luminance" maskUnits="userSpaceOnUse" x="231" y="70" width="97" height="24">
<path d="M327.9 93.2636V70.9526H242.18C236.019 70.9526 231.025 75.9466 231.025 82.1076C231.025 88.2686 236.019 93.2626 242.18 93.2626H327.9V93.2636Z" fill="white"/>
</mask>
<g mask="url(#mask0_470_675)">
<path d="M327.9 93.2636V70.9526H242.18C236.019 70.9526 231.025 75.9466 231.025 82.1076C231.025 88.2686 236.019 93.2626 242.18 93.2626H327.9V93.2636Z" fill="#8A8A8A"/>
</g>
<mask id="mask1_470_675" style="mask-type:luminance" maskUnits="userSpaceOnUse" x="234" y="73" width="94" height="18">
<path d="M327.924 73.4424H242.91C238.156 73.4424 234.303 77.2964 234.303 82.0494C234.303 86.8034 238.157 90.6564 242.91 90.6564H327.924V73.4424Z" fill="white"/>
</mask>
<g mask="url(#mask1_470_675)">
<path d="M327.923 73.4424H234.301V90.6574H327.923V73.4424Z" fill="#F1E7DB"/>
</g>
<mask id="mask2_470_675" style="mask-type:luminance" maskUnits="userSpaceOnUse" x="234" y="73" width="94" height="18">
<path d="M327.924 73.4424H242.91C238.156 73.4424 234.303 77.2964 234.303 82.0494C234.303 86.8034 238.157 90.6564 242.91 90.6564H327.924V73.4424Z" fill="white"/>
</mask>
<g mask="url(#mask2_470_675)">
<path d="M327.923 73.4424H234.301V78.0024H327.923V73.4424Z" fill="#E6D9CA"/>
</g>
<mask id="mask3_470_675" style="mask-type:luminance" maskUnits="userSpaceOnUse" x="234" y="73" width="94" height="18">
<path d="M327.924 73.4424H242.91C238.156 73.4424 234.303 77.2964 234.303 82.0494C234.303 86.8034 238.157 90.6564 242.91 90.6564H327.924V73.4424Z" fill="white"/>
</mask>
<g mask="url(#mask3_470_675)">
<path d="M234.703 92.4432H232.912V71.6562H234.889C238.395 78.1213 238.471 86.3432 234.703 92.4432Z" fill="#39354F"/>
</g>
<path d="M302.42 225.404H158.324C155.304 225.404 152.855 227.853 152.855 230.873V259.655C152.855 262.675 155.304 265.124 158.324 265.124H302.42V225.404Z" fill="#D9A524"/>
<path d="M302.42 229.202V225.404H158.324C155.887 225.404 153.824 226.999 153.117 229.202H302.42Z" fill="#FFE7D9"/>
<path d="M375.575 225.407V230.553H362.285V259.868H375.575V265.125H299.696C296.676 265.125 294.227 262.676 294.227 259.656V230.877C294.227 227.857 296.676 225.408 299.696 225.408H375.575V225.407Z" fill="#D58300"/>
<path d="M371.434 230.553H299.32V259.868H371.434V230.553Z" fill="#F1E7DB"/>
<path d="M371.434 230.553H299.32V239.92H371.434V230.553Z" fill="#E6D9CA"/>
<path d="M299.32 230.874C300.795 231.285 304.405 234.596 304.405 245.211C304.405 257.164 299.32 259.868 299.32 259.868V230.874Z" fill="#39354F"/>
<path d="M282.739 235.237H165.35V256.16H282.739V235.237Z" fill="#D58300"/>
<path d="M158.174 121.125H285.158C286.391 121.125 287.39 122.124 287.39 123.357V144.26C287.39 145.493 286.391 146.492 285.158 146.492H158.174V121.125Z" fill="#76B2D2"/>
<path d="M172.122 139.951H278.844V126.313L172.122 126.313V139.951Z" fill="#95CCEB"/>
<path d="M107.51 121.125V123.095H138.489V144.465H107.51V146.492H159.09C160.911 146.492 162.387 145.016 162.387 143.195V124.424C162.387 122.603 160.911 121.127 159.09 121.127H107.51V121.125Z" fill="#679AB6"/>
<path d="M109.639 144.465H159.77V123.095H109.639V144.465Z" fill="#F1E7DB"/>
<path d="M109.639 140.587H159.77V135.405H109.639V140.587Z" fill="#E6D9CA"/>
<path d="M159.768 123.261C158.907 124.477 157.475 125.66 157.475 132.831C157.475 140.398 159.045 143.703 159.426 144.466H159.768V123.261Z" fill="#3A3752"/>
<path d="M107.51 123.26H158.175H162.387H287.382C287.33 122.073 286.359 121.124 285.159 121.124H158.175V121.126H107.51V123.26Z" fill="#ECECEC"/>
<path d="M266.998 38.5264H163.828C162.595 38.5264 161.596 39.5254 161.596 40.7584V68.6614C161.596 69.8944 162.595 70.8944 163.828 70.8944H266.998V38.5264Z" fill="#76B2D2"/>
<path d="M253.051 43.7163H170.143V64.3543H253.051V43.7163Z" fill="#95CCEB"/>
<path d="M317.662 38.5273V40.4973H286.683V68.8673H317.662V70.8943H266.082C264.261 70.8943 262.785 69.4184 262.785 67.5974V41.8253C262.785 40.0043 264.261 38.5284 266.082 38.5284H317.662V38.5273Z" fill="#679AB6"/>
<path d="M315.535 40.4971H265.404V68.8671H315.535V40.4971Z" fill="#F1E7DB"/>
<path d="M315.535 40.4971H265.404V45.6791H315.535V40.4971Z" fill="#E6D9CA"/>
<path d="M265.404 40.6621C266.265 41.8781 268.697 48.0611 268.697 55.2321C268.697 62.7991 266.127 68.1041 265.746 68.8671H265.404V40.6621Z" fill="#3A3752"/>
<path d="M317.663 40.6624H266.998H262.786H161.605C161.657 39.4754 162.628 38.5264 163.828 38.5264H266.998V38.5284H317.663V40.6624Z" fill="#ECECEC"/>
<path d="M284.896 337.15V302.598H182.372C172.831 302.598 165.096 310.333 165.096 319.874C165.096 329.415 172.831 337.15 182.372 337.15H284.896Z" fill="#7AB4BF"/>
<path d="M189.296 302.598H263.325C253.784 302.598 246.049 310.333 246.049 319.874C246.049 329.415 253.784 337.15 263.325 337.15H189.296C179.755 337.15 172.02 329.415 172.02 319.874C172.02 310.333 179.755 302.598 189.296 302.598Z" fill="#B3D9E1"/>
<path d="M352.29 306.784V302.598H189.793L279.296 306.784H352.29Z" fill="#E6E9EC"/>
<mask id="mask4_470_675" style="mask-type:luminance" maskUnits="userSpaceOnUse" x="256" y="302" width="97" height="36">
<path d="M352.291 337.15V302.598H274.081C264.54 302.598 256.805 310.333 256.805 319.874C256.805 329.415 264.54 337.15 274.081 337.15H352.291Z" fill="white"/>
</mask>
<g mask="url(#mask4_470_675)">
<path d="M352.291 337.15V302.598H274.081C264.54 302.598 256.805 310.333 256.805 319.874C256.805 329.415 264.54 337.15 274.081 337.15H352.291Z" fill="#6A9CA6"/>
</g>
<mask id="mask5_470_675" style="mask-type:luminance" maskUnits="userSpaceOnUse" x="261" y="306" width="92" height="28">
<path d="M352.329 306.454H275.211C267.849 306.454 261.881 312.422 261.881 319.784C261.881 327.146 267.849 333.114 275.211 333.114H352.329V306.454Z" fill="white"/>
</mask>
<g mask="url(#mask5_470_675)">
<path d="M352.329 306.454H261.881V333.114H352.329V306.454Z" fill="#F1E7DB"/>
</g>
<mask id="mask6_470_675" style="mask-type:luminance" maskUnits="userSpaceOnUse" x="261" y="306" width="92" height="28">
<path d="M352.329 306.454H275.211C267.849 306.454 261.881 312.422 261.881 319.784C261.881 327.146 267.849 333.114 275.211 333.114H352.329V306.454Z" fill="white"/>
</mask>
<g mask="url(#mask6_470_675)">
<path opacity="0.76" d="M352.329 304.69H261.881V312.018H352.329V304.69Z" fill="#D6CABC"/>
</g>
<mask id="mask7_470_675" style="mask-type:luminance" maskUnits="userSpaceOnUse" x="261" y="306" width="92" height="28">
<path d="M352.329 306.454H275.211C267.849 306.454 261.881 312.422 261.881 319.784C261.881 327.146 267.849 333.114 275.211 333.114H352.329V306.454Z" fill="white"/>
</mask>
<g mask="url(#mask7_470_675)">
<path d="M262.504 335.88H259.73V303.688H262.792C268.221 313.7 268.34 326.433 262.504 335.88Z" fill="#3A3752"/>
</g>
<path d="M261.132 398.124V361.562H152.428C148.084 361.562 144.562 365.083 144.562 369.427V390.258C144.562 394.602 148.084 398.122 152.428 398.122H261.132V398.124Z" fill="#675FA9"/>
<path d="M166.572 361.562H176.217C171.311 361.562 167.335 365.539 167.335 370.444V389.241C167.335 394.147 171.312 398.122 176.217 398.122H166.572C161.087 398.122 156.641 393.676 156.641 388.191V371.492C156.642 366.008 161.088 361.562 166.572 361.562Z" fill="#4B4679"/>
<path d="M232.259 361.562H241.904C236.998 361.562 233.022 365.539 233.022 370.444V389.241C233.022 394.147 236.999 398.122 241.904 398.122H232.259C226.774 398.122 222.328 393.676 222.328 388.191V371.492C222.328 366.008 226.774 361.562 232.259 361.562Z" fill="#4B4679"/>
<mask id="mask8_470_675" style="mask-type:luminance" maskUnits="userSpaceOnUse" x="297" y="312" width="37" height="136">
<path d="M297.017 447.289H333.578V322.378C333.578 316.866 329.109 312.397 323.597 312.397H306.998C301.486 312.397 297.017 316.866 297.017 322.378V447.289Z" fill="white"/>
</mask>
<g mask="url(#mask8_470_675)">
<path d="M382.744 398.124V361.563H247.852V398.124H382.744Z" fill="#8077C7"/>
</g>
<mask id="mask9_470_675" style="mask-type:luminance" maskUnits="userSpaceOnUse" x="253" y="366" width="130" height="28">
<path d="M382.79 366.394H260.192C256.501 366.394 253.51 369.386 253.51 373.076V387.125C253.51 390.816 256.502 393.807 260.192 393.807H382.79V366.394Z" fill="white"/>
</mask>
<g mask="url(#mask9_470_675)">
<path d="M382.788 366.394H253.508V393.808H382.788V366.394Z" fill="#F1E7DB"/>
</g>
<mask id="mask10_470_675" style="mask-type:luminance" maskUnits="userSpaceOnUse" x="253" y="366" width="130" height="28">
<path d="M382.79 366.394H260.192C256.501 366.394 253.51 369.386 253.51 373.076V387.125C253.51 390.816 256.502 393.807 260.192 393.807H382.79V366.394Z" fill="white"/>
</mask>
<g mask="url(#mask10_470_675)">
<path opacity="0.76" d="M382.788 365.831H253.508V374.667H382.788V365.831Z" fill="#D6CABC"/>
</g>
<mask id="mask11_470_675" style="mask-type:luminance" maskUnits="userSpaceOnUse" x="253" y="366" width="130" height="28">
<path d="M382.79 366.394H260.192C256.501 366.394 253.51 369.386 253.51 373.076V387.125C253.51 390.816 256.502 393.807 260.192 393.807H382.79V366.394Z" fill="white"/>
</mask>
<g mask="url(#mask11_470_675)">
<path d="M252.5 366.395V393.809C252.5 393.809 259.027 390.279 259.027 377.82C259.026 366.473 252.5 366.395 252.5 366.395Z" fill="#3A3752"/>
</g>
<path d="M152.428 361.562H247.853H261.132H382.744V365.392H261.132H247.853H145.686C147.06 363.1 149.561 361.562 152.428 361.562Z" fill="#E6E0EC"/>
<path d="M382.744 394.541V398.123H152.427C149.664 398.123 147.238 396.695 145.836 394.541H382.744Z" fill="#E6E0EC"/>
<path d="M239.629 93.2637V121.152H156.71C153.397 121.152 150.711 118.466 150.711 115.153V99.2627C150.711 95.9487 153.397 93.2637 156.71 93.2637H239.629Z" fill="#DB902E"/>
<path d="M167.321 121.152H213.82C210.078 121.152 207.045 118.118 207.045 114.377V100.039C207.045 96.2967 210.079 93.2637 213.82 93.2637H167.321C163.137 93.2637 159.746 96.6547 159.746 100.839V113.577C159.746 117.76 163.138 121.152 167.321 121.152Z" fill="#E3B84C"/>
<mask id="mask12_470_675" style="mask-type:luminance" maskUnits="userSpaceOnUse" x="257" y="65" width="29" height="84">
<path d="M257.217 65.5472H285.105V141.254C285.105 145.459 281.696 148.867 277.492 148.867H264.831C260.626 148.867 257.218 145.458 257.218 141.254V65.5472H257.217Z" fill="white"/>
</mask>
<g mask="url(#mask12_470_675)">
<path d="M229.5 93.2634V121.151H312.82V93.2634H229.5Z" fill="#E3B84C"/>
</g>
<mask id="mask13_470_675" style="mask-type:luminance" maskUnits="userSpaceOnUse" x="233" y="96" width="80" height="22">
<path d="M312.854 117.466H238.911C236.096 117.466 233.814 115.184 233.814 112.369V101.653C233.814 98.8377 236.096 96.5557 238.911 96.5557H312.853V117.466H312.854Z" fill="white"/>
</mask>
<g mask="url(#mask13_470_675)">
<path d="M312.854 96.5547H233.814V117.466H312.854V96.5547Z" fill="#F1E7DB"/>
</g>
<mask id="mask14_470_675" style="mask-type:luminance" maskUnits="userSpaceOnUse" x="233" y="96" width="80" height="22">
<path d="M312.854 117.466H238.911C236.096 117.466 233.814 115.184 233.814 112.369V101.653C233.814 98.8377 236.096 96.5557 238.911 96.5557H312.853V117.466H312.854Z" fill="white"/>
</mask>
<g mask="url(#mask14_470_675)">
<path opacity="0.76" d="M312.854 96.5547H233.814V103.295H312.854V96.5547Z" fill="#D6CABC"/>
</g>
<mask id="mask15_470_675" style="mask-type:luminance" maskUnits="userSpaceOnUse" x="233" y="96" width="80" height="22">
<path d="M312.854 117.466H238.911C236.096 117.466 233.814 115.184 233.814 112.369V101.653C233.814 98.8377 236.096 96.5557 238.911 96.5557H312.853V117.466H312.854Z" fill="white"/>
</mask>
<g mask="url(#mask15_470_675)">
<path d="M233.045 117.466V96.5547C233.045 96.5547 238.912 96.5557 238.024 108.752C237.394 117.383 233.045 117.466 233.045 117.466Z" fill="#3A3752"/>
</g>
<path d="M234.611 361.922V337.15H308.116C314.957 337.15 320.502 342.696 320.502 349.536C320.502 356.377 314.956 361.922 308.116 361.922H234.611Z" fill="#64704D"/>
<path d="M300.644 337.149H293.055C299.896 337.149 305.441 342.694 305.441 349.535C305.441 356.376 299.895 361.921 293.055 361.921H300.644C307.485 361.921 313.03 356.376 313.03 349.535C313.03 342.695 307.485 337.149 300.644 337.149Z" fill="#808F62"/>
<path d="M260.489 337.149H252.9C259.741 337.149 265.286 342.694 265.286 349.535C265.286 356.376 259.74 361.921 252.9 361.921H260.489C267.33 361.921 272.875 356.376 272.875 349.535C272.875 342.695 267.329 337.149 260.489 337.149Z" fill="#808F62"/>
<path d="M138.031 340.151V337.149H302.797L238.626 340.151H138.031Z" fill="#E6E9EC"/>
<mask id="mask16_470_675" style="mask-type:luminance" maskUnits="userSpaceOnUse" x="138" y="337" width="117" height="25">
<path d="M138.031 361.922V337.15H242.366C249.207 337.15 254.752 342.696 254.752 349.536C254.752 356.377 249.206 361.922 242.366 361.922H138.031Z" fill="white"/>
</mask>
<g mask="url(#mask16_470_675)">
<path d="M138.031 361.922V337.15H242.366C249.207 337.15 254.752 342.696 254.752 349.536C254.752 356.377 249.206 361.922 242.366 361.922H138.031Z" fill="#808F62"/>
</g>
<mask id="mask17_470_675" style="mask-type:luminance" maskUnits="userSpaceOnUse" x="138" y="339" width="114" height="21">
<path d="M251.113 359.028H147.561C142.283 359.028 138.004 354.749 138.004 349.471C138.004 344.193 142.283 339.914 147.561 339.914H251.113V359.028Z" fill="white"/>
</mask>
<g mask="url(#mask17_470_675)">
<path d="M138.004 359.028H251.113V339.914H138.004V359.028Z" fill="#F1E7DB"/>
</g>
<mask id="mask18_470_675" style="mask-type:luminance" maskUnits="userSpaceOnUse" x="138" y="323" width="114" height="20">
<path d="M251.113 342.821H147.561C142.283 342.821 138.004 338.542 138.004 333.264C138.004 327.986 142.283 323.707 147.561 323.707H251.113V342.821Z" fill="white"/>
</mask>
<g mask="url(#mask18_470_675)">
<path d="M138.004 343.48H251.113V339.254H138.004V343.48Z" fill="#ECE6E8"/>
</g>
<mask id="mask19_470_675" style="mask-type:luminance" maskUnits="userSpaceOnUse" x="138" y="339" width="114" height="21">
<path d="M138.004 339.914H241.556C246.834 339.914 251.113 344.193 251.113 349.471C251.113 354.749 246.834 359.028 241.556 359.028H138.004V339.914Z" fill="white"/>
</mask>
<g mask="url(#mask19_470_675)">
<path d="M250.665 361.012H252.654V337.931H250.459C246.566 345.109 246.481 354.239 250.665 361.012Z" fill="#3A3752"/>
</g>
<path d="M204.438 302.599H366.428V265.095H204.438V302.599Z" fill="#9F6A64"/>
<path d="M204.438 297.915H366.427V302.577C366.427 302.589 366.417 302.598 366.406 302.598H204.438V297.915Z" fill="#D8D3D9"/>
<path d="M204.438 265.095H366.427V267.422C366.427 267.43 366.421 267.437 366.413 267.437H204.438V265.095Z" fill="#E6E9EC"/>
<path d="M214.338 289.06V278.633C217.516 278.633 220.093 276.057 220.093 272.879H351.901C351.901 276.057 354.477 278.633 357.655 278.633V289.06C354.477 289.06 351.901 291.636 351.901 294.814H220.093C220.093 291.637 217.517 289.06 214.338 289.06Z" fill="#C9A39F"/>
<path d="M129.995 180.157L309.5 180.157V146.492L129.995 146.492V180.157Z" fill="#CF423D"/>
<path d="M181.052 146.723H154.686V180.157H181.052V146.723Z" fill="#AB3632"/>
<path d="M286.516 146.723H260.15V180.157H286.516V146.723Z" fill="#AB3632"/>
<path d="M309.499 146.492V149.133C309.499 149.14 309.489 149.145 309.476 149.145H129.994V146.492" fill="#D8D3D9"/>
<path d="M124.134 225.473L329.168 225.473V180.157L124.134 180.157V225.473Z" fill="#F1E7DB"/>
<path d="M124.134 196.709L329.168 196.709V184.894L124.134 184.894V196.709Z" fill="#E6D9CA"/>
<path d="M119.68 225.473L333.623 225.473V220.804L119.68 220.804V225.473Z" fill="#675FA9"/>
<path d="M119.68 184.825L333.623 184.825V180.156L119.68 180.156V184.825Z" fill="#675FA9"/>
<path d="M119.68 182.989L333.623 182.989V180.157L119.68 180.157V182.989Z" fill="#E6E0EC"/>
<path d="M269.267 39.0356V13.4336H193.301C186.231 13.4336 180.5 19.1646 180.5 26.2346C180.5 33.3046 186.231 39.0356 193.301 39.0356H269.267Z" fill="#E66443"/>
<path d="M345.042 35.9336V39.0356H193.302C190.113 39.0356 187.204 37.8626 184.963 35.9336H345.042Z" fill="#E6E9EC"/>
<path d="M345.042 16.5356V13.4336H198.801L265.119 16.5356H345.042Z" fill="#E6E9EC"/>
<mask id="mask20_470_675" style="mask-type:luminance" maskUnits="userSpaceOnUse" x="248" y="13" width="98" height="27">
<path d="M345.041 39.0356V13.4336H261.254C254.184 13.4336 248.453 19.1646 248.453 26.2346C248.453 33.3046 254.184 39.0356 261.254 39.0356H345.041Z" fill="white"/>
</mask>
<g mask="url(#mask20_470_675)">
<path d="M345.041 39.0356V13.4336H261.254C254.184 13.4336 248.453 19.1646 248.453 26.2346C248.453 33.3046 254.184 39.0356 261.254 39.0356H345.041Z" fill="#BD5136"/>
</g>
<mask id="mask21_470_675" style="mask-type:luminance" maskUnits="userSpaceOnUse" x="252" y="16" width="94" height="21">
<path d="M345.07 16.2905H262.092C256.637 16.2905 252.215 20.7125 252.215 26.1675C252.215 31.6225 256.637 36.0445 262.092 36.0445H345.07V16.2905Z" fill="white"/>
</mask>
<g mask="url(#mask21_470_675)">
<path d="M345.07 16.2905H252.215V36.0445H345.07V16.2905Z" fill="#F1E7DB"/>
</g>
<mask id="mask22_470_675" style="mask-type:luminance" maskUnits="userSpaceOnUse" x="252" y="16" width="94" height="21">
<path d="M345.07 16.2905H262.092C256.637 16.2905 252.215 20.7125 252.215 26.1675C252.215 31.6225 256.637 36.0445 262.092 36.0445H345.07V16.2905Z" fill="white"/>
</mask>
<g mask="url(#mask22_470_675)">
<path d="M345.07 16.2905H252.215V19.9255H345.07V16.2905Z" fill="#E6D9CA"/>
</g>
<mask id="mask23_470_675" style="mask-type:luminance" maskUnits="userSpaceOnUse" x="252" y="16" width="94" height="21">
<path d="M345.07 16.2905H262.092C256.637 16.2905 252.215 20.7125 252.215 26.1675C252.215 31.6225 256.637 36.0445 262.092 36.0445H345.07V16.2905Z" fill="white"/>
</mask>
<g mask="url(#mask23_470_675)">
<path d="M252.676 38.0942H250.621V14.2402H252.89C256.912 21.6592 257 31.0942 252.676 38.0942Z" fill="#39354F"/>
</g>
<path d="M87.7175 398.397H82.8075L55.2715 230.901H60.1815L87.7175 398.397Z" fill="#716E80"/>
<path d="M134.592 398.397H129.681L102.145 230.901H107.056L134.592 398.397Z" fill="#716E80"/>
<path d="M128.979 364.26H77.1954L76.1934 358.168H127.977L128.979 364.26Z" fill="#716E80"/>
<path d="M121.521 318.904H69.7373L68.7363 312.812H120.52L121.521 318.904Z" fill="#716E80"/>
<path d="M114.066 273.549H62.2823L61.2812 267.456H113.064L114.066 273.549Z" fill="#716E80"/>
<path d="M107.556 233.947H55.7716L54.1016 223.792H105.886L107.556 233.947Z" fill="#716E80"/>
<path d="M61.9004 398.397H66.8114L94.3474 230.901H89.4364L61.9004 398.397Z" fill="#9D9BA7"/>
<path d="M15.0273 398.397H19.9373L47.4733 230.901H42.5633L15.0273 398.397Z" fill="#9D9BA7"/>
<path d="M20.6387 364.26H72.4227L73.4237 358.168H21.6397L20.6387 364.26Z" fill="#9D9BA7"/>
<path d="M28.0957 318.905H79.8797L80.8817 312.812H29.0977L28.0957 318.905Z" fill="#9D9BA7"/>
<path d="M35.5508 273.549H87.3348L88.3368 267.456H36.5528L35.5508 273.549Z" fill="#9D9BA7"/>
<path d="M42.0625 233.947H93.8465L95.5155 223.792H43.7315L42.0625 233.947Z" fill="#716E80"/>
<path d="M42.873 228.87H106.719V220.674H42.873V228.87Z" fill="url(#paint0_linear_470_675)"/>
<path d="M118.482 369.849C119.993 372.896 120.641 377.393 119.262 380.2C117.883 383.007 110.288 381.583 106.64 376.83C102.992 372.076 105.689 368.913 107.105 367.237C108.522 365.56 115.609 364.054 118.482 369.849Z" fill="#73283A"/>
<path d="M126.134 348.288C123.234 347.366 120.476 346.128 117.751 344.814C116.75 346.525 115.82 348.166 115.022 349.639C109.933 359.036 102.016 376.813 97.2696 382.047C94.4156 385.194 88.9456 391.877 86.2476 392.973C83.5406 394.079 78.3716 394.864 79.3756 395.689C81.3716 397.33 89.1846 396.186 91.8916 395.821C94.5986 395.456 97.8866 396.751 99.7776 395.291C101.669 393.819 99.3546 391.987 101.415 388.542C106.021 380.839 118.816 369.075 123.371 363.747C126.904 359.614 130.633 353.963 133.194 349.856C130.788 349.53 128.415 349.013 126.134 348.288Z" fill="#EAAD96"/>
<path d="M178.431 304.184C189.491 299.441 199.272 305.51 199.272 312.722C199.272 327.086 179.486 339.349 171.896 339.447C154.573 339.671 143.67 345.933 141.881 346.951C140.092 347.969 119.261 380.2 119.261 380.2C119.535 380.28 115.318 380.395 111.583 378.011C107.885 375.65 105.322 374.183 102.617 371.585C102.617 371.585 123.243 334.906 125.277 330.686C127.311 326.466 137.405 321.82 144.983 318.492C156.176 313.576 171.264 307.258 178.431 304.184Z" fill="#A33953"/>
<path d="M196.009 208.465C197.395 209.336 191.853 211.96 191.384 213.786C190.916 215.612 189.753 219.268 188.223 224.805C186.456 231.2 198.923 234.114 191.088 244.485C191.088 244.485 181.832 250.339 178.448 250.153C178.448 250.153 171.672 242.844 180.213 232.766C182.747 229.776 180.213 216.69 184.82 211.331C188.309 207.273 192.729 206.404 196.009 208.465Z" fill="#583834"/>
<path d="M182.752 247.264C178.924 248.339 174.299 252.328 172.859 257.099C171.419 261.87 168.703 270.158 166.678 275.756C166.678 275.756 164.098 274.522 161.283 272.723C157.487 270.298 154.692 268.416 154.692 268.416C153.728 273.95 151.451 273.477 151.451 273.477C151.451 273.477 157.735 280.625 162.186 285.177C167.225 290.331 171.954 293.256 175.152 286.021C178.351 278.786 180.245 275.072 183.145 266.386C187.934 252.045 182.752 247.264 182.752 247.264Z" fill="#EAAD96"/>
<path d="M184.932 229.078C186.386 239.85 182.384 247.946 182.753 247.264C182.753 247.264 191.091 244.431 194.426 241.505C199.52 237.035 208.406 242.747 208.406 242.747C208.406 242.747 210.752 234.248 208.845 224.67C206.938 215.092 206.163 212.327 201.201 210.577C196.24 208.827 190.181 212.059 190.181 212.059C190.181 212.059 183.088 215.417 184.932 229.078Z" fill="#583834"/>
<path d="M206.503 247.623C206.503 247.623 202.079 247.315 201.879 243.296C201.755 240.82 203.222 233.471 203.222 233.471L191.415 231.857C191.415 231.857 191.962 241.775 190.462 243.409C189.564 244.386 185.688 245.728 185.688 245.728L180.709 252.238L191.508 266.136L211.123 255.303L206.503 247.623Z" fill="#EAAD96"/>
<path opacity="0.5" d="M186.73 245.343C191.845 245.156 196.961 244.094 201.89 242.419C202.035 239.427 203.222 233.472 203.222 233.472L191.415 231.858C191.415 231.858 191.962 241.776 190.462 243.41C189.864 244.061 187.945 244.873 186.73 245.343Z" fill="#B89692"/>
<path d="M188.116 215.529C185.27 219.011 185.609 220.951 185.769 225.921C185.907 230.193 185.777 232.263 186.419 234.142C187.067 236.039 189.278 239.7 192.29 241.317C192.893 241.64 194.395 241.835 195.575 241.564C199.561 240.648 205.675 236.305 207.019 233.609C208.004 231.632 208.633 228.02 208.845 224.669C209.053 221.376 209.249 217.104 209.235 214.641C209.185 205.945 193.325 209.157 188.116 215.529Z" fill="#EAAD96"/>
<path d="M140.595 369.849C142.006 372.896 145.25 378.551 143.962 381.358C142.674 384.165 132.052 383.104 128.644 378.35C125.236 373.597 127.321 367.143 128.644 365.466C129.967 363.79 137.911 364.054 140.595 369.849Z" fill="#73283A"/>
<path d="M148.191 345.109C145.768 344.082 143.347 343.062 141.015 341.92C139.471 344.66 138.017 347.35 136.858 349.64C132.104 359.037 123.003 376.814 118.569 382.048C115.903 385.195 111.41 390.133 108.889 391.228C106.36 392.335 100.596 393.487 101.853 395.689C103.117 397.891 111.016 396.186 113.545 395.821C116.074 395.456 119.397 397.863 121.163 396.403C122.93 394.931 120.516 391.988 122.441 388.543C126.744 380.84 140.402 369.076 144.657 363.748C148.529 358.899 152.654 351.961 154.97 347.88C152.702 347.002 150.447 346.066 148.191 345.109Z" fill="#EAAD96"/>
<path d="M207.705 300.529C206.701 312.515 209.997 318.095 209.997 325.308C209.997 339.672 194.655 336.593 187.624 337.516C175.445 339.113 170.248 342.631 168.577 343.648C166.906 344.666 143.961 381.358 143.961 381.358C143.961 381.358 138.543 380.078 135.524 377.394C132.318 374.544 130.685 373.517 124.865 372.296C124.865 372.296 144.539 334.904 146.439 330.684C148.339 326.464 178.494 310.439 185.177 309.497C191.86 308.555 207.705 300.529 207.705 300.529Z" fill="#A33953"/>
<path d="M124.865 372.297C131.601 359.493 138.399 346.713 144.912 333.793C147.771 328.121 152.489 325.47 157.954 322.267C162.863 319.39 168.008 316.386 173.313 313.88" stroke="#73283A" stroke-width="0.913" stroke-miterlimit="10"/>
<path d="M218.951 266.716C218.074 271.588 216.753 276.746 216.097 280.424C214.575 288.901 212.495 286.435 211.369 295.177C210.674 300.571 213.854 311.313 214.425 315.266C207.223 320.138 197.012 313.41 192.57 311.579C182.728 307.521 174.865 308.928 171.207 307.258C173.511 304.711 178.037 290.115 177.371 284.777C176.684 279.239 171.622 272.339 173.028 269.728C174.434 267.107 182.751 247.264 182.751 247.264L185.69 245.725C185.69 245.725 181.761 256.494 190.378 258.796C203.878 262.402 210.791 247.264 210.791 247.264C210.791 247.264 214.611 248.996 218.86 250.482C218.86 250.482 220.082 260.364 218.951 266.716Z" fill="#BF5A73"/>
<path d="M197.531 218.665C200.174 218.971 202.707 218.927 202.363 224.804C201.814 234.184 202.551 236.707 198.605 246.116C196.204 251.843 205.136 254.39 210.277 250.813C211.467 249.985 213.896 249.29 215.039 249.385C220.568 249.848 218.609 242.725 214.812 236.499C211.122 230.447 212.006 225.42 212.006 222.554C212.006 215.99 209.686 210.953 204.849 208.123C199.653 205.084 193.209 205.907 189.71 209.332C188.841 210.183 187.456 211.119 187.373 212.499C187.22 215.06 187.732 217.532 197.531 218.665Z" fill="#583834"/>
<path d="M150.781 273.892C147.496 270.695 147.502 269.502 146.839 266.809C146.176 264.116 147.574 263.756 147.574 263.756C147.574 263.756 150.703 265.471 152.998 268.824C155.293 272.177 154.592 273.892 154.592 273.892H150.781Z" fill="#EAAD96"/>
<path d="M157.283 253.502C157.283 253.502 157.162 251.699 159.079 249.763C160.996 247.827 181.79 244.006 181.79 244.006L183.064 249.764L161.969 256.16L157.283 253.502Z" fill="#FAEBD9"/>
<path d="M183.867 247.653L190.857 276.261C190.857 276.261 173.087 280.564 168.328 282.769L160.031 253.052L183.867 247.653Z" fill="#4E86D2"/>
<path d="M157.487 257.656L157.283 253.503C157.283 253.503 156.9 250.317 155.015 248.981C153.13 247.645 145.88 245.378 145.88 245.378L144.074 248.736L157.487 257.656Z" fill="#FAEBD9"/>
<path d="M162.664 282.407C162.664 282.407 165.812 284.607 168.329 282.768L160.032 253.051C160.032 253.051 156.946 254.282 154.238 252.682L162.664 282.407Z" fill="#4E86D2"/>
<path d="M143.332 247.675L154.237 252.682L162.664 282.407L152.056 277.075L143.332 247.675Z" fill="#4E86D2"/>
<path d="M146.87 259.87C148.182 259.807 149.799 260.748 150.374 261.849C150.949 262.951 150.393 263.051 149.819 263.055C149.245 263.058 148.689 263.159 148.689 263.159C148.689 263.159 149.838 264.258 151.053 264.641C152.268 265.024 153.054 265.686 152.633 266.566C152.213 267.446 151.993 267.285 151.183 267.029C151.183 267.029 152.374 267.819 151.987 268.893C151.601 269.968 150.207 269.114 150.207 269.114C150.207 269.114 151.549 269.675 151.348 270.717C151.147 271.758 150.235 270.918 149.349 270.777C148.463 270.635 146.967 269.198 146.924 268.402C146.881 267.606 146.837 266.81 146.837 266.81C146.837 266.81 146.515 266.064 146.345 265.09C146.175 264.116 146.175 264.116 146.175 264.116L146.434 262.863C146.436 262.862 145.352 259.943 146.87 259.87Z" fill="#EAAD96"/>
<path d="M218.861 250.482C213.765 249.053 212.447 256.159 211.931 263.438C211.462 270.059 209.591 284.777 209.591 284.777C209.591 284.777 198.386 277.394 193.203 272.761C192.707 272.317 192.261 271.935 191.948 271.591C190.503 270.003 188.753 266.618 187.871 262.507C187.829 262.311 188.039 261.593 187.125 260.982C185.008 259.567 184.672 257.983 183.531 256.72C182.305 255.363 181.347 254.098 180.852 254.661C180.358 255.224 180.967 256.058 181.487 256.861C182.007 257.664 183.477 260.044 183.908 260.817C184.339 261.59 184.213 261.824 183.953 261.871C183.289 261.99 182.532 261.472 181.372 261.078C180.212 260.684 176.893 258.79 176.367 259.446C175.841 260.103 176.489 260.707 178.559 261.758C179.74 262.357 181.81 264.282 181.81 264.282C181.81 264.282 181.184 263.821 179.732 263.118C178.28 262.416 176.721 261.473 176.348 262.339C176.088 262.941 177.866 263.846 177.866 263.846C177.866 263.846 177.228 263.961 177.586 264.728C177.911 265.424 178.812 265.392 179.834 266.439C180.555 267.178 181.759 269.904 183.008 270.329C184.257 270.754 185.161 274.194 187.214 274.892C188.735 275.409 199.055 287.32 199.678 287.911C205.565 293.498 212.069 298.414 215.48 294.44C218.892 290.467 222.137 269.739 222.153 260.618C222.164 254.523 221.313 251.17 218.861 250.482Z" fill="#EAAD96"/>
<path d="M101.097 393.206C99.6738 394.421 95.1488 394.633 91.8168 394.894C88.4848 395.155 86.8888 391.933 86.8888 391.933C80.9148 394.01 77.6728 394.305 75.8978 395.293C73.4768 396.64 75.3898 397.552 78.7128 397.952C82.9618 398.464 86.9628 398.316 90.2578 397.908C91.6938 397.73 97.3748 397.915 98.1018 397.941C101.737 398.072 102.178 396.551 101.494 394.438C101.097 393.206 101.097 393.206 101.097 393.206Z" fill="#73283A"/>
<path d="M121.97 392.502C120.547 393.717 117.712 394.36 114.542 394.093C110.382 393.743 108.889 391.229 108.889 391.229C102.915 393.306 101.107 393.414 99.333 394.402C96.912 395.749 98.353 397.05 101.676 397.45C105.925 397.962 107.837 397.612 111.132 397.204C112.568 397.026 118.249 397.211 118.976 397.237C122.611 397.368 123.052 395.847 122.368 393.734C121.97 392.502 121.97 392.502 121.97 392.502Z" fill="#73283A"/>
<path d="M345.276 344.218C343.618 344.45 341.485 345.708 340.778 347.929C340.071 350.15 343.293 352.262 344.252 355.089C345.211 357.916 347.732 361.996 351.165 363.005C354.598 364.015 356.831 361.985 356.077 358.345C355.323 354.705 349.485 347.449 349.485 347.449L345.276 344.218Z" fill="#A6ABB7"/>
<path d="M333.235 239.052C333.235 239.052 343.454 250.556 351.585 260.223L347.199 298.109C347.199 298.109 346.549 281.645 334.454 273.107C322.359 264.569 305.02 240.506 305.02 240.506L333.235 239.052Z" fill="#3A3752"/>
<path d="M331.348 205.874C331.348 205.874 340.867 211.159 342.79 211.742C344.714 212.325 346.982 213.065 349.53 211.742C352.078 210.419 357.714 204.532 358.787 200.832L353.396 197.956L344.966 205.219L335.037 200.328L331.348 205.874Z" fill="#EAAD96"/>
<path d="M315.217 187.451L326.094 183.11C326.094 183.11 329.328 184.799 332.061 189.907C334.794 195.016 339.699 200.377 339.699 200.377L330.738 210.832C330.738 210.832 324.484 204.458 321.453 199.054C318.423 193.648 315.217 187.451 315.217 187.451Z" fill="#667DB3"/>
<path d="M305.743 161.982C305.743 161.982 305.044 167.374 304.471 170.118C303.898 172.861 302.944 173.807 302.276 174.469C301.608 175.131 294.068 180.24 294.068 180.24C294.068 180.24 310.519 210.9 315.264 194.932C316.762 189.89 322.89 181.564 322.89 181.564C322.89 181.564 317.155 177.071 316.3 174.8C315.445 172.529 314.968 165.955 314.968 165.955L305.743 161.982Z" fill="#EAAD96"/>
<path d="M312.257 177.29C313.053 177.87 313.853 178.443 314.665 178.999C316.081 179.966 317.52 180.899 318.981 181.796C319.854 182.332 320.754 182.822 321.643 183.331C322.387 182.252 322.891 181.564 322.891 181.564C322.891 181.564 317.156 177.071 316.301 174.8C315.446 172.529 314.969 165.955 314.969 165.955L305.742 161.982C305.742 161.982 305.043 167.374 304.47 170.118C304.468 170.126 304.466 170.132 304.465 170.139C306.956 172.611 309.549 174.986 312.257 177.29Z" fill="#E6E9EC"/>
<path d="M342.68 253C346.023 252.276 352.622 259.745 356.03 268.837C358.471 275.35 357.426 284.368 356.366 296.854C355.646 305.326 353.127 343.268 353.127 343.268H343.263C343.263 343.268 341.435 321.633 340.732 305.806C339.7 282.578 339.425 278.805 339.425 278.805L316.902 253.001C316.902 253.001 337.528 254.116 342.68 253Z" fill="#3A3752"/>
<path d="M312.779 243.44C321.033 243.109 334.005 239.824 333.234 239.052C331.516 237.333 329.397 218.319 329.34 213.399C329.18 199.539 326.095 183.109 326.095 183.109L318.168 177.333C318.168 177.333 317.813 182.851 311.642 183.349C298.14 184.438 298.66 177.092 298.66 177.092C298.66 177.092 290.319 180.542 286.932 183.332C282.365 187.095 282.051 191.748 284.731 209.948C285.837 217.459 285.673 226.575 286.51 233.475C287.186 239.053 286.066 252.952 290.176 252.618C297.046 249.916 305.145 243.177 312.779 243.44Z" fill="#5C70A1"/>
<path d="M352.911 343.155L343.875 342.92C343.875 342.92 343.896 343.884 343.619 344.449C343.158 345.39 342.403 346.397 343.259 348.592C344.476 351.716 348.128 359.49 351.051 361.134C352.623 362.018 354.541 361.762 355.706 360.314C356.741 359.029 355.522 355.845 354.808 352.565C353.805 347.956 352.911 343.155 352.911 343.155Z" fill="#3A3752"/>
<path d="M353.517 197.915C353.517 197.915 353.742 196.159 351.608 194.193C349.475 192.227 330.854 190.431 330.854 190.431L329.107 196.003L347.957 200.326L353.517 197.915Z" fill="#FAEBD9"/>
<path d="M328.275 193.91L321.93 220.798C321.93 220.798 339.903 223.07 345.319 225.41L352.442 197.837L328.275 193.91Z" fill="#64704D"/>
<path d="M353.087 201.963L353.518 197.915C353.518 197.915 352.204 194.981 353.427 192.972C354.651 190.963 360.898 185.725 360.898 185.725L364.557 187.82L353.087 201.963Z" fill="#FAEBD9"/>
<path d="M349.219 224.988C349.219 224.988 347.246 226.394 345.318 225.41L352.441 197.837C352.441 197.837 355.48 198.266 357.088 197.234L349.219 224.988Z" fill="#64704D"/>
<path d="M364.752 186.566L357.087 197.234L349.219 224.988L355.664 218.683L364.752 186.566Z" fill="#64704D"/>
<path opacity="0.13" d="M345.641 209.235L347.397 201.245L331.639 198.913L329.898 206.975L345.641 209.235Z" fill="#A5BDD1"/>
<path d="M334.364 204.075C334.164 204.075 333.764 204.27 333.267 204.602C333.302 204.515 333.338 204.414 333.372 204.291C333.66 203.254 331.412 204.648 329.95 206C328.489 207.352 325.119 209.264 325.119 209.264C324.016 209.275 325.985 204.466 325.489 203.755C324.992 203.044 324.57 204.215 323.282 208.134C322.681 209.961 320.755 211.887 318.756 213.252C318.051 213.734 316.138 214.223 313.804 214.765C313.493 214.832 300.042 217.425 298.278 218.101C298.278 218.101 296.753 209.428 295.05 204.036C290.286 204.575 287.516 206.357 282.742 206.828C283.126 214.565 285.443 220.627 286.933 225.762C287.779 228.675 290.163 231.041 294.069 229.932C296.222 229.321 317.697 219.85 319.19 219.152C322.064 217.809 324.936 217.189 325.829 216.571C327.28 215.568 330.288 213.239 331.347 212.398C332.329 211.618 331.851 210.726 331.776 210.599C331.824 210.586 332.089 210.202 332.817 209.236C333.386 208.482 333.252 207.158 333.252 207.158C334.008 206.318 334.056 205.901 334.364 205.387C335.008 204.314 334.676 204.075 334.364 204.075Z" fill="#EAAD96"/>
<path d="M361.381 198.914C361.15 198.882 361.22 199.74 361.034 199.916C359.666 201.207 357.368 202.217 358.082 202.58C358.379 202.732 358.805 203.004 358.805 203.004C358.805 203.004 358.465 203.746 358.719 203.985C358.973 204.224 359.024 204.456 358.99 204.629C358.956 204.802 358.461 205.915 358.631 206.065C358.8 206.214 358.547 206.959 358.685 207.195C358.823 207.43 359.087 207.293 359.764 206.908C360.44 206.523 361.205 205.208 361.637 204.156C362.537 201.956 361.787 198.97 361.381 198.914Z" fill="#EAAD96"/>
<path d="M297.976 212.482C297.976 212.482 293.722 191.244 292.713 189.063C288.478 179.908 284.038 183.337 280.736 194.737C279.698 198.323 279.106 211.024 281.846 217.811C285.817 219.239 292.713 215.036 297.976 212.482Z" fill="#667DB3"/>
<path d="M333.112 259.014C330.452 253.493 324.85 251.113 317.931 243.296C317.931 243.296 313.091 243.448 305.018 244.377C298.279 245.152 289.868 248.115 289.868 248.115C289.006 252.266 289.345 257.607 294.436 263.62C297.774 267.561 302.25 265.425 311.204 268.988C313.037 270.515 314.194 271.739 314.194 271.739C314.194 271.739 314.357 277.827 310.92 292.949C307.483 308.071 305.787 324.765 305.787 324.765L314.998 323.204C314.998 323.204 323.357 306.921 326.596 300.115C334.942 282.577 335.575 275.698 336.451 270.717C337.248 266.201 335.513 262.223 333.112 259.014Z" fill="#3A3752"/>
<path d="M326.598 300.114C334.944 282.576 335.577 275.697 336.453 270.716C337.247 266.2 334.986 258.909 323.562 248.919" stroke="#242430" stroke-width="0.8561" stroke-miterlimit="10"/>
<path d="M327.311 156.672C327.189 159.641 325.827 166.264 324.8 168.912C323.377 172.579 320.85 175.344 317.928 176.29C315.006 177.236 310.678 173.636 308.816 170.84C306.954 168.044 307.396 164.465 307.407 161.087C307.418 157.709 308.795 154.322 308.795 154.322C308.795 154.322 308.58 148.704 311.737 147.103C323.837 140.97 327.433 153.704 327.311 156.672Z" fill="#EAAD96"/>
<path d="M329.784 153.977C326.292 154.108 321.419 155.979 317.333 154.561C314.634 153.624 311.968 151.908 311.968 151.908C311.39 154.015 312.634 154.362 312.403 156.198C312.173 158.034 309.545 159.209 309.545 159.209C309.545 159.209 308.792 161.959 307.92 162.649C307.048 163.339 304.96 169.173 304.96 169.173C304.96 169.173 303.091 163.559 302.982 162.668C302.873 161.776 300.348 159.805 299.347 156.847C298.346 153.889 300.168 142.318 307.367 142.998C307.367 142.998 315.138 137.714 324.338 145.182C327.871 148.049 329.784 153.977 329.784 153.977Z" fill="#372B2C"/>
<path d="M309.408 159.897C309.569 158.537 310.299 155.146 307.258 154.604C304.216 154.062 304.408 158.789 305.328 159.965C306.249 161.14 307.324 163.581 307.324 163.581C307.324 163.581 309.166 161.936 309.408 159.897Z" fill="#EAAD96"/>
<path d="M315.462 322.459C313.997 321.442 310.893 320.927 309.094 321.361C307.295 321.795 305.707 321.124 305.707 321.124C305.707 321.124 303.716 324.593 304.045 325.793C304.704 328.197 308.402 334.047 312.367 337.251C315.617 339.877 319.152 340.353 320.444 338.854C322.165 336.859 315.462 322.459 315.462 322.459Z" fill="#3A3752"/>
<path d="M318.735 340.47C316.555 340.803 314.983 340.618 312.367 339.246C309.347 337.662 303.627 330.061 303.013 327.971C302.789 327.208 303.78 325.685 304.017 324.927C304.382 323.762 308.556 333.895 312.75 336.894C314.336 338.028 318.8 339.78 320.445 338.854C320.445 338.854 319.937 340.286 318.735 340.47Z" fill="#A6ABB7"/>
<path d="M89.0213 168.36C86.6703 168.38 85.7663 165.965 83.3573 165.784C82.5313 170.8 80.2283 177.105 79.3973 179.323C77.8063 183.573 73.9633 184.416 71.6653 186.381C70.8943 187.043 69.9343 187.815 69.0703 188.621C72.4443 188.555 77.8153 188.887 81.1143 188.098C84.2123 187.357 85.2663 185.08 88.3753 184.343C88.1583 183.347 87.8023 182.096 87.5533 180.253C87.1223 177.056 87.8393 172.844 89.0213 168.36Z" fill="#EAAD96"/>
<path d="M88.3306 183.095C87.0076 184.672 83.1346 186.833 79.6466 187.12C75.0686 187.496 73.6376 184.816 73.6376 184.816C70.3306 187.563 65.8266 188.481 64.1226 190.198C61.9756 192.361 63.5406 193.249 67.2196 193.08C71.9236 192.863 73.9346 192.136 77.4366 191.094C78.9626 190.64 84.2836 189.837 85.0776 189.733C89.0456 189.215 90.1246 187.455 88.9986 185.285C88.3416 184.021 88.3306 183.095 88.3306 183.095Z" fill="#614630"/>
<path d="M161.661 85.3094L138.891 80.9434C138.891 80.9434 136.968 90.1774 134.385 92.2344C132.518 93.7214 118.753 98.6994 113.607 100.184C109.068 101.494 98.6992 105.06 96.1542 107.427C94.2722 109.179 91.8242 112.105 90.0562 120.37C88.1102 129.467 81.1152 174.336 81.1152 174.336C81.1152 174.336 82.8542 177.586 87.4772 176.803C87.4772 176.803 92.5652 162.609 101.533 144.223C104.893 137.336 108.171 124.48 108.171 124.48C108.171 124.48 121.677 122.437 134.969 121.714C147.012 121.059 156.555 122.193 160.37 119.814C172.93 111.98 161.661 92.5804 161.661 85.3094Z" fill="#8F6D52"/>
<path d="M115.693 188.333C112.218 180.52 114.484 163.602 114.191 154.398L103.375 154.522C105.144 166.041 108.039 183.862 107.604 189.728C107.269 194.254 107.173 199.709 106.474 202.651C105.781 205.608 104.278 210.367 107.046 210.713C109.819 211.052 113.528 202.972 114.874 200.504C116.22 198.037 120.532 196.698 120.411 194.179C120.281 191.653 117.458 192.3 115.693 188.333Z" fill="#EAAD96"/>
<path d="M116.861 190.233C116.993 192.288 115.683 196.525 113.357 199.14C110.304 202.573 106.297 201.463 106.297 201.463C105.8 205.733 104.298 209.666 104.25 212.084C104.19 215.132 105.935 214.693 108.48 212.031C111.733 208.627 112.687 206.712 114.501 203.541C115.292 202.159 118.587 197.905 119.09 197.281C121.603 194.166 121.168 192.149 118.857 191.357C117.509 190.895 116.861 190.233 116.861 190.233Z" fill="#614630"/>
<path d="M132.116 48.7632C130.056 57.6692 128.565 64.2392 128.565 64.2392C126.624 63.4952 111.825 60.6422 111.482 60.5682C111.278 60.5212 111.083 60.4742 110.885 60.4282C110.059 62.5222 109.267 64.6272 108.527 66.7492C114.231 69.3302 126.013 74.6002 127.882 75.1312C132.179 76.3512 135.837 73.6642 136.767 70.4602C138.407 64.8112 139.863 56.8992 141.508 50.1902L132.116 48.7632Z" fill="#EAAD96"/>
<path d="M161.661 91.3205L146.684 81.7295L134.384 94.9735C134.384 94.9735 106.439 104.347 103.895 106.715C101.175 109.246 97.8636 111.328 98.7086 125.864C99.4506 138.63 106.135 180.28 106.135 180.28C107.632 181.711 114.247 183.384 114.356 181.315C115.464 160.29 116.56 152.199 116.81 138.195C116.977 128.818 117.149 123.149 117.149 123.149C117.149 123.149 155.307 122.375 160.825 114.896C166.925 106.625 161.661 98.5915 161.661 91.3205Z" fill="#8F6D52"/>
<path d="M134.386 94.9731C134.386 94.9731 106.441 104.347 103.897 106.715C101.177 109.246 97.8655 111.328 98.7105 125.864C99.0705 132.062 100.832 145.067 102.548 156.81" stroke="#785C45" stroke-width="1.0604" stroke-miterlimit="10"/>
<path d="M145.341 39.5572C144.365 42.8742 135.661 38.7582 130.551 32.5642C125.441 26.3702 121.738 15.8142 126.838 8.35619C131.938 0.897189 138.759 15.3422 141.081 23.0242C143.403 30.7062 145.341 39.5572 145.341 39.5572Z" fill="#372B2C"/>
<path d="M136.268 58.5131C137.203 58.7011 138.133 58.8491 139.063 58.9941C139.086 58.7971 139.117 58.5821 139.137 58.3941C139.819 51.8041 145.417 33.2661 139.689 36.5231C135.887 38.6841 132.896 41.5761 130.503 53.1681C130.218 54.5501 130.051 55.8651 129.945 57.1271C131.798 58.0011 135.049 58.2681 136.268 58.5131Z" fill="#64704D"/>
<path d="M142.015 36.3189C142.665 34.8609 144.022 34.6069 142.167 31.4939L150.582 28.1289C150.582 28.1289 152.406 31.7439 155.062 34.3819C157.717 37.0199 151.632 57.8239 146.327 59.5159C141.022 61.2079 138.111 54.6629 138.111 54.6629C138.111 54.6629 138.339 49.6729 138.278 48.3029C138.107 44.4949 142.015 36.3189 142.015 36.3189Z" fill="#EAAD96"/>
<path d="M156.568 34.6245C156.568 34.6245 152.707 36.2285 149.362 39.9965C146.016 43.7635 141.349 48.4295 140.079 47.9385C138.809 47.4475 141.343 37.4225 142.627 35.3105L139.69 36.5235C139.69 36.5235 137.034 45.6065 135.348 48.5525C133.662 51.4995 131.088 55.5785 131.346 59.4325C131.603 63.2855 134.306 68.6875 134.048 72.0025C133.791 75.3175 133.179 89.9305 133.179 89.9305C133.179 89.9305 138.265 91.6175 146.909 91.4975C156.291 91.3665 159.558 90.8165 165.419 86.8445C163.797 82.4595 162.566 82.4825 162.231 71.2085C162.051 65.1685 163.132 59.6025 164.419 52.9735C165.706 46.3435 167.331 42.6185 164.886 39.3035C162.44 35.9865 156.568 34.6245 156.568 34.6245Z" fill="#64704D"/>
<path d="M149.602 24.1396C146.754 19.5156 146.825 16.8716 146.85 16.5206C146.852 16.4996 146.853 16.4766 146.853 16.4766L145.445 6.99363C145.445 6.99363 142.222 2.69063 136.701 4.67363C131.18 6.65663 128.943 8.40263 128.174 10.7806C127.526 12.7826 127.938 15.2796 128.233 16.3986C128.528 17.5176 129.406 18.4216 129.085 19.6316C128.764 20.8426 127.06 23.2916 127.028 23.9426C126.995 24.5936 129.023 25.1966 129.332 25.5386C129.641 25.8806 131.443 28.9136 132.319 30.4636C133.195 32.0136 136.386 30.4446 139.051 30.0936C141.397 29.7836 144.922 34.3966 145.841 37.1036L157.726 35.3386C157.726 35.3386 152.667 29.1146 149.602 24.1396Z" fill="#EAAD96"/>
<path d="M145.841 37.1033C145.788 29.1223 146.965 21.3863 142.377 18.2273C141.137 17.3733 136.921 16.7853 135.353 16.4773C126.836 14.8033 126.836 8.35726 126.836 8.35726C126.836 8.35726 131.96 1.94927 139.186 0.298267C146.412 -1.35373 153.452 3.90426 157.268 14.8883C160.161 23.2143 169.652 29.0993 172.808 34.6263C179.194 45.8083 170.244 59.7963 162.637 58.1613C153.891 56.2813 162.857 46.2403 160.213 39.0373C159.765 37.8183 153.853 40.8293 150.757 41.8533C147.508 42.9273 145.853 38.9073 145.841 37.1033Z" fill="#372B2C"/>
<path d="M95.6303 51.799C95.6303 51.799 94.6843 44.195 98.1373 41.085L102.093 42.382L107.851 62.248L102.198 66.143L95.6303 51.799Z" fill="#FAEBD9"/>
<path d="M99.3557 54.1493C99.3557 54.1493 95.7477 51.4273 98.3387 48.1453C100.374 45.5663 119.751 43.9463 119.751 43.9463L131.322 75.0203L126.369 77.4123L116.002 76.8323L99.3557 54.1493Z" fill="#FAEBD9"/>
<path d="M117.233 48.7632L127.564 78.3612C127.564 78.3612 118.476 80.2382 109.847 81.5142L99.6504 51.9742L117.233 48.7632Z" fill="#675FA9"/>
<path d="M105.701 81.1153C105.701 81.1153 106.789 82.1683 109.846 81.5143L99.6489 51.9743C99.6489 51.9743 97.5179 52.6223 95.6289 51.7983L105.701 81.1153Z" fill="#675FA9"/>
<path opacity="0.13" d="M108.771 77.4132L101.756 56.0382L115.526 53.1582L122.323 74.9272L108.771 77.4132Z" fill="#A5BDD1"/>
<path d="M112.769 60.1032C112.989 60.1032 113.429 60.3182 113.976 60.6832C113.937 60.5872 113.898 60.4762 113.861 60.3412C113.544 59.2002 116.018 60.7342 117.626 62.2212C119.234 63.7082 122.179 65.3662 122.179 65.3662C123.392 65.3782 120.925 62.5952 121.472 61.8132C122.019 61.0302 123.792 62.6772 124.963 64.5682C126.076 66.3672 127.743 68.6972 129.943 70.1992C130.719 70.7292 132.824 71.2672 135.391 71.8632C135.734 71.9362 150.533 74.7902 152.474 75.5342C152.474 75.5342 154.84 64.4602 156.899 55.5542L166.292 56.9802C164.646 63.6892 162.316 76.1052 160.676 81.7542C159.746 84.9592 156.088 87.6462 151.791 86.4252C149.422 85.7522 131.107 77.4572 129.464 76.6892C126.302 75.2112 123.142 74.5292 122.159 73.8502C120.562 72.7462 117.253 70.1832 116.088 69.2592C115.007 68.4012 115.533 67.4192 115.616 67.2802C115.563 67.2662 115.272 66.8432 114.471 65.7812C113.845 64.9512 113.992 63.4952 113.992 63.4952C113.161 62.5712 113.108 62.1122 112.769 61.5462C112.06 60.3662 112.425 60.1032 112.769 60.1032Z" fill="#EAAD96"/>
<path d="M96.8483 53.346C96.8483 53.346 95.3853 44.674 98.8703 41.259L98.1383 41.084C98.1383 41.084 94.4263 43.938 95.6313 51.798L96.8483 53.346Z" fill="#675FA9"/>
<path d="M167.065 60.3362C167.696 54.4492 167.622 49.1232 167.34 46.2062C166.509 37.5932 155.96 36.9672 154.142 43.1032C153.121 46.5482 153.464 52.4852 154.471 61.2782C158.545 60.3522 162.8 60.1192 167.065 60.3362Z" fill="#64704D"/>
<defs>
<linearGradient id="paint0_linear_470_675" x1="76.5983" y1="247.127" x2="74.7835" y2="224.622" gradientUnits="userSpaceOnUse">
<stop stop-color="#5B595D"/>
<stop offset="1" stop-color="#6B637D"/>
</linearGradient>
</defs>
</svg>
