<svg width="257" height="72" viewBox="0 0 257 72" fill="none" xmlns="http://www.w3.org/2000/svg">
<g id="the-logo-frame">
<g id="the-logo">
<path d="M32.284 21C30.8844 21 29.7497 22.1476 29.7497 23.5633V43.0322C29.7497 43.5041 30.1279 43.8866 30.5945 43.8866H32.0545C32.5211 43.8866 32.8993 43.5041 32.8993 43.0322V34.0515C32.8993 33.5155 33.0012 33.0206 33.2051 32.567C33.4293 32.0928 33.7249 31.6804 34.0918 31.3299C34.4792 30.9794 34.9276 30.7113 35.4373 30.5258C35.9469 30.3196 36.5075 30.2165 37.1191 30.2165C37.8733 30.1753 38.5053 30.299 39.0149 30.5876C39.5246 30.8557 39.9017 31.299 40.1463 31.9175C40.3909 32.5155 40.5133 33.2783 40.5133 34.2062V41.3233C40.5133 42.739 41.6479 43.8866 43.0476 43.8866H43.6628V33.9897C43.6628 32.4845 43.459 31.2371 43.0513 30.2474C42.6435 29.2577 42.032 28.5258 41.2166 28.0515C40.4011 27.5567 39.3819 27.3093 38.1587 27.3093C37.3025 27.3093 36.4667 27.5052 35.6513 27.8969C34.8359 28.268 34.1326 28.7629 33.5414 29.3814C33.2932 29.6325 33.0792 29.8944 32.8993 30.1672V21H32.284Z" />
<path d="M16.9933 25.4536V43.0322C16.9933 43.5041 17.3716 43.8866 17.8381 43.8866H19.451C19.9176 43.8866 20.2958 43.5041 20.2958 43.0322V25.4536H23.9383C25.3379 25.4536 26.4726 24.306 26.4726 22.8903V22.2371H13.5343C12.1346 22.2371 11 23.3847 11 24.8004V25.4536H16.9933Z"/>
<path fill-rule="evenodd" clip-rule="evenodd" d="M55.4271 44.1959C53.7759 44.1959 52.3081 43.8454 51.0238 43.1443C49.7599 42.4227 48.761 41.4433 48.0271 40.2062C47.3137 38.9691 46.9569 37.5464 46.9569 35.9381C46.9569 34.6598 47.1608 33.4948 47.5685 32.4433C47.9762 31.3918 48.5368 30.4845 49.2503 29.7216C49.9842 28.9381 50.8505 28.3402 51.8494 27.9278C52.8687 27.4948 53.9695 27.2784 55.1519 27.2784C56.1915 27.2784 57.1599 27.4845 58.0568 27.8969C58.9538 28.2887 59.7284 28.8351 60.3808 29.5361C61.0535 30.2371 61.5631 31.0722 61.9097 32.0412C62.2766 32.9897 62.4499 34.0309 62.4295 35.1649L62.3989 36.5258H50.1177C50.2042 37.3299 50.4247 38.0516 50.7792 38.6907C51.2481 39.5155 51.9106 40.1546 52.7668 40.6082C53.623 41.0619 54.6117 41.2887 55.7329 41.2887C56.5279 41.2887 57.2618 41.1546 57.9345 40.8866C59.2696 40.3703 60.8855 40.4535 61.7147 41.631L61.7568 41.6907C61.2675 42.1856 60.6662 42.6186 59.9527 42.9897C59.2596 43.3608 58.5155 43.6598 57.7205 43.8866C56.9458 44.0928 56.1813 44.1959 55.4271 44.1959ZM50.6569 32.7216C50.3576 33.3429 50.8801 33.9897 51.5633 33.9897H59.0047C59.123 33.9897 59.2188 33.8928 59.2188 33.7732C59.1576 33.0928 58.9334 32.4845 58.5461 31.9485C58.1587 31.4124 57.6695 30.9897 57.0783 30.6804C56.4871 30.3711 55.845 30.2165 55.1519 30.2165C54.0511 30.2165 53.1235 30.433 52.3693 30.866C51.615 31.2783 51.0442 31.8969 50.6569 32.7216Z" />
<path fill-rule="evenodd" clip-rule="evenodd" d="M69.1817 22.2371C67.782 22.2371 66.6474 23.3847 66.6474 24.8004V43.8866H75.882C77.0032 43.8866 78.0021 43.7526 78.8787 43.4845C79.7553 43.1959 80.4993 42.7835 81.1109 42.2474C81.7428 41.7113 82.2117 41.0515 82.5175 40.268C82.8437 39.4639 83.0067 38.5464 83.0067 37.5155C83.0067 36.5052 82.8029 35.6082 82.3952 34.8247C82.0079 34.0412 81.4574 33.3918 80.744 32.8763C80.2777 32.526 79.7592 32.2461 79.1885 32.0366C79.8836 31.7117 80.4531 31.2596 80.8968 30.6804C81.5492 29.8557 81.8754 28.8557 81.8754 27.6804C81.8754 26.5052 81.6307 25.5155 81.1415 24.7113C80.6726 23.8866 79.9693 23.268 79.0316 22.8557C78.0938 22.4433 76.9421 22.2371 75.5762 22.2371H69.1817ZM75.6985 40.6701H69.9498V36.9859C69.9498 35.5703 71.0845 34.4227 72.4841 34.4227H75.5457C76.3815 34.4227 77.1051 34.5464 77.7167 34.7938C78.3283 35.0206 78.7971 35.3608 79.1233 35.8144C79.4699 36.268 79.6431 36.8144 79.6431 37.4536C79.6431 38.134 79.4801 38.7216 79.1539 39.2165C78.8481 39.6907 78.3996 40.0515 77.8084 40.299C77.2376 40.5464 76.5344 40.6701 75.6985 40.6701ZM75.3928 31.2062H69.9498V28.0169C69.9498 26.6012 71.0845 25.4536 72.4841 25.4536H75.0258C76.1674 25.4536 77.044 25.701 77.6556 26.1959C78.2671 26.6907 78.5729 27.4021 78.5729 28.3299C78.5729 28.8866 78.4302 29.3814 78.1448 29.8144C77.8798 30.2474 77.5027 30.5876 77.0134 30.8351C76.5445 31.0825 76.0043 31.2062 75.3928 31.2062Z"/>
<path fill-rule="evenodd" clip-rule="evenodd" d="M93.8525 44.1959C92.2828 44.1959 90.8762 43.8351 89.6327 43.1134C88.4095 42.3711 87.4412 41.3711 86.7277 40.1134C86.0142 38.8351 85.6575 37.3814 85.6575 35.7526C85.6575 34.1237 86.0142 32.6804 86.7277 31.4227C87.4412 30.1443 88.4095 29.1443 89.6327 28.4227C90.8762 27.6804 92.2828 27.3093 93.8525 27.3093C95.4018 27.3093 96.788 27.6804 98.0111 28.4227C99.2546 29.1443 100.233 30.1443 100.947 31.4227C101.66 32.6804 102.017 34.1237 102.017 35.7526C102.017 37.3814 101.66 38.8351 100.947 40.1134C100.233 41.3711 99.2546 42.3711 98.0111 43.1134C96.788 43.8351 95.4018 44.1959 93.8525 44.1959ZM93.8525 41.2887C94.1022 41.2887 94.345 41.2725 94.5809 41.2403C93.8614 40.7848 93.3829 39.976 93.3829 39.0541C93.3829 37.6307 94.5238 36.4768 95.9311 36.4768C97.0622 36.4768 98.0212 37.2222 98.354 38.2539C98.6731 37.4975 98.8238 36.6637 98.8061 35.7526C98.8265 34.6804 98.6227 33.732 98.1946 32.9072C97.7665 32.0619 97.1753 31.4021 96.421 30.9278C95.6668 30.4536 94.8106 30.2165 93.8525 30.2165C92.8944 30.2165 92.028 30.4639 91.2533 30.9588C90.4991 31.433 89.9079 32.0928 89.4798 32.9381C89.0517 33.7629 88.8478 34.701 88.8682 35.7526C88.8478 36.8041 89.0517 37.7526 89.4798 38.5979C89.9079 39.4227 90.4991 40.0825 91.2533 40.5773C92.028 41.0515 92.8944 41.2887 93.8525 41.2887Z" />
<path fill-rule="evenodd" clip-rule="evenodd" d="M108.445 43.1134C109.689 43.8351 111.096 44.1959 112.665 44.1959C114.215 44.1959 115.601 43.8351 116.824 43.1134C118.067 42.3711 119.046 41.3711 119.759 40.1134C120.473 38.8351 120.83 37.3814 120.83 35.7526C120.83 34.1237 120.473 32.6804 119.759 31.4227C119.046 30.1443 118.067 29.1443 116.824 28.4227C115.601 27.6804 114.215 27.3093 112.665 27.3093C111.096 27.3093 109.689 27.6804 108.445 28.4227C107.222 29.1443 106.254 30.1443 105.541 31.4227C104.827 32.6804 104.47 34.1237 104.47 35.7526C104.47 37.3814 104.827 38.8351 105.541 40.1134C106.254 41.3711 107.222 42.3711 108.445 43.1134ZM113.633 41.2017C113.323 41.2597 113 41.2887 112.665 41.2887C111.707 41.2887 110.841 41.0515 110.066 40.5773C109.312 40.0825 108.721 39.4227 108.293 38.5979C107.864 37.7526 107.661 36.8041 107.681 35.7526C107.661 34.701 107.864 33.7629 108.293 32.9381C108.721 32.0928 109.312 31.433 110.066 30.9588C110.841 30.4639 111.707 30.2165 112.665 30.2165C113.623 30.2165 114.48 30.4536 115.234 30.9278C115.988 31.4021 116.579 32.0619 117.007 32.9072C117.435 33.732 117.639 34.6804 117.619 35.7526C117.634 36.5148 117.531 37.2228 117.31 37.8767C116.887 37.0454 116.03 36.4768 115.042 36.4768C113.635 36.4768 112.494 37.6307 112.494 39.0541C112.494 39.9504 112.947 40.7399 113.633 41.2017Z" />
<path d="M124.877 43.8866C126.276 43.8866 127.411 42.739 127.411 41.3233V38.5534L129.161 36.8943L134.328 42.9915C134.809 43.5596 135.512 43.8866 136.252 43.8866H139.123L131.372 34.7969L138.909 27.6495H135.702C135.033 27.6495 134.392 27.9167 133.917 28.393L127.411 34.921V21H126.796C125.396 21 124.262 22.1476 124.262 23.5633V43.8866H124.877Z" />
<path d="M140.173 22.2371L146.992 43.8866H149.224L153.787 32.6347C154.072 31.9317 155.055 31.9265 155.347 32.6264L160.049 43.8866H162.342L167.767 26.6641C168.102 25.6008 169.078 24.8788 170.182 24.8788H242.452C243.859 24.8788 245 23.6605 245 22.2371H167.49C166.375 22.2371 165.392 22.9732 165.066 24.0509L161.547 35.6907C161.384 36.2268 161.252 36.6495 161.15 36.9588C161.068 37.268 161.007 37.5258 160.966 37.732C160.926 37.9175 160.885 38.1134 160.844 38.3196L160.832 38.3799L160.816 38.4614C160.708 38.0459 160.584 37.6378 160.447 37.2371C160.304 36.7423 160.131 36.2474 159.927 35.7526L156.734 27.387C156.41 26.5387 155.603 25.9794 154.704 25.9794C153.814 25.9794 153.014 26.5281 152.684 27.3645L149.377 35.7526C149.296 35.9794 149.204 36.2577 149.102 36.5876C149 36.8969 148.857 37.3505 148.674 37.9485C148.62 38.1463 148.558 38.3713 148.489 38.6233C148.47 38.5137 148.45 38.4021 148.429 38.2887C148.348 37.8351 148.256 37.3918 148.154 36.9588C148.052 36.5052 147.94 36.1134 147.818 35.7835L144.241 24.0454C143.913 22.9705 142.931 22.2371 141.819 22.2371H140.173Z" />
<path fill-rule="evenodd" clip-rule="evenodd" d="M177.5 44.1959C176.175 44.1959 174.962 43.8247 173.861 43.0825C172.781 42.3402 171.915 41.3299 171.262 40.0515C170.61 38.7732 170.284 37.3299 170.284 35.7216C170.284 34.0928 170.61 32.6495 171.262 31.3918C171.935 30.1134 172.832 29.1134 173.953 28.3918C175.095 27.6701 176.369 27.3093 177.775 27.3093C178.611 27.3093 179.376 27.433 180.069 27.6804C180.762 27.9278 181.363 28.2784 181.873 28.732C182.37 29.1384 182.778 29.6084 183.096 30.1421C183.096 28.7654 184.199 27.6495 185.56 27.6495H186.276V41.3233C186.276 42.739 185.142 43.8866 183.742 43.8866H183.096V41.4006L183.065 41.4433C182.699 41.9588 182.219 42.4227 181.628 42.8351C181.057 43.2474 180.415 43.5773 179.702 43.8247C179.009 44.0722 178.275 44.1959 177.5 44.1959ZM178.326 41.2577C179.284 41.2577 180.13 41.0206 180.864 40.5464C181.598 40.0722 182.168 39.4227 182.576 38.5979C183.004 37.7526 183.218 36.7938 183.218 35.7216C183.218 34.6701 183.004 33.732 182.576 32.9072C182.168 32.0825 181.598 31.433 180.864 30.9588C180.13 30.4845 179.284 30.2474 178.326 30.2474C177.388 30.2474 176.552 30.4845 175.818 30.9588C175.105 31.433 174.534 32.0825 174.106 32.9072C173.698 33.732 173.494 34.6701 173.494 35.7216C173.494 36.7938 173.698 37.7526 174.106 38.5979C174.534 39.4227 175.105 40.0722 175.818 40.5464C176.552 41.0206 177.388 41.2577 178.326 41.2577Z" />
<path fill-rule="evenodd" clip-rule="evenodd" d="M194.435 50.4433C195.576 50.8144 196.718 51 197.86 51C199.144 51 200.296 50.8144 201.315 50.4433C202.334 50.0928 203.201 49.567 203.914 48.866C204.628 48.1856 205.168 47.3402 205.535 46.3299C205.922 45.3402 206.116 44.1959 206.116 42.8969V27.6495H205.15C203.944 27.6495 202.966 28.6383 202.966 29.8582C202.76 29.5955 202.515 29.3438 202.232 29.1031C201.845 28.7732 201.407 28.4742 200.917 28.2062C200.428 27.9175 199.898 27.701 199.327 27.5567C198.757 27.3918 198.165 27.3093 197.554 27.3093C196.066 27.3093 194.72 27.6804 193.517 28.4227C192.335 29.1443 191.397 30.1443 190.704 31.4227C190.032 32.6804 189.695 34.1237 189.695 35.7526C189.695 37.3814 190.042 38.8351 190.735 40.1134C191.428 41.3711 192.366 42.3711 193.548 43.1134C194.751 43.8351 196.117 44.1959 197.646 44.1959C198.522 44.1959 199.378 44.0103 200.214 43.6392C201.05 43.268 201.743 42.7938 202.293 42.2165C202.575 41.922 202.799 41.6226 202.966 41.3181V43.268C202.966 44.3402 202.772 45.2371 202.385 45.9588C201.998 46.6804 201.427 47.2268 200.673 47.5979C199.919 47.9691 198.981 48.1546 197.86 48.1546C197.268 48.1546 196.667 48.0825 196.055 47.9381C195.444 47.8144 194.863 47.6289 194.313 47.3814C193.762 47.1546 193.283 46.8866 192.875 46.5773L192.562 47.2447C192.063 48.3067 192.341 49.6042 193.41 50.0659C193.729 50.2036 194.071 50.3294 194.435 50.4433ZM200.642 40.5464C199.868 41.0206 198.981 41.2577 197.982 41.2577C197.003 41.2577 196.127 41.0206 195.352 40.5464C194.598 40.0722 193.997 39.4227 193.548 38.5979C193.12 37.7526 192.906 36.8041 192.906 35.7526C192.906 34.701 193.12 33.7629 193.548 32.9381C193.997 32.0928 194.598 31.433 195.352 30.9588C196.127 30.4639 197.003 30.2165 197.982 30.2165C198.981 30.2165 199.857 30.4536 200.612 30.9278C201.386 31.4021 201.988 32.0619 202.416 32.9072C202.864 33.732 203.088 34.6804 203.088 35.7526C203.088 36.8247 202.874 37.7732 202.446 38.5979C202.018 39.4227 201.417 40.0722 200.642 40.5464Z" />
<path fill-rule="evenodd" clip-rule="evenodd" d="M217.748 44.1959C216.178 44.1959 214.772 43.8351 213.528 43.1134C212.305 42.3711 211.337 41.3711 210.623 40.1134C209.91 38.8351 209.553 37.3814 209.553 35.7526C209.553 34.1237 209.91 32.6804 210.623 31.4227C211.337 30.1443 212.305 29.1443 213.528 28.4227C214.772 27.6804 216.178 27.3093 217.748 27.3093C219.297 27.3093 220.684 27.6804 221.907 28.4227C223.15 29.1443 224.129 30.1443 224.842 31.4227C225.556 32.6804 225.913 34.1237 225.913 35.7526C225.913 37.3814 225.556 38.8351 224.842 40.1134C224.129 41.3711 223.15 42.3711 221.907 43.1134C220.684 43.8351 219.297 44.1959 217.748 44.1959ZM217.748 41.2887C218.706 41.2887 219.562 41.0515 220.317 40.5773C221.071 40.0825 221.662 39.4227 222.09 38.5979C222.518 37.7526 222.722 36.8041 222.702 35.7526C222.722 34.6804 222.518 33.732 222.09 32.9072C221.662 32.0619 221.071 31.4021 220.317 30.9278C219.562 30.4536 218.706 30.2165 217.748 30.2165C216.79 30.2165 215.924 30.4639 215.149 30.9588C214.395 31.433 213.804 32.0928 213.375 32.9381C212.947 33.7629 212.743 34.701 212.764 35.7526C212.743 36.8041 212.947 37.7526 213.375 38.5979C213.804 39.4227 214.395 40.0825 215.149 40.5773C215.924 41.0515 216.79 41.2887 217.748 41.2887Z" />
<path d="M231.879 27.6495C230.479 27.6495 229.344 28.7971 229.344 30.2128V43.0322C229.344 43.5041 229.723 43.8866 230.189 43.8866H231.649C232.116 43.8866 232.494 43.5041 232.494 43.0322V34.0515C232.494 33.5155 232.596 33.0206 232.8 32.567C233.024 32.0928 233.32 31.6804 233.687 31.3299C234.074 30.9794 234.522 30.7113 235.032 30.5258C235.542 30.3196 236.102 30.2165 236.714 30.2165C237.468 30.1753 238.1 30.299 238.61 30.5876C239.119 30.8557 239.496 31.299 239.741 31.9175C239.986 32.5155 240.108 33.2783 240.108 34.2062V41.3233C240.108 42.739 241.243 43.8866 242.642 43.8866H243.258V33.9897C243.258 32.4845 243.054 31.2371 242.646 30.2474C242.238 29.2577 241.627 28.5258 240.811 28.0515C239.996 27.5567 238.977 27.3093 237.753 27.3093C236.897 27.3093 236.061 27.5052 235.246 27.8969C234.431 28.268 233.727 28.7629 233.136 29.3814C232.888 29.6325 232.674 29.8944 232.494 30.1672V27.6495H231.879Z" />
</g>
</g>
</svg>
